<?xml version="1.0" encoding="utf-8"?>
<svg xmlns="http://www.w3.org/2000/svg" xmlns:xlink="http://www.w3.org/1999/xlink" version="1.1" width="8748px" height="1406px" style="shape-rendering:geometricPrecision; text-rendering:geometricPrecision; image-rendering:optimizeQuality; fill-rule:evenodd; clip-rule:evenodd">
<g>
    <path style="opacity:1" fill="#f9faf9" d="M 2746.5,117.5 C 2837.73,117.505 2928.4,124.672 3018.5,139C 3060.92,146.071 3103.26,153.571 3145.5,161.5C 3143.48,218.072 3141.15,274.572 3138.5,331C 3078.95,325.065 3019.29,320.065 2959.5,316C 2913.2,313.168 2866.86,311.334 2820.5,310.5C 2778.46,310.309 2736.79,314.142 2695.5,322C 2644.53,332.313 2608.36,361.146 2587,408.5C 2573.26,438.738 2564.59,470.405 2561,503.5C 2553.43,567.771 2549.93,632.271 2550.5,697C 2549.1,759.072 2554.26,820.572 2566,881.5C 2572.61,916.697 2586.28,948.697 2607,977.5C 2626.23,998.374 2649.39,1013.21 2676.5,1022C 2711.69,1032.72 2747.69,1037.88 2784.5,1037.5C 2831.18,1035.85 2877.85,1033.85 2924.5,1031.5C 2924.5,962.5 2924.5,893.5 2924.5,824.5C 2891.17,824.5 2857.83,824.5 2824.5,824.5C 2824.5,761.167 2824.5,697.833 2824.5,634.5C 2931.5,634.5 3038.5,634.5 3145.5,634.5C 3145.5,820.167 3145.5,1005.83 3145.5,1191.5C 3034.87,1209.89 2923.53,1221.72 2811.5,1227C 2742.78,1230.57 2674.78,1225.23 2607.5,1211C 2551.17,1199 2500.84,1175 2456.5,1139C 2423.89,1109.63 2398.72,1074.8 2381,1034.5C 2357.1,979.777 2341.1,922.777 2333,863.5C 2315.05,734.828 2315.05,606.162 2333,477.5C 2340.59,425.475 2354.26,375.142 2374,326.5C 2408.34,243.492 2467.17,185.325 2550.5,152C 2592.15,136.27 2635.15,126.27 2679.5,122C 2701.95,119.868 2724.28,118.368 2746.5,117.5 Z"/>
  </g>
<g>
    <path style="opacity:1" fill="#f9faf9" d="M 6697.5,123.5 C 6719.17,123.5 6740.83,123.5 6762.5,123.5C 6762.5,145.5 6762.5,167.5 6762.5,189.5C 6740.83,189.5 6719.17,189.5 6697.5,189.5C 6697.5,167.5 6697.5,145.5 6697.5,123.5 Z"/>
  </g>
<g>
    <path style="opacity:1" fill="#f9faf9" d="M 641.5,126.5 C 650.553,128.349 659.553,130.516 668.5,133C 673.666,135.08 678.333,137.913 682.5,141.5C 688.618,137.186 695.285,136.352 702.5,139C 721.586,148.736 738.419,161.57 753,177.5C 763.55,170.36 771.217,172.694 776,184.5C 776.752,188.852 777.585,193.185 778.5,197.5C 791.338,188.475 803.005,189.975 813.5,202C 818.383,203.072 823.05,204.739 827.5,207C 844.54,203.707 856.04,210.207 862,226.5C 864.277,232.332 865.944,238.332 867,244.5C 868.505,238.657 872.171,235.323 878,234.5C 880.034,234.354 881.701,235.02 883,236.5C 888.863,249.095 894.53,261.761 900,274.5C 902.118,279.638 903.285,284.971 903.5,290.5C 913.902,289.024 922.902,291.857 930.5,299C 936.043,304.874 941.21,311.041 946,317.5C 950.515,313.733 955.015,313.9 959.5,318C 971.164,330.163 977.83,344.663 979.5,361.5C 986.742,360.372 991.242,363.372 993,370.5C 994.624,377.784 995.957,385.118 997,392.5C 1001.33,401.819 1004.66,411.486 1007,421.5C 1007.38,425.918 1006.88,430.251 1005.5,434.5C 1006.65,435.731 1007.82,435.731 1009,434.5C 1011.24,435.056 1013.24,436.056 1015,437.5C 1019.42,444.337 1022.75,451.67 1025,459.5C 1025.81,464.257 1025.48,468.924 1024,473.5C 1020.6,479.568 1016.43,485.068 1011.5,490C 1029.02,487.207 1034.19,494.04 1027,510.5C 1019.13,521.394 1012.47,533.061 1007,545.5C 1006.24,555.332 1004.58,564.999 1002,574.5C 1000.56,577.603 998.727,580.436 996.5,583C 992,586.085 987.333,588.918 982.5,591.5C 983.833,594.5 983.833,597.5 982.5,600.5C 982.667,600.833 982.833,601.167 983,601.5C 989.776,594.352 997.943,591.685 1007.5,593.5C 1014.81,587.115 1023.14,584.948 1032.5,587C 1040.28,591.046 1044.11,597.546 1044,606.5C 1044.11,613.838 1044.11,621.172 1044,628.5C 1049.1,638.525 1049.77,648.858 1046,659.5C 1044.64,663.721 1043.14,667.887 1041.5,672C 1047.99,680.067 1049.16,688.9 1045,698.5C 1039.46,703.711 1033.62,708.544 1027.5,713C 1031.67,729.692 1029.51,745.525 1021,760.5C 1015.49,768.858 1009.49,776.858 1003,784.5C 1003,788.465 1003.16,792.465 1003.5,796.5C 1003.84,803.981 1001.67,810.648 997,816.5C 986.145,828.688 974.645,840.188 962.5,851C 965.312,856.624 965.145,862.124 962,867.5C 941.251,882.619 918.084,891.786 892.5,895C 882.214,898.225 873.047,903.392 865,910.5C 855.374,922.461 845.374,934.128 835,945.5C 832.752,952.344 828.418,957.344 822,960.5C 822.02,964.725 820.853,968.558 818.5,972C 811.443,974.931 804.11,976.931 796.5,978C 786.436,985.061 776.102,991.727 765.5,998C 767.448,1007.9 771.781,1016.56 778.5,1024C 796.005,1028.17 813.672,1029.5 831.5,1028C 851.981,1016.34 871.148,1002.84 889,987.5C 892.149,971.64 894.316,955.64 895.5,939.5C 895.458,936.741 894.958,934.075 894,931.5C 890.615,927.783 887.615,923.783 885,919.5C 884.175,912.985 886.675,908.151 892.5,905C 901.59,901.137 910.923,897.97 920.5,895.5C 922.187,895.76 923.687,896.427 925,897.5C 925.53,902.846 925.363,908.179 924.5,913.5C 924.288,916.011 924.955,918.178 926.5,920C 929.936,921.087 933.436,921.921 937,922.5C 951.816,920.334 966.649,920.168 981.5,922C 991.053,923.386 996.386,928.886 997.5,938.5C 995.737,964.473 1003.74,986.973 1021.5,1006C 1015.15,1020.66 1006.15,1033.33 994.5,1044C 954.818,1070.84 915.484,1098.17 876.5,1126C 871.002,1129.75 865.002,1132.41 858.5,1134C 837.472,1133.43 816.472,1132.1 795.5,1130C 762.749,1126.69 730.082,1123.03 697.5,1119C 712.33,1129.92 727.996,1139.59 744.5,1148C 763.935,1150.68 766.601,1158.68 752.5,1172C 748.5,1173.33 744.5,1174.67 740.5,1176C 728.246,1186.9 714.246,1190.23 698.5,1186C 694.997,1181.33 691.997,1176.33 689.5,1171C 678.922,1169.8 670.089,1165.3 663,1157.5C 661.438,1155.04 660.438,1152.38 660,1149.5C 640.405,1130.57 618.572,1114.74 594.5,1102C 592.5,1101.33 590.5,1101.33 588.5,1102C 583.659,1104.92 578.659,1107.59 573.5,1110C 566.5,1112 559.5,1112 552.5,1110C 545.399,1106.64 538.233,1103.47 531,1100.5C 524.092,1105.7 516.926,1110.54 509.5,1115C 506.246,1118.48 504.412,1122.65 504,1127.5C 497.049,1134.73 488.549,1138.89 478.5,1140C 463.184,1150.31 449.351,1162.47 437,1176.5C 431.077,1192.72 419.577,1198.88 402.5,1195C 400.833,1194.67 399.167,1194.33 397.5,1194C 390.997,1189.91 384.33,1186.08 377.5,1182.5C 373.828,1177.32 369.161,1173.48 363.5,1171C 358.175,1167.04 355.508,1161.71 355.5,1155C 355.936,1151.57 357.27,1148.57 359.5,1146C 364.487,1145.48 369.487,1144.82 374.5,1144C 384.752,1139.3 394.252,1133.46 403,1126.5C 403.808,1124.42 403.641,1122.42 402.5,1120.5C 368.265,1125.9 333.932,1130.74 299.5,1135C 294.079,1135.84 288.746,1135.51 283.5,1134C 236.977,1112.74 192.31,1088.41 149.5,1061C 132.369,1049.35 117.202,1035.51 104,1019.5C 101.297,1015.56 99.4632,1011.23 98.5,1006.5C 102.397,999.042 106.564,991.708 111,984.5C 116.828,974.347 120.662,963.514 122.5,952C 121.833,947 121.167,942 120.5,937C 120.056,927.512 124.39,921.846 133.5,920C 154.486,918.884 175.486,918.384 196.5,918.5C 197.571,912.851 199.904,907.685 203.5,903C 201.782,902.654 200.115,902.154 198.5,901.5C 197.808,902.025 197.308,902.692 197,903.5C 195.874,900.277 195.707,897.111 196.5,894C 201.363,893.191 206.03,893.858 210.5,896C 217.366,898.347 223.532,901.847 229,906.5C 231.281,909.063 232.448,912.063 232.5,915.5C 230.965,920.911 229.132,926.244 227,931.5C 226.086,936.121 225.586,940.788 225.5,945.5C 226.101,955.828 226.601,966.162 227,976.5C 227.202,978.256 227.702,979.922 228.5,981.5C 249.303,995.137 269.97,1008.97 290.5,1023C 308.343,1023.49 326.009,1021.99 343.5,1018.5C 347.032,1009.24 350.365,999.904 353.5,990.5C 343.419,981.264 333.086,972.098 322.5,963C 309.907,966.364 300.573,962.364 294.5,951C 288.147,950.219 282.48,947.885 277.5,944C 259.98,925.154 243.98,905.154 229.5,884C 222.264,885.173 215.264,884.173 208.5,881C 199.431,875.267 190.931,868.767 183,861.5C 165.292,841.461 147.959,821.127 131,800.5C 92.2157,745.38 74.549,684.047 78,616.5C 82.0257,601.57 90.859,597.737 104.5,605C 108.702,608.867 112.535,613.033 116,617.5C 124.678,630.181 132.344,643.514 139,657.5C 157.098,698.791 173.432,740.791 188,783.5C 188.25,776.41 189.083,769.41 190.5,762.5C 181.744,746.651 174.911,729.984 170,712.5C 168.139,706.777 164.806,702.11 160,698.5C 156.128,674.876 149.795,651.876 141,629.5C 136.752,627.257 133.086,624.257 130,620.5C 107.273,581.254 97.2729,538.921 100,493.5C 102.864,453.045 111.864,414.045 127,376.5C 141.172,348.803 157.839,322.803 177,298.5C 181.199,293.966 185.699,289.799 190.5,286C 196.111,283.36 200.611,284.527 204,289.5C 205.472,293.723 206.472,298.057 207,302.5C 207.333,310.167 207.667,317.833 208,325.5C 220.051,295.395 234.718,266.729 252,239.5C 267.305,216.528 286.805,198.028 310.5,184C 314.879,182.178 319.213,182.178 323.5,184C 326.952,190.876 327.452,198.043 325,205.5C 318.989,219.832 313.322,234.165 308,248.5C 342.763,196.195 390.263,161.028 450.5,143C 465.054,139.472 479.72,138.806 494.5,141C 496.5,142 498.5,143 500.5,144C 501.169,152.825 498.502,160.658 492.5,167.5C 498.091,168.967 503.758,170.467 509.5,172C 513.277,174.955 514.443,178.788 513,183.5C 509.056,197.881 501.223,209.715 489.5,219C 472.938,232.457 454.605,243.123 434.5,251C 443.636,249.297 452.636,246.797 461.5,243.5C 467.249,253.334 473.249,263.001 479.5,272.5C 492.998,269.381 506.664,267.381 520.5,266.5C 522.243,255.452 524.243,244.452 526.5,233.5C 539.837,233.333 553.171,233.5 566.5,234C 569.553,234.179 572.553,234.679 575.5,235.5C 577.706,245.862 580.039,256.196 582.5,266.5C 596.142,268.139 609.642,270.472 623,273.5C 628.761,263.637 634.761,253.97 641,244.5C 656.29,248.93 671.456,253.763 686.5,259C 687.658,260.009 688.325,261.342 688.5,263C 687.818,272.841 687.151,282.675 686.5,292.5C 699.265,297.464 711.765,303.13 724,309.5C 725.225,309.138 726.391,308.638 727.5,308C 736.167,300 744.833,292 753.5,284C 740.465,279.971 732.798,271.304 730.5,258C 723.5,255.167 716.5,252.333 709.5,249.5C 708.613,245.126 708.947,240.793 710.5,236.5C 710,236.167 709.5,235.833 709,235.5C 699.772,238.305 690.605,238.138 681.5,235C 674.375,230.862 667.542,226.362 661,221.5C 659.096,218.077 658.263,214.41 658.5,210.5C 645.431,212.132 633.098,209.965 621.5,204C 614.285,198.407 612.619,191.407 616.5,183C 609.636,179.135 604.47,173.635 601,166.5C 598.102,153.031 603.602,145.197 617.5,143C 622.78,141.905 628.113,141.405 633.5,141.5C 632.431,134.296 635.097,129.296 641.5,126.5 Z M 673.5,178.5 C 664.308,174.742 654.975,171.242 645.5,168C 638.289,165.517 630.956,164.684 623.5,165.5C 623.709,166.086 624.043,166.586 624.5,167C 641.968,170.597 658.302,176.93 673.5,186C 659.625,190.959 645.292,193.459 630.5,193.5C 632.22,194.934 634.22,195.767 636.5,196C 651.046,197.345 665.38,196.178 679.5,192.5C 690.771,197.092 702.104,201.592 713.5,206C 706.586,208.791 699.919,212.124 693.5,216C 691.393,217.264 690.393,219.097 690.5,221.5C 695.223,219.641 699.89,217.474 704.5,215C 710.384,213.056 716.384,211.556 722.5,210.5C 726.054,211.277 729.387,212.61 732.5,214.5C 732.674,224.709 735.008,234.375 739.5,243.5C 738.232,245.047 736.565,246.047 734.5,246.5C 728.833,244.5 723.167,242.5 717.5,240.5C 716.46,236.182 716.46,231.849 717.5,227.5C 712.81,228.138 708.144,228.971 703.5,230C 692.696,231.599 683.363,228.599 675.5,221C 672.341,220.989 669.507,220.155 667,218.5C 667.235,213.593 667.069,208.76 666.5,204C 658.827,203.847 651.16,203.847 643.5,204C 638.481,203.327 633.814,201.66 629.5,199C 627.028,197.202 625.361,194.868 624.5,192C 625.854,188.125 627.854,184.625 630.5,181.5C 622.505,179.263 616.005,174.93 611,168.5C 610.376,161.107 613.876,156.941 621.5,156C 629.929,155.638 638.262,155.472 646.5,155.5C 643.019,151.588 642.186,147.254 644,142.5C 645.062,141.903 646.228,141.57 647.5,141.5C 660.778,145.057 673.278,150.39 685,157.5C 688.277,151.891 693.11,150.058 699.5,152C 719.142,161.158 735.809,174.158 749.5,191C 753.238,190.817 756.905,189.984 760.5,188.5C 763.901,189.441 766.401,191.441 768,194.5C 768.811,198.496 769.144,202.496 769,206.5C 758.91,200.051 748.743,200.051 738.5,206.5C 732.305,204.138 727.472,200.138 724,194.5C 717.198,185.89 711.698,176.556 707.5,166.5C 706.433,178.556 710.099,189.056 718.5,198C 707.559,195.532 697.559,190.865 688.5,184C 679.22,175.726 671.053,166.559 664,156.5C 662.89,154.963 661.39,154.297 659.5,154.5C 659.337,156.857 659.503,159.19 660,161.5C 664.027,167.561 668.527,173.228 673.5,178.5 Z M 320.5,247.5 C 349.935,206.232 388.268,176.398 435.5,158C 451.513,151.161 468.18,148.161 485.5,149C 489.663,150.816 490.497,153.649 488,157.5C 484.287,162.424 480.454,167.258 476.5,172C 460.111,175.242 444.778,181.242 430.5,190C 408.277,202.942 387.277,217.609 367.5,234C 364.705,235.3 362.039,236.8 359.5,238.5C 357.727,237.913 355.894,237.58 354,237.5C 350.403,237.95 346.903,238.45 343.5,239C 377.837,209.688 415.17,184.688 455.5,164C 456.5,163 457.5,162 458.5,161C 453.332,161.4 448.332,162.733 443.5,165C 398.995,187.563 357.995,215.063 320.5,247.5 Z M 479.5,177.5 C 487.534,177.302 495.534,177.635 503.5,178.5C 503.016,184.803 500.849,190.469 497,195.5C 482.864,209.646 467.031,221.48 449.5,231C 421.876,244.263 394.21,257.43 366.5,270.5C 365.406,269.132 365.74,267.965 367.5,267C 400.615,241.576 435.615,218.91 472.5,199C 474.585,197.959 476.252,196.459 477.5,194.5C 476.562,193.447 475.395,192.78 474,192.5C 464.406,195.039 455.24,198.872 446.5,204C 418.4,221.105 390.567,238.605 363,256.5C 362.333,255.167 362.333,253.833 363,252.5C 392.454,225.387 424.954,202.553 460.5,184C 466.708,181.098 473.041,178.932 479.5,177.5 Z M 218.5,330.5 C 233.888,285.527 257.555,245.693 289.5,211C 295.167,206.667 300.833,202.333 306.5,198C 312.396,193.889 314.563,195.389 313,202.5C 304,224.833 295,247.167 286,269.5C 258.934,321.56 225.268,368.893 185,411.5C 184.333,410.5 184.333,409.5 185,408.5C 192.783,398.714 199.783,388.38 206,377.5C 222.806,347.331 238.806,316.665 254,285.5C 261.922,271.984 270.589,258.984 280,246.5C 281.341,243.978 282.174,241.311 282.5,238.5C 279.383,238.642 276.883,239.976 275,242.5C 263.222,257.613 252.222,273.28 242,289.5C 234.14,303.229 226.306,316.896 218.5,330.5 Z M 787.5,203.5 C 798.85,202.935 799.184,204.102 788.5,207C 785.667,208.5 783.5,210.667 782,213.5C 779.385,221.709 778.385,230.043 779,238.5C 773.34,230.597 765.84,225.597 756.5,223.5C 756.351,224.552 756.517,225.552 757,226.5C 764.572,233.401 771.405,240.901 777.5,249C 768.421,255.248 758.421,258.915 747.5,260C 753.893,263.121 760.393,263.287 767,260.5C 767.58,267.65 768.914,274.65 771,281.5C 773,284.167 775,286.833 777,289.5C 779.795,291.293 782.295,293.46 784.5,296C 783.167,297.333 781.833,298.667 780.5,300C 776.167,300.667 771.833,300.667 767.5,300C 763.433,297.639 759.767,294.806 756.5,291.5C 761.035,289.062 763.535,285.396 764,280.5C 756.227,277.39 749.56,272.724 744,266.5C 741.24,262.596 740.406,258.43 741.5,254C 745.363,252.819 748.863,250.986 752,248.5C 754,245.167 754,241.833 752,238.5C 747.316,235.468 744.65,231.135 744,225.5C 741.34,216.495 744.673,211.495 754,210.5C 760.894,211.742 767.394,214.076 773.5,217.5C 777.188,211.812 781.855,207.145 787.5,203.5 Z M 799.5,215.5 C 810.744,214.476 820.744,217.476 829.5,224.5C 832.998,219.299 837.665,218.132 843.5,221C 846.787,224.293 849.287,228.127 851,232.5C 854.772,241.922 857.772,251.589 860,261.5C 863.094,262.962 866.261,264.296 869.5,265.5C 871.506,261.487 874.006,257.82 877,254.5C 881.581,259.663 884.581,265.663 886,272.5C 894.893,282.049 898.56,293.382 897,306.5C 892.382,312.348 889.715,319.014 889,326.5C 886.258,321.867 884.591,316.867 884,311.5C 883.095,300.81 882.095,290.144 881,279.5C 879.005,289.297 878.005,299.297 878,309.5C 868.241,297.319 857.575,285.986 846,275.5C 844.104,264.589 843.104,253.589 843,242.5C 841.623,238.735 840.623,239.068 840,243.5C 839.526,252.525 839.526,261.525 840,270.5C 828.931,257.934 818.431,244.934 808.5,231.5C 807.675,230.614 806.675,230.281 805.5,230.5C 810.287,240.731 816.121,250.398 823,259.5C 830.833,268 838.667,276.5 846.5,285C 837.006,282.884 827.339,281.217 817.5,280C 811.592,278.364 805.759,276.531 800,274.5C 799.167,274.833 798.333,275.167 797.5,275.5C 799.754,278.634 802.754,280.8 806.5,282C 816.726,285.046 827.06,287.712 837.5,290C 846.238,292.126 854.071,295.96 861,301.5C 868.974,309.982 875.14,319.648 879.5,330.5C 863.222,324.675 846.222,320.175 828.5,317C 824.057,315.028 819.557,313.195 815,311.5C 813.743,311.85 813.409,312.517 814,313.5C 817.081,316.293 820.581,318.46 824.5,320C 837.301,322.827 849.967,326.16 862.5,330C 869.895,332.531 876.895,335.864 883.5,340C 884.167,341 884.833,342 885.5,343C 883.083,345.479 882.083,348.479 882.5,352C 882.464,356.098 883.464,359.931 885.5,363.5C 881.179,364.077 877.679,366.077 875,369.5C 874.743,365.623 873.743,361.957 872,358.5C 860.509,347.082 847.176,338.416 832,332.5C 830.628,335.206 828.628,337.206 826,338.5C 811.385,335.373 801.051,327.039 795,313.5C 793.959,310.364 794.793,307.864 797.5,306C 802.08,304.617 806.747,303.617 811.5,303C 815.082,301.003 815.082,298.67 811.5,296C 797.033,291.695 786.366,282.861 779.5,269.5C 779.76,267.813 780.427,266.313 781.5,265C 787.282,264.194 792.116,261.694 796,257.5C 794.582,248.986 792.749,240.486 790.5,232C 790.817,224.894 793.817,219.394 799.5,215.5 Z M 683.5,607.5 C 725.649,575.53 767.983,543.697 810.5,512C 757.835,510.605 705.168,509.271 652.5,508C 698.789,495.178 745.123,482.511 791.5,470C 792.022,469.439 792.355,468.772 792.5,468C 750.295,394.344 687.295,349.511 603.5,333.5C 604.696,381.847 605.862,430.181 607,478.5C 589.384,428.98 571.384,379.647 553,330.5C 534.95,378.647 517.283,426.98 500,475.5C 501.471,428.164 503.304,380.831 505.5,333.5C 421.171,348.881 357.171,393.214 313.5,466.5C 360.66,480.83 407.993,494.663 455.5,508C 402.165,509.63 348.832,511.296 295.5,513C 337.35,544.03 379.017,575.197 420.5,606.5C 374.793,590.375 329.126,574.041 283.5,557.5C 281.097,568.007 280.097,578.674 280.5,589.5C 277.072,589.547 274.072,590.713 271.5,593C 264.39,600.044 258.89,608.211 255,617.5C 251.71,626.659 249.044,635.992 247,645.5C 241.759,651.652 236.759,657.985 232,664.5C 227.599,649.204 225.099,633.537 224.5,617.5C 213.144,615.629 201.81,613.629 190.5,611.5C 190.5,599.167 190.5,586.833 190.5,574.5C 201.9,572.887 213.233,570.887 224.5,568.5C 225.588,551.635 228.088,534.968 232,518.5C 263.276,486.545 288.276,450.212 307,409.5C 314.322,393.889 317.655,377.555 317,360.5C 328.718,342.238 339.551,323.405 349.5,304C 351.754,302.623 353.92,301.123 356,299.5C 364.058,307.394 372.558,314.727 381.5,321.5C 396.184,312.908 411.351,305.241 427,298.5C 426.385,287.799 425.218,277.132 423.5,266.5C 434.715,261.817 446.215,257.817 458,254.5C 464.446,263.214 470.28,272.381 475.5,282C 492.683,278.807 510.016,276.307 527.5,274.5C 529.115,263.76 531.115,253.093 533.5,242.5C 545.838,242.333 558.171,242.5 570.5,243C 573.02,253.098 575.354,263.265 577.5,273.5C 594.013,276.076 610.513,279.076 627,282.5C 627.833,282.167 628.667,281.833 629.5,281.5C 634.456,272.418 639.79,263.584 645.5,255C 658.042,257.403 670.042,261.403 681.5,267C 680.167,277 678.833,287 677.5,297C 693.303,304.571 708.969,312.738 724.5,321.5C 731.148,316.02 737.648,310.353 744,304.5C 745.419,305.46 746.919,306.293 748.5,307C 753.19,307.503 757.857,308.17 762.5,309C 768.087,312.71 773.587,316.543 779,320.5C 779.667,321.5 779.667,322.5 779,323.5C 774.696,332.607 770.53,341.774 766.5,351C 779.145,362.312 791.145,374.312 802.5,387C 806.262,386.47 809.929,385.303 813.5,383.5C 814.341,387.043 815.341,390.543 816.5,394C 814.022,396.478 811.522,398.978 809,401.5C 807.566,405.406 807.233,409.406 808,413.5C 811.004,420.501 814.838,427.001 819.5,433C 811.362,435.135 808.195,440.302 810,448.5C 810.829,454.66 813.996,459.16 819.5,462C 832.93,467.462 844.764,475.295 855,485.5C 861,494.167 867,502.833 873,511.5C 875.234,513.7 877.734,515.533 880.5,517C 878.167,518.5 875.833,520 873.5,521.5C 877.891,537.566 880.891,553.899 882.5,570.5C 892.154,572.497 901.82,574.497 911.5,576.5C 913.353,577.189 914.519,578.522 915,580.5C 915.832,591.515 915.666,602.515 914.5,613.5C 903.914,615.931 893.248,617.931 882.5,619.5C 882.108,608.938 876.775,603.771 866.5,604C 863.898,604.883 861.731,606.383 860,608.5C 850.627,599.975 841.96,600.641 834,610.5C 827.335,620.829 823.668,632.163 823,644.5C 821.977,643.4 821.477,642.067 821.5,640.5C 826.284,613.528 826.617,586.528 822.5,559.5C 776.281,575.906 729.948,591.906 683.5,607.5 Z M 275.5,364.5 C 296.906,328.921 319.739,294.254 344,260.5C 344.833,258.833 345.667,257.167 346.5,255.5C 345.635,254.417 344.635,254.251 343.5,255C 311.441,292.4 283.275,332.566 259,375.5C 245.058,396.406 230.891,417.073 216.5,437.5C 239.144,397.328 261.644,356.995 284,316.5C 297.883,293.278 315.383,273.111 336.5,256C 340.288,254.022 344.121,252.189 348,250.5C 348.915,251.328 349.581,252.328 350,253.5C 351.234,262.438 350.234,271.105 347,279.5C 337.602,302.963 326.602,325.629 314,347.5C 299.703,349.983 286.87,355.649 275.5,364.5 Z M 412.5,261.5 C 413.496,261.414 414.329,261.748 415,262.5C 416.5,272.334 418,282.167 419.5,292C 419.167,292.833 418.833,293.667 418.5,294.5C 406.308,299.846 394.475,305.846 383,312.5C 374.333,305.167 365.667,297.833 357,290.5C 356.464,288.433 356.964,286.599 358.5,285C 376.94,277.941 394.94,270.108 412.5,261.5 Z M 188.5,302.5 C 190.144,302.286 191.644,302.62 193,303.5C 195.934,328.562 193.934,353.229 187,377.5C 167.502,440.16 150.502,503.494 136,567.5C 135.795,504.6 144.462,442.934 162,382.5C 165.029,374.942 168.195,367.442 171.5,360C 171.15,358.743 170.483,358.409 169.5,359C 157.399,376.951 148.565,396.451 143,417.5C 128.291,471.259 122.957,525.926 127,581.5C 128.109,592.498 131.775,602.498 138,611.5C 141.743,615.269 146.077,616.269 151,614.5C 150.987,617.897 150.321,621.23 149,624.5C 137.506,617.664 129.673,607.83 125.5,595C 110.228,554.281 106.062,512.447 113,469.5C 117.689,404.152 142.856,348.485 188.5,302.5 Z M 903.5,406.5 C 906.303,393.712 903.47,382.379 895,372.5C 891.858,365.429 890.191,358.096 890,350.5C 892.346,347.495 895.346,345.495 899,344.5C 897.753,337.601 897.42,330.601 898,323.5C 900.667,317.5 903.333,311.5 906,305.5C 907.085,304.707 908.252,304.04 909.5,303.5C 913.446,304.806 917.112,306.639 920.5,309C 928.75,317.246 936.25,326.079 943,335.5C 946.016,332.047 949.516,331.214 953.5,333C 964.847,346.709 970.014,362.543 969,380.5C 972.788,377.507 976.955,376.507 981.5,377.5C 982.584,378.665 983.417,379.998 984,381.5C 984.328,386.525 984.328,391.525 984,396.5C 990.012,406.37 993.512,417.037 994.5,428.5C 994.612,435.609 992.446,441.943 988,447.5C 986.266,451.017 985.599,454.684 986,458.5C 986.718,459.451 987.551,459.617 988.5,459C 993.065,454.128 998.565,450.628 1005,448.5C 1008.38,454.47 1010.88,460.804 1012.5,467.5C 1011.23,474.272 1007.73,479.605 1002,483.5C 996.768,489.196 994.768,495.863 996,503.5C 997.4,504.116 998.9,504.449 1000.5,504.5C 1005.07,503.199 1009.74,502.533 1014.5,502.5C 1014.58,505.271 1014.08,507.937 1013,510.5C 1001.89,527.94 995.223,546.94 993,567.5C 993.531,543.416 990.698,519.749 984.5,496.5C 991.635,486.074 995.969,474.741 997.5,462.5C 996.914,462.709 996.414,463.043 996,463.5C 992.946,471.946 988.613,479.612 983,486.5C 978.033,470.299 973.533,453.966 969.5,437.5C 977.103,423.089 980.603,407.755 980,391.5C 978.984,390.366 978.317,390.699 978,392.5C 976.635,400.991 974.635,409.325 972,417.5C 970.171,421.828 967.838,425.828 965,429.5C 960.227,415.18 955.06,401.013 949.5,387C 951.665,375.54 951.999,364.04 950.5,352.5C 950.167,352.167 949.833,351.833 949.5,351.5C 948.719,352.729 948.219,354.062 948,355.5C 947.913,362.644 946.913,369.644 945,376.5C 938.859,358.554 931.359,341.22 922.5,324.5C 921.353,326.765 921.186,329.098 922,331.5C 923.908,337.54 925.575,343.54 927,349.5C 922.109,343.105 915.943,338.438 908.5,335.5C 908.167,335.833 907.833,336.167 907.5,336.5C 915.544,344.709 923.378,353.042 931,361.5C 936.287,373.052 940.954,384.718 945,396.5C 935.693,387.848 925.026,381.514 913,377.5C 912.167,377.833 911.333,378.167 910.5,378.5C 917.953,384.113 925.286,389.946 932.5,396C 939.333,402.833 946.167,409.667 953,416.5C 957.635,428.736 961.635,441.069 965,453.5C 955.509,446.043 947.009,437.543 939.5,428C 938.365,427.251 937.365,427.417 936.5,428.5C 945.701,442.039 956.368,454.373 968.5,465.5C 971.803,475.71 974.303,486.043 976,496.5C 964.866,486.603 952.866,477.936 940,470.5C 939.5,470.833 939,471.167 938.5,471.5C 953.49,484.323 967.323,498.323 980,513.5C 982.87,521.913 984.536,530.58 985,539.5C 985.667,551.167 985.667,562.833 985,574.5C 981.71,580.246 976.877,584.246 970.5,586.5C 968.839,595.417 967.839,604.417 967.5,613.5C 962.828,614.003 958.161,614.169 953.5,614C 942.091,602.337 932.258,589.504 924,575.5C 923.814,573.1 923.314,570.766 922.5,568.5C 920.107,567.905 918.273,566.572 917,564.5C 909.89,553.281 903.556,541.614 898,529.5C 897.241,524.293 897.408,519.126 898.5,514C 900.963,511.93 903.629,510.097 906.5,508.5C 906.833,509 907.167,509.5 907.5,510C 904.787,516.285 904.953,522.451 908,528.5C 912.08,529.3 916.247,529.8 920.5,530C 921.931,530.465 923.097,531.299 924,532.5C 924.667,536.167 924.667,539.833 924,543.5C 921.998,548.007 920.498,552.674 919.5,557.5C 919.902,562.339 922.235,565.672 926.5,567.5C 930.568,566.366 934.568,565.033 938.5,563.5C 939.672,563.919 940.672,564.585 941.5,565.5C 942.305,574.119 942.805,582.785 943,591.5C 945.157,600.179 950.323,606.179 958.5,609.5C 960.806,607.861 962.806,605.861 964.5,603.5C 960.1,602.728 956.933,600.395 955,596.5C 954.662,585.178 953.996,573.845 953,562.5C 950.964,556.747 947.298,552.413 942,549.5C 934.546,532.637 928.379,515.304 923.5,497.5C 926.784,496.343 930.118,496.176 933.5,497C 937.174,507.02 940.674,517.187 944,527.5C 946.394,533.287 949.06,538.954 952,544.5C 954.906,547.037 958.073,549.204 961.5,551C 963.196,553.269 963.53,555.602 962.5,558C 963.455,564.185 964.455,570.352 965.5,576.5C 970.262,576.037 973.762,573.704 976,569.5C 984.853,551.095 980.019,537.595 961.5,529C 956.814,525.384 955.314,520.884 957,515.5C 958.883,512.976 961.383,511.642 964.5,511.5C 964.66,509.801 964.494,508.134 964,506.5C 953.014,496.512 941.181,487.678 928.5,480C 924.908,477.079 922.075,473.579 920,469.5C 918.937,464.394 920.77,460.727 925.5,458.5C 929.925,461.045 934.591,463.045 939.5,464.5C 942.747,464.752 944.08,463.252 943.5,460C 943.833,457.333 942.833,455.333 940.5,454C 935.395,452.972 930.895,450.805 927,447.5C 926.394,437.657 926.561,427.824 927.5,418C 929.061,408.916 925.394,403.75 916.5,402.5C 912.017,403.439 907.684,404.773 903.5,406.5 Z M 786.5,326.5 C 789.935,330.438 793.602,334.271 797.5,338C 805.529,343.011 813.529,348.011 821.5,353C 819.066,359.467 816.733,365.967 814.5,372.5C 811.921,373.706 809.421,375.039 807,376.5C 797.637,366.803 787.97,357.47 778,348.5C 777.333,347.5 777.333,346.5 778,345.5C 780.845,339.145 783.679,332.812 786.5,326.5 Z M 492.5,344.5 C 493.833,344.5 495.167,344.5 496.5,344.5C 494.061,398.164 491.561,451.831 489,505.5C 488.692,506.308 488.192,506.975 487.5,507.5C 434.449,492.154 381.449,476.654 328.5,461C 367.751,400.599 422.418,361.766 492.5,344.5 Z M 612.5,344.5 C 684.249,362.114 739.916,401.948 779.5,464C 725.728,479.442 671.728,493.942 617.5,507.5C 615.771,453.169 614.104,398.835 612.5,344.5 Z M 824.5,367.5 C 827.417,361.419 829.75,355.086 831.5,348.5C 840.625,351.98 849.125,356.647 857,362.5C 861.205,370.679 861.371,379.013 857.5,387.5C 850.976,379.476 844.642,371.31 838.5,363C 833.818,364.159 829.152,365.659 824.5,367.5 Z M 552.5,355.5 C 571.265,406.287 589.765,457.287 608,508.5C 608.499,512.152 608.665,515.818 608.5,519.5C 618.144,517.034 627.977,516.034 638,516.5C 687.17,517.544 736.336,518.71 785.5,520C 741.884,551.948 698.551,584.282 655.5,617C 651.847,619.385 647.847,620.885 643.5,621.5C 646.24,626.649 648.74,631.983 651,637.5C 666.437,687.134 681.437,736.801 696,786.5C 651.253,756.209 606.42,726.043 561.5,696C 558.294,692.794 555.127,689.627 552,686.5C 548.391,690.205 544.891,694.039 541.5,698C 497.408,727.128 453.574,756.628 410,786.5C 424.492,735.016 439.825,683.682 456,632.5C 459.216,629.393 461.383,625.726 462.5,621.5C 457.4,620.745 452.734,618.912 448.5,616C 405.782,583.615 362.782,551.615 319.5,520C 371.837,518.557 424.17,517.057 476.5,515.5C 483.589,516.356 490.589,517.689 497.5,519.5C 497.175,514.401 497.675,509.401 499,504.5C 516.939,454.848 534.772,405.181 552.5,355.5 Z M 299.5,361.5 C 301.766,361.141 303.599,361.808 305,363.5C 304.775,383.853 299.442,402.853 289,420.5C 270.921,454.249 248.587,484.915 222,512.5C 232.84,493.184 244.507,474.184 257,455.5C 266.164,440.004 274.664,424.171 282.5,408C 281.83,405.103 280.497,404.936 278.5,407.5C 253.566,443.285 230.233,478.952 208.5,514.5C 196.174,537.823 183.34,560.823 170,583.5C 167.581,597.772 162.248,610.772 154,622.5C 153.333,620.167 153.333,617.833 154,615.5C 163.026,604.106 168.359,591.106 170,576.5C 185.423,535.323 202.757,494.99 222,455.5C 236.157,431.684 251.49,408.684 268,386.5C 273.167,381.333 278.333,376.167 283.5,371C 288.763,367.54 294.096,364.373 299.5,361.5 Z M 848.5,454.5 C 841.622,451.563 834.622,448.896 827.5,446.5C 826.479,447.002 826.312,447.668 827,448.5C 835.213,452.356 843.379,456.356 851.5,460.5C 853.64,464.612 855.64,468.779 857.5,473C 860.38,473.684 863.213,473.517 866,472.5C 867.261,472.759 868.261,473.426 869,474.5C 873.002,483.675 876.502,493.008 879.5,502.5C 876.944,501.457 874.777,499.79 873,497.5C 866.657,484.156 857.157,473.656 844.5,466C 836.779,461.473 828.779,457.473 820.5,454C 816.424,450.774 814.924,446.607 816,441.5C 817.171,440.107 818.671,439.273 820.5,439C 823.226,438.818 825.893,438.318 828.5,437.5C 824.774,429.046 820.274,421.046 815,413.5C 812.186,407.834 813.352,403.334 818.5,400C 821.471,399.206 824.471,398.539 827.5,398C 823.029,392.59 821.029,386.59 821.5,380C 825.542,378.263 829.542,376.43 833.5,374.5C 836.583,376.417 838.75,379.084 840,382.5C 842.016,393.241 844.016,403.907 846,414.5C 843.763,416.647 841.763,418.98 840,421.5C 834.7,418.261 829.2,415.761 823.5,414C 827.814,417.824 832.481,421.157 837.5,424C 836.167,425.333 834.833,426.667 833.5,428C 839.41,436.32 844.41,445.153 848.5,454.5 Z M 890.5,459.5 C 894.542,449.749 899.375,440.416 905,431.5C 905.667,430.5 905.667,429.5 905,428.5C 901.962,431.203 899.295,434.203 897,437.5C 892.027,445.286 887.194,453.119 882.5,461C 879.294,461.296 876.128,461.796 873,462.5C 868.835,455.504 865.169,448.171 862,440.5C 861.454,437.101 861.787,433.768 863,430.5C 867.024,418.095 872.024,406.095 878,394.5C 878.749,393.365 878.583,392.365 877.5,391.5C 875.507,393.666 873.673,395.999 872,398.5C 866.752,408.582 862.085,418.915 858,429.5C 856.988,425.117 855.821,420.784 854.5,416.5C 858.833,411.833 863.167,407.167 867.5,402.5C 865.331,399.147 863.498,395.813 862,392.5C 867.657,386.511 873.657,380.844 880,375.5C 885.327,378.497 889.661,382.497 893,387.5C 893.95,395.966 893.283,404.299 891,412.5C 887.963,421.61 884.963,430.61 882,439.5C 888.167,432 895,425.167 902.5,419C 905.172,417.443 908.005,416.276 911,415.5C 912.987,416.154 914.32,417.487 915,419.5C 914.533,428.341 914.7,437.174 915.5,446C 915.685,453.132 912.852,458.632 907,462.5C 904.938,464.901 903.271,467.567 902,470.5C 900.629,466.927 899.129,463.427 897.5,460C 895.19,459.503 892.857,459.337 890.5,459.5 Z M 848.5,393.5 C 851.687,396.531 854.353,400.031 856.5,404C 855.333,405.167 854.167,406.333 853,407.5C 851.198,402.967 849.698,398.3 848.5,393.5 Z M 848.5,422.5 C 853.172,429.536 852.505,430.536 846.5,425.5C 847.193,424.482 847.859,423.482 848.5,422.5 Z M 849.5,433.5 C 850.794,434.29 851.961,435.29 853,436.5C 854.798,440.422 856.298,444.422 857.5,448.5C 854.073,443.984 851.407,438.984 849.5,433.5 Z M 216.5,437.5 C 216.539,438.756 216.039,439.756 215,440.5C 214.415,439.002 214.915,438.002 216.5,437.5 Z M 176.5,446.5 C 178.389,447.401 179.722,448.901 180.5,451C 176.528,461.112 172.694,471.278 169,481.5C 170.695,469.712 173.195,458.045 176.5,446.5 Z M 207.5,457.5 C 208.376,457.369 209.043,457.702 209.5,458.5C 203.104,470.622 197.271,482.955 192,495.5C 191.075,494.953 190.242,494.287 189.5,493.5C 193.629,482.613 197.463,471.613 201,460.5C 203.045,459.074 205.212,458.074 207.5,457.5 Z M 888.5,469.5 C 891.05,469.561 892.55,470.894 893,473.5C 895.601,481.136 898.101,488.802 900.5,496.5C 898.749,501.674 896.249,506.34 893,510.5C 889.495,501.317 885.995,492.15 882.5,483C 883.731,478.909 884.731,474.743 885.5,470.5C 886.791,470.737 887.791,470.404 888.5,469.5 Z M 876.5,471.5 C 877.5,471.5 878.5,471.5 879.5,471.5C 878.562,476.767 877.562,476.767 876.5,471.5 Z M 907.5,478.5 C 909.722,478.178 911.556,478.845 913,480.5C 913.951,486.111 913.117,491.444 910.5,496.5C 908.636,491.574 906.969,486.574 905.5,481.5C 905.942,480.261 906.609,479.261 907.5,478.5 Z M 183.5,518.5 C 184.376,518.369 185.043,518.702 185.5,519.5C 179.158,534.52 173.658,549.854 169,565.5C 168.449,560.455 168.782,555.455 170,550.5C 172.805,540.948 175.138,531.282 177,521.5C 178.991,520.008 181.158,519.008 183.5,518.5 Z M 884.5,520.5 C 890.744,535.16 897.744,549.66 905.5,564C 900.196,564.073 895.029,563.24 890,561.5C 888.206,548.942 886.039,536.442 883.5,524C 883.648,522.744 883.982,521.577 884.5,520.5 Z M 221.5,526.5 C 222.124,526.917 222.457,527.584 222.5,528.5C 220.181,539.746 218.514,551.079 217.5,562.5C 209.304,563.973 201.137,565.639 193,567.5C 192.5,567.167 192,566.833 191.5,566.5C 196.466,557.039 201.633,547.706 207,538.5C 211.124,533.533 215.958,529.533 221.5,526.5 Z M 150.5,547.5 C 149.694,564.823 147.36,582.156 143.5,599.5C 142.063,597.979 141.396,596.145 141.5,594C 143.789,578.348 146.789,562.848 150.5,547.5 Z M 290.5,569.5 C 343.291,588.374 395.958,607.541 448.5,627C 417,671.833 385.5,716.667 354,761.5C 335.576,741.008 320.91,718.008 310,692.5C 312.433,677.628 314.266,662.628 315.5,647.5C 315.909,641.806 314.743,636.473 312,631.5C 310.266,630.751 308.433,630.251 306.5,630C 309.91,626.101 311.076,621.601 310,616.5C 303.467,615.196 296.967,615.529 290.5,617.5C 289.253,601.503 289.253,585.503 290.5,569.5 Z M 813.5,572.5 C 814.222,572.918 814.722,573.584 815,574.5C 816.546,597.025 815.213,619.359 811,641.5C 808.365,642.473 806.365,644.14 805,646.5C 804.119,651.808 804.619,656.975 806.5,662C 795.028,700.128 776.194,733.962 750,763.5C 718.919,718.34 688.086,673.007 657.5,627.5C 709.589,609.139 761.589,590.805 813.5,572.5 Z M 207.5,706.5 C 203.639,716.586 200.472,726.92 198,737.5C 193.481,726.793 189.815,715.793 187,704.5C 187.333,698.5 187.667,692.5 188,686.5C 183.973,681.783 180.973,676.449 179,670.5C 175.031,656.956 171.531,643.29 168.5,629.5C 171.627,613.619 176.461,598.285 183,583.5C 183.333,595.167 183.667,606.833 184,618.5C 194.427,620.823 204.927,622.989 215.5,625C 216.624,625.839 217.291,627.006 217.5,628.5C 219.346,640.9 221.179,653.233 223,665.5C 212.922,670.788 203.088,676.454 193.5,682.5C 196.318,692.456 199.818,702.123 204,711.5C 205.03,709.654 206.196,707.987 207.5,706.5 Z M 923.5,593.5 C 931.306,601.826 937.806,611.159 943,621.5C 943.059,645.087 939.392,668.087 932,690.5C 926.882,687.225 921.716,687.059 916.5,690C 913.7,694.058 911.866,698.558 911,703.5C 909.542,702.253 908.042,702.253 906.5,703.5C 906.167,703.167 905.833,702.833 905.5,702.5C 907.833,695.167 910.167,687.833 912.5,680.5C 903.869,675.181 895.203,669.848 886.5,664.5C 888.808,657.106 889.141,649.606 887.5,642C 887.524,635.462 888.524,629.128 890.5,623C 901.202,620.939 911.869,618.772 922.5,616.5C 923.497,608.862 923.831,601.196 923.5,593.5 Z M 275.5,595.5 C 277.648,598.403 279.148,601.736 280,605.5C 281.182,619.619 283.182,633.619 286,647.5C 291.251,687.056 289.918,726.389 282,765.5C 278.888,780.383 273.555,794.383 266,807.5C 265.821,765.158 266.487,722.824 268,680.5C 268.934,656.428 270.767,632.428 273.5,608.5C 272.733,604.765 271.566,604.765 270,608.5C 266.929,626.069 264.596,643.736 263,661.5C 259.884,708.122 257.718,754.789 256.5,801.5C 254.142,799.976 252.309,797.976 251,795.5C 238.242,733.624 242.576,672.958 264,613.5C 266.596,606.624 270.43,600.624 275.5,595.5 Z M 1012.5,600.5 C 1021.06,598.693 1026.23,602.026 1028,610.5C 1028.67,614.5 1028.67,618.5 1028,622.5C 1026.59,627.559 1025.09,632.559 1023.5,637.5C 1029.43,637.106 1033.1,639.773 1034.5,645.5C 1032.12,657.115 1026.12,666.282 1016.5,673C 1021.91,674.36 1026.74,676.86 1031,680.5C 1032.41,688.128 1029.24,692.961 1021.5,695C 1019.47,696.205 1017.47,696.372 1015.5,695.5C 1011.32,688.443 1008.82,680.777 1008,672.5C 1006.09,668.34 1003.92,664.34 1001.5,660.5C 1005.39,657.389 1009.72,655.056 1014.5,653.5C 1015.52,652.998 1015.69,652.332 1015,651.5C 1008.51,653.827 1002.35,656.827 996.5,660.5C 996.167,659.833 995.833,659.167 995.5,658.5C 998.822,646.859 1003.99,636.192 1011,626.5C 1012.13,624.655 1012.63,622.655 1012.5,620.5C 1009.74,620.744 1007.57,622.077 1006,624.5C 1000.17,632.832 994.832,641.499 990,650.5C 988.615,649.449 987.615,648.116 987,646.5C 986,642.5 985,638.5 984,634.5C 983.465,632.729 982.631,632.396 981.5,633.5C 980.564,641.661 981.897,649.494 985.5,657C 981.845,662.321 977.512,666.987 972.5,671C 971.128,671.402 969.795,671.902 968.5,672.5C 967.119,672 966.453,671 966.5,669.5C 969.798,651.509 973.798,633.676 978.5,616C 984.983,607.922 993.316,604.588 1003.5,606C 1006.26,603.626 1009.26,601.792 1012.5,600.5 Z M 846.5,603.5 C 848.593,604.045 850.593,604.878 852.5,606C 855.066,608.566 857.566,611.066 860,613.5C 862.487,611.729 864.654,609.562 866.5,607C 869.801,607.948 872.301,610.115 874,613.5C 877.306,622.195 879.139,631.195 879.5,640.5C 877.46,653.372 874.793,666.039 871.5,678.5C 871.896,687.586 872.896,696.586 874.5,705.5C 879.412,705.776 883.412,703.942 886.5,700C 892.729,696.87 896.062,698.87 896.5,706C 895,710.5 893.5,715 892,719.5C 891.667,718.833 891.333,718.167 891,717.5C 890.167,718.5 889.333,719.5 888.5,720.5C 882.572,719.323 876.572,718.656 870.5,718.5C 870.192,713.565 868.525,709.232 865.5,705.5C 865.167,706 864.833,706.5 864.5,707C 865.087,710.386 865.754,713.72 866.5,717C 863.77,717.728 861.103,717.562 858.5,716.5C 856.079,720.34 853.912,724.34 852,728.5C 853.97,717.895 855.97,707.228 858,696.5C 859.843,693.978 861.01,691.145 861.5,688C 860.057,676.207 858.891,664.373 858,652.5C 856.13,645.008 853.963,637.675 851.5,630.5C 847.079,627.79 842.746,627.957 838.5,631C 835.705,632.793 833.205,634.96 831,637.5C 832.127,627.121 835.46,617.455 841,608.5C 842.73,606.598 844.563,604.931 846.5,603.5 Z M 300.5,617.5 C 301.643,617.908 302.643,618.575 303.5,619.5C 300.898,625.053 297.564,630.053 293.5,634.5C 291.929,630.2 291.596,625.867 292.5,621.5C 295.259,620.121 297.925,618.787 300.5,617.5 Z M 172.5,836.5 C 131.016,793.886 103.849,743.219 91,684.5C 89.2008,669.386 88.0341,654.219 87.5,639C 87.2397,631.758 88.9064,625.091 92.5,619C 94.9712,618.294 97.3046,618.627 99.5,620C 113.921,634.785 124.755,651.952 132,671.5C 136.333,682.167 140.667,692.833 145,703.5C 159.796,743.221 173.796,783.221 187,823.5C 191.491,833.151 196.491,842.485 202,851.5C 206.167,857 211,861.833 216.5,866C 222.758,870.035 229.092,870.368 235.5,867C 228.626,854.752 221.626,842.585 214.5,830.5C 210.518,829.702 206.518,829.035 202.5,828.5C 200.864,827.696 199.364,826.696 198,825.5C 196.641,820.225 196.308,814.891 197,809.5C 204.487,770.526 218.154,733.859 238,699.5C 237.289,708.45 236.623,717.45 236,726.5C 226.115,748.269 216.782,770.269 208,792.5C 205.723,798.332 204.056,804.332 203,810.5C 202.163,814.295 202.496,817.961 204,821.5C 206.755,822.068 209.255,821.235 211.5,819C 208.818,815.004 208.318,810.838 210,806.5C 212.254,810.007 214.254,813.673 216,817.5C 218.423,815.006 220.756,815.006 223,817.5C 222.291,820.187 221.625,822.854 221,825.5C 229.359,837.564 238.192,849.231 247.5,860.5C 250.872,855.917 254.205,855.75 257.5,860C 253.003,863.489 249.67,867.823 247.5,873C 255.554,890.788 266.554,906.455 280.5,920C 286.488,923.627 292.155,923.294 297.5,919C 301.767,919.052 305.267,920.885 308,924.5C 311,929.167 314,933.833 317,938.5C 316.937,933.858 316.604,929.191 316,924.5C 309.303,917.468 302.303,910.802 295,904.5C 290.922,896.009 286.588,887.676 282,879.5C 276.755,872.676 271.755,865.676 267,858.5C 252.519,833.689 237.685,809.189 222.5,785C 222.833,784.167 223.167,783.333 223.5,782.5C 244.858,806.692 264.525,832.192 282.5,859C 284.298,860.505 286.132,860.672 288,859.5C 289.208,855.374 290.708,851.374 292.5,847.5C 293.833,848.5 295.167,849.5 296.5,850.5C 293.69,862.023 292.19,873.69 292,885.5C 293.154,886.743 294.488,887.743 296,888.5C 300.73,899.227 307.063,908.894 315,917.5C 323.794,926.661 332.961,935.494 342.5,944C 359.276,955.11 375.776,966.61 392,978.5C 393.444,981.055 394.611,983.721 395.5,986.5C 399.072,987.681 402.738,988.348 406.5,988.5C 405.731,984.257 404.731,980.091 403.5,976C 405.614,974.482 407.947,974.149 410.5,975C 413.786,978.407 416.453,982.24 418.5,986.5C 426.326,992.247 434.326,997.747 442.5,1003C 435.629,1003.98 428.796,1005.15 422,1006.5C 393.598,991.053 366.098,974.22 339.5,956C 336.5,952.333 333.5,948.667 330.5,945C 328.801,944.042 326.967,943.542 325,943.5C 322.171,944.203 319.338,944.37 316.5,944C 314.672,942.172 312.839,940.339 311,938.5C 302.094,942.525 293.594,941.692 285.5,936C 277.295,927.464 269.462,918.631 262,909.5C 255.833,899.167 249.667,888.833 243.5,878.5C 241.401,877.035 239.234,875.701 237,874.5C 230.916,876.964 224.749,877.131 218.5,875C 209.982,871.317 202.816,865.817 197,858.5C 167.817,809.806 141.484,759.473 118,707.5C 114.061,695.016 109.728,682.682 105,670.5C 101.802,665.214 100.802,665.881 102,672.5C 106.867,693.433 113.533,713.767 122,733.5C 137.26,768.685 154.093,803.019 172.5,836.5 Z M 953.5,618.5 C 957.167,618.5 960.833,618.5 964.5,618.5C 960.471,644.814 954.971,670.814 948,696.5C 945.542,695.36 943.375,693.86 941.5,692C 947.718,667.861 951.718,643.361 953.5,618.5 Z M 304.5,636.5 C 305.79,637.058 306.623,638.058 307,639.5C 307.548,651.448 306.214,663.114 303,674.5C 299.993,667.698 298.826,660.698 299.5,653.5C 297.38,652.043 296.047,650.043 295.5,647.5C 297.801,643.214 300.801,639.547 304.5,636.5 Z M 835.5,764.5 C 825.045,758.89 820.545,750.223 822,738.5C 814.838,731.552 813.172,723.552 817,714.5C 818.333,713.833 819.667,713.167 821,712.5C 827.081,714.793 832.914,717.46 838.5,720.5C 839.996,714.118 839.829,707.784 838,701.5C 833.167,686.828 826,673.495 816.5,661.5C 817.665,657.506 818.832,653.506 820,649.5C 821.242,650.872 822.742,651.872 824.5,652.5C 828.735,647.471 833.902,643.804 840,641.5C 843.292,644.057 845.626,647.391 847,651.5C 851.583,665.908 852.916,680.575 851,695.5C 850.167,696.333 849.333,697.167 848.5,698C 850.833,699.333 851.833,701.333 851.5,704C 850.391,711.321 849.391,718.654 848.5,726C 850.519,731.446 849.519,736.28 845.5,740.5C 841.391,737.894 837.724,734.727 834.5,731C 833.552,730.517 832.552,730.351 831.5,730.5C 834.074,736.598 838.074,741.765 843.5,746C 840.417,751.502 837.084,756.835 833.5,762C 834.381,762.708 835.047,763.542 835.5,764.5 Z M 439.5,656.5 C 425.647,703.24 411.481,749.906 397,796.5C 395.469,800.404 394.802,804.404 395,808.5C 436.458,779.528 478.292,751.194 520.5,723.5C 491.903,759.273 463.07,794.94 434,830.5C 433.517,831.448 433.351,832.448 433.5,833.5C 503.223,864.36 574.223,867.527 646.5,843C 654.283,839.942 661.95,836.608 669.5,833C 639.371,795.227 609.371,757.394 579.5,719.5C 623.282,748.565 666.948,777.899 710.5,807.5C 710.833,806.833 711.167,806.167 711.5,805.5C 696.624,756.875 681.958,708.208 667.5,659.5C 694.644,699.101 721.811,738.767 749,778.5C 778.435,748.991 799.769,714.324 813,674.5C 817.667,682.5 822.333,690.5 827,698.5C 829.684,702.863 831.518,707.53 832.5,712.5C 825.928,708.846 819.261,708.679 812.5,712C 807.798,716.922 806.298,722.755 808,729.5C 808.942,732.993 810.275,736.326 812,739.5C 812.184,752.702 817.351,763.535 827.5,772C 834.426,777.715 841.26,783.548 848,789.5C 848.226,792.095 848.726,794.595 849.5,797C 844.659,803.336 839.659,809.503 834.5,815.5C 823.926,810.962 813.426,806.295 803,801.5C 791.633,814.534 779.3,826.534 766,837.5C 769.759,847.864 774.259,858.031 779.5,868C 769.596,875.536 759.43,882.702 749,889.5C 740.593,882.048 732.093,874.715 723.5,867.5C 709.219,876.474 694.219,884.141 678.5,890.5C 678.713,900.939 679.713,911.439 681.5,922C 681.355,922.772 681.022,923.439 680.5,924C 669.197,927.601 657.864,931.101 646.5,934.5C 640.278,926.413 634.778,917.747 630,908.5C 629.311,907.643 628.478,906.977 627.5,906.5C 610.947,910.148 594.28,913.148 577.5,915.5C 574.986,925.735 572.986,936.069 571.5,946.5C 558.816,946.832 546.149,946.499 533.5,945.5C 530.986,935.265 528.986,924.931 527.5,914.5C 510.471,913.079 493.638,910.412 477,906.5C 470.627,914.911 464.96,923.911 460,933.5C 459.275,934.059 458.442,934.392 457.5,934.5C 446.201,930.955 434.868,927.622 423.5,924.5C 424.427,912.827 425.427,901.16 426.5,889.5C 409.999,883.833 394.499,876.166 380,866.5C 371.593,873.952 363.093,881.285 354.5,888.5C 344.256,882.42 334.423,875.754 325,868.5C 329.086,858.276 333.586,848.109 338.5,838C 326.196,826.696 314.196,815.03 302.5,803C 301.5,802.333 300.5,802.333 299.5,803C 289.951,807.618 280.284,811.618 270.5,815C 282.205,796.892 289.371,777.059 292,755.5C 293.596,745.535 294.93,735.535 296,725.5C 300.644,719.936 303.978,713.603 306,706.5C 318.242,732.34 334.409,755.34 354.5,775.5C 383.246,736.094 411.58,696.427 439.5,656.5 Z M 243.5,657.5 C 244.097,657.735 244.43,658.235 244.5,659C 242.282,668.422 240.449,677.922 239,687.5C 219.154,719.19 204.821,753.19 196,789.5C 196.718,753.627 205.718,719.96 223,688.5C 229.347,677.795 236.18,667.462 243.5,657.5 Z M 909.5,875.5 C 922.633,864.536 933.799,851.869 943,837.5C 945.724,831.995 948.057,826.328 950,820.5C 956.369,813.729 963.869,808.562 972.5,805C 973.833,803.667 975.167,802.333 976.5,801C 974.833,800.333 973.167,800.333 971.5,801C 965.323,804.088 959.323,807.088 953.5,810C 960.324,796.195 965.157,781.695 968,766.5C 980.989,754.817 991.823,741.483 1000.5,726.5C 998.939,725.653 997.439,725.986 996,727.5C 989.421,737.95 981.421,747.284 972,755.5C 977.672,735.975 982.506,716.142 986.5,696C 986.815,692.34 985.982,691.84 984,694.5C 981.853,701.275 979.52,707.942 977,714.5C 974.755,709.003 971.755,704.003 968,699.5C 969.929,707.639 972.096,715.805 974.5,724C 972.012,736.464 968.512,748.63 964,760.5C 957.846,743.221 948.679,727.888 936.5,714.5C 935.386,715.723 935.219,717.056 936,718.5C 946.06,733.624 953.727,749.958 959,767.5C 957.189,784.137 952.189,799.804 944,814.5C 939.902,808.565 934.736,803.898 928.5,800.5C 927.833,800.833 927.167,801.167 926.5,801.5C 931.881,807.546 936.881,813.879 941.5,820.5C 933.522,838.14 921.855,852.807 906.5,864.5C 912.28,850.373 914.446,835.707 913,820.5C 915.626,817.769 918.793,815.936 922.5,815C 923.894,814.044 924.561,812.711 924.5,811C 921.866,804.265 919.533,797.432 917.5,790.5C 919.465,789.708 921.465,789.041 923.5,788.5C 932.613,791.542 936.113,788.542 934,779.5C 924.431,769.794 919.765,758.128 920,744.5C 924.15,740.588 928.983,739.421 934.5,741C 936.028,739.352 936.695,737.352 936.5,735C 936.363,732.102 935.863,729.269 935,726.5C 930.574,720.413 926.574,714.08 923,707.5C 920.126,696.505 923.959,693.339 934.5,698C 939.334,701.252 944.334,704.252 949.5,707C 955.383,708.922 959.549,707.089 962,701.5C 963.103,695.531 963.936,689.531 964.5,683.5C 971.913,686.179 978.413,684.845 984,679.5C 986.041,675.916 988.208,672.416 990.5,669C 992.367,668.289 993.867,668.789 995,670.5C 996.947,674.284 998.28,678.284 999,682.5C 999.333,688.5 999.667,694.5 1000,700.5C 1000.7,704.625 1002.54,708.125 1005.5,711C 1008.93,712.133 1012.1,713.633 1015,715.5C 1015.53,727.401 1013.19,738.735 1008,749.5C 1002,756.833 996,764.167 990,771.5C 988.08,774.339 986.413,777.339 985,780.5C 985.322,785.686 986.156,790.853 987.5,796C 987.204,800.889 985.704,805.389 983,809.5C 972.667,821.167 961.667,832.167 950,842.5C 951.97,851.063 949.137,857.563 941.5,862C 931.147,867.346 920.48,871.846 909.5,875.5 Z M 208.5,704.5 C 207.206,697.786 205.206,691.286 202.5,685C 210.333,680.5 218.167,676 226,671.5C 220.207,682.414 214.374,693.414 208.5,704.5 Z M 880.5,673.5 C 887.72,677.361 894.887,681.361 902,685.5C 901.854,689.959 900.854,694.292 899,698.5C 891.681,694.982 885.348,696.316 880,702.5C 879.667,702.167 879.333,701.833 879,701.5C 876.633,691.912 877.133,682.579 880.5,673.5 Z M 295.5,682.5 C 300.265,689.749 300.765,697.416 297,705.5C 296.113,697.855 295.613,690.189 295.5,682.5 Z M 551.5,701.5 C 552.496,701.414 553.329,701.748 554,702.5C 587.138,745.273 620.638,787.773 654.5,830C 585.894,857.485 517.394,857.318 449,829.5C 448.333,828.833 448.333,828.167 449,827.5C 483.001,785.336 517.167,743.336 551.5,701.5 Z M 908.5,705.5 C 910.173,706.343 911.34,707.676 912,709.5C 912.732,718.87 912.398,728.203 911,737.5C 899.631,747.201 889.298,757.868 880,769.5C 877.076,760.174 878.409,751.507 884,743.5C 886.143,737.572 887.977,731.572 889.5,725.5C 893.603,726.231 897.103,725.231 900,722.5C 900.844,718.789 901.844,715.123 903,711.5C 904.36,708.977 906.193,706.977 908.5,705.5 Z M 862.5,722.5 C 864.167,722.5 865.833,722.5 867.5,722.5C 869.329,735.796 870.496,749.129 871,762.5C 864.623,756.618 858.123,750.951 851.5,745.5C 855.451,737.933 859.117,730.266 862.5,722.5 Z M 872.5,723.5 C 877.196,723.671 881.863,724.171 886.5,725C 883.732,731.37 880.565,737.537 877,743.5C 875.495,736.815 873.995,730.148 872.5,723.5 Z M 866.5,785.5 C 866.657,784.127 866.49,782.793 866,781.5C 859.365,773.864 852.365,766.53 845,759.5C 845.277,756.597 846.444,753.93 848.5,751.5C 856.286,758.152 863.786,765.152 871,772.5C 871.707,774.081 872.54,775.581 873.5,777C 871.302,780.023 868.969,782.856 866.5,785.5 Z M 238.5,780.5 C 235.785,778.098 233.285,775.432 231,772.5C 230.219,771.271 229.719,769.938 229.5,768.5C 231.387,763.058 233.554,757.725 236,752.5C 236.505,761.871 237.338,771.204 238.5,780.5 Z M 909.5,788.5 C 909.246,793.961 909.912,799.295 911.5,804.5C 903.399,811.644 900.565,820.644 903,831.5C 903.251,833.433 903.751,835.266 904.5,837C 895.977,844.524 887.81,852.358 880,860.5C 876.554,866.7 875.721,873.2 877.5,880C 862.522,888.974 849.355,900.14 838,913.5C 830.527,923.607 822.694,933.44 814.5,943C 804.743,949.092 795.077,948.926 785.5,942.5C 783.901,947.26 782.568,952.093 781.5,957C 764.031,968.139 745.864,977.973 727,986.5C 726.932,980.449 727.598,974.449 729,968.5C 730.5,967 732,965.5 733.5,964C 749.937,956.558 764.437,946.391 777,933.5C 783.707,920.086 792.374,908.086 803,897.5C 811.79,884.113 814.79,869.447 812,853.5C 816.979,859.138 822.479,859.805 828.5,855.5C 838.846,836.799 850.679,819.133 864,802.5C 878.667,786.5 893.333,770.5 908,754.5C 908.667,758.5 908.667,762.5 908,766.5C 880.495,798.346 856.495,832.679 836,869.5C 831.061,879.045 826.394,888.711 822,898.5C 816.01,908.158 807.843,915.324 797.5,920C 794.02,922.297 792.02,925.464 791.5,929.5C 793.857,929.663 796.19,929.497 798.5,929C 803.956,924.216 809.956,920.216 816.5,917C 834.151,900.023 850.318,881.857 865,862.5C 864.669,855.518 864.669,848.518 865,841.5C 866.08,839.004 867.414,836.67 869,834.5C 869.477,839.553 870.644,844.386 872.5,849C 876.165,849.387 878.998,847.887 881,844.5C 890.801,825.897 900.301,807.23 909.5,788.5 Z M 298.5,810.5 C 299.552,810.351 300.552,810.517 301.5,811C 310.863,820.697 320.53,830.03 330.5,839C 325.74,849.107 321.074,859.274 316.5,869.5C 329.861,879.361 343.361,889.027 357,898.5C 365.058,890.606 373.558,883.273 382.5,876.5C 394.621,882.644 406.787,888.644 419,894.5C 418.538,904.33 417.705,914.163 416.5,924C 416.629,925.981 417.296,927.647 418.5,929C 433.141,933.936 447.808,938.769 462.5,943.5C 468.655,934.535 474.321,925.202 479.5,915.5C 480.5,915.167 481.5,914.833 482.5,914.5C 495.618,916.519 508.618,918.852 521.5,921.5C 523.774,932.04 526.107,942.54 528.5,953C 545.497,953.5 562.497,953.667 579.5,953.5C 581.5,942.5 583.5,931.5 585.5,920.5C 599.552,918.768 613.552,916.934 627.5,915C 633.041,924.583 638.707,934.083 644.5,943.5C 660.118,938.294 675.785,933.294 691.5,928.5C 690.094,917.179 688.761,905.846 687.5,894.5C 700.357,890.322 712.523,884.655 724,877.5C 732.405,883.232 740.239,889.732 747.5,897C 749.044,898.187 750.711,898.52 752.5,898C 765.553,889.145 778.22,879.812 790.5,870C 785.697,860.227 781.03,850.394 776.5,840.5C 786.956,831.878 796.623,822.378 805.5,812C 816.283,815.714 826.949,820.047 837.5,825C 834.877,828.412 832.377,831.912 830,835.5C 824.63,832.044 818.796,830.877 812.5,832C 807.085,836.227 803.085,841.394 800.5,847.5C 802.628,857.846 802.794,868.179 801,878.5C 795.223,889.287 787.556,898.621 778,906.5C 772.245,914.336 767.245,922.669 763,931.5C 757.554,937.215 751.554,942.215 745,946.5C 742.206,940.701 737.872,936.701 732,934.5C 721.806,937.344 711.972,941.177 702.5,946C 684.5,955 666.5,964 648.5,973C 637.951,981.773 629.284,992.106 622.5,1004C 614.833,1004.67 607.167,1004.67 599.5,1004C 593.355,998.099 587.022,992.432 580.5,987C 570.983,983.368 561.816,984.201 553,989.5C 546.916,988.358 540.749,988.191 534.5,989C 525.486,992.176 516.486,995.343 507.5,998.5C 505.885,997.846 504.218,997.346 502.5,997C 492.47,987.304 482.803,977.304 473.5,967C 448.163,956.5 422.496,946.833 396.5,938C 391.235,936.517 385.902,935.351 380.5,934.5C 372.896,936.439 367.896,941.106 365.5,948.5C 361.783,947.473 358.45,945.639 355.5,943C 340.595,930.097 327.095,915.931 315,900.5C 304.726,885.968 302.393,870.301 308,853.5C 309.652,848.154 308.152,843.987 303.5,841C 298.611,837.417 293.278,836.251 287.5,837.5C 286.208,839.667 285.375,842 285,844.5C 279.955,837.577 274.788,830.744 269.5,824C 279.257,819.451 288.924,814.951 298.5,810.5 Z M 233.5,821.5 C 239.116,828.69 244.282,836.357 249,844.5C 249.667,845.833 249.667,847.167 249,848.5C 243.913,840.659 238.58,832.992 233,825.5C 232.421,824.072 232.588,822.738 233.5,821.5 Z M 263.5,870.5 C 265.017,870.511 266.184,871.177 267,872.5C 276.472,883.939 284.306,896.439 290.5,910C 285.948,908.49 282.114,905.657 279,901.5C 273.047,893.212 266.714,885.212 260,877.5C 260.579,875.008 261.746,872.675 263.5,870.5 Z M 900.5,975.5 C 902.39,959.547 903.223,943.547 903,927.5C 901.502,922.34 899.336,917.507 896.5,913C 898.032,910.883 900.032,909.216 902.5,908C 906.722,906.362 911.055,905.195 915.5,904.5C 915.5,907.833 915.5,911.167 915.5,914.5C 911.803,913.992 908.136,913.326 904.5,912.5C 905.422,920.261 909.755,925.095 917.5,927C 935.812,928.147 954.145,928.814 972.5,929C 978.343,929.153 983.176,931.319 987,935.5C 987.029,961.415 994.196,985.081 1008.5,1006.5C 1005.28,1015.77 999.949,1023.6 992.5,1030C 947.833,1059.67 903.167,1089.33 858.5,1119C 779.472,1119.85 702.138,1108.85 626.5,1086C 632.1,1080.63 636.6,1074.46 640,1067.5C 640.769,1045.04 632.769,1026.38 616,1011.5C 615.517,1010.55 615.351,1009.55 615.5,1008.5C 632.594,1007.7 649.594,1008.87 666.5,1012C 708.143,1021.6 750.143,1029.26 792.5,1035C 805.135,1036.46 817.802,1036.79 830.5,1036C 840.42,1031.71 849.754,1026.37 858.5,1020C 889.064,994.048 921.73,971.048 956.5,951C 964.531,946.984 972.531,942.984 980.5,939C 983.319,934.753 981.986,932.42 976.5,932C 967.583,930.083 958.583,929.416 949.5,930C 946.833,932.333 946.833,934.667 949.5,937C 953.687,937.071 957.687,937.738 961.5,939C 940.145,949.668 919.812,961.835 900.5,975.5 Z M 210.5,905.5 C 215.667,907.24 219.333,910.573 221.5,915.5C 217.29,922.964 214.79,930.964 214,939.5C 214.208,950.516 214.041,961.516 213.5,972.5C 194.087,960.124 173.754,949.291 152.5,940C 156.114,939.055 159.781,938.388 163.5,938C 167.082,935.33 167.082,932.997 163.5,931C 153.679,929.885 144.012,930.552 134.5,933C 131.849,936.244 132.016,939.41 135,942.5C 153.896,951.697 172.396,961.53 190.5,972C 223.101,992.272 255.435,1012.94 287.5,1034C 305.879,1033.61 324.212,1032.27 342.5,1030C 381.494,1023.67 420.494,1017.33 459.5,1011C 486.997,1007.87 514.497,1005.37 542,1003.5C 551.861,1020.08 558.361,1037.91 561.5,1057C 561.265,1060.4 559.598,1062.73 556.5,1064C 507.507,1082.83 457.174,1096.83 405.5,1106C 366.144,1112.87 326.644,1118.7 287,1123.5C 230.775,1099.82 178.608,1069.66 130.5,1033C 122.667,1025.49 116.167,1016.99 111,1007.5C 110.333,1005.83 110.333,1004.17 111,1002.5C 121.7,986.571 129.2,969.238 133.5,950.5C 132.438,946.356 131.438,942.19 130.5,938C 130.933,933.446 133.266,930.446 137.5,929C 158.128,927.293 178.795,926.293 199.5,926C 203.561,919.378 207.228,912.545 210.5,905.5 Z M 382.5,939.5 C 385.607,939.351 388.607,939.851 391.5,941C 387.713,941.16 384.046,941.826 380.5,943C 378.288,945.921 376.455,949.088 375,952.5C 374.909,946.682 377.409,942.349 382.5,939.5 Z M 724.5,943.5 C 729.575,942.572 732.908,944.572 734.5,949.5C 730.788,953.024 726.455,955.524 721.5,957C 709.353,956.938 698.02,959.938 687.5,966C 682.189,970.716 678.689,976.55 677,983.5C 668.567,988.968 659.734,993.802 650.5,998C 645.16,998.186 639.826,997.852 634.5,997C 641.876,986.624 650.876,977.957 661.5,971C 682.229,960.934 703.229,951.768 724.5,943.5 Z M 404.5,947.5 C 425.536,956.347 446.869,964.514 468.5,972C 476.513,979.267 483.18,987.434 488.5,996.5C 479.507,997.555 470.507,998.555 461.5,999.5C 452.198,994.179 443.198,988.346 434.5,982C 424.61,970.375 414.61,958.875 404.5,947.5 Z M 710.5,967.5 C 713.272,967.22 715.772,967.887 718,969.5C 719.842,978.019 717.342,984.852 710.5,990C 705.245,993.546 699.745,996.712 694,999.5C 686.448,988.288 688.281,979.122 699.5,972C 703.157,970.178 706.824,968.678 710.5,967.5 Z M 156.5,974.5 C 164.479,977.139 166.312,982.139 162,989.5C 156.539,997.262 151.039,997.429 145.5,990C 148.659,984.362 152.326,979.196 156.5,974.5 Z M 951.5,989.5 C 956.105,991.471 960.438,993.971 964.5,997C 966.255,997.72 967.089,998.887 967,1000.5C 964.221,1003.3 961.054,1005.13 957.5,1006C 955.078,1000.66 953.078,995.156 951.5,989.5 Z M 682.5,992.5 C 685.634,993.714 687.634,996.047 688.5,999.5C 689.833,1000.17 691.167,1000.83 692.5,1001.5C 691.467,1002.45 690.3,1002.45 689,1001.5C 686.522,1002.24 684.022,1002.91 681.5,1003.5C 676.538,1002.45 671.538,1001.62 666.5,1001C 672.053,998.392 677.387,995.559 682.5,992.5 Z M 540.5,993.5 C 553.905,992.734 566.572,995.4 578.5,1001.5C 580.853,1000.65 583.187,1000.15 585.5,1000C 597.064,1011.33 607.564,1023.49 617,1036.5C 622.674,1045.87 624.341,1055.87 622,1066.5C 619.283,1070.88 615.616,1074.22 611,1076.5C 608.467,1074.09 606.967,1071.09 606.5,1067.5C 605.998,1066.48 605.332,1066.31 604.5,1067C 599.5,1073.33 594.5,1079.67 589.5,1086C 582.833,1090 576.167,1094 569.5,1098C 566.558,1099.12 563.558,1099.46 560.5,1099C 554.015,1096.26 547.681,1093.26 541.5,1090C 544.554,1087.79 547.887,1086.79 551.5,1087C 551.966,1088.3 551.966,1089.8 551.5,1091.5C 553.308,1091.51 554.975,1091.01 556.5,1090C 562.957,1082.84 569.791,1076.01 577,1069.5C 576.707,1043.61 569.707,1019.61 556,997.5C 554.933,996.809 553.766,996.309 552.5,996C 547.167,995.667 541.833,995.333 536.5,995C 538.058,994.79 539.391,994.29 540.5,993.5 Z M 364.5,996.5 C 372.832,1000.64 380.832,1005.47 388.5,1011C 378.708,1013.58 368.708,1015.41 358.5,1016.5C 360.302,1009.76 362.302,1003.1 364.5,996.5 Z M 753.5,1003.5 C 756.1,1008.87 759.1,1014.2 762.5,1019.5C 748.388,1018.38 734.388,1015.88 720.5,1012C 726.141,1010.06 731.808,1008.23 737.5,1006.5C 741.108,1007.59 744.775,1007.76 748.5,1007C 750.881,1006.78 752.547,1005.61 753.5,1003.5 Z M 231.5,1023.5 C 240.367,1026.95 241.867,1032.62 236,1040.5C 231.554,1045.48 226.721,1045.82 221.5,1041.5C 224.858,1035.45 228.191,1029.45 231.5,1023.5 Z M 517.5,1023.5 C 520.933,1028.85 524.267,1034.35 527.5,1040C 523.25,1041.7 518.917,1041.87 514.5,1040.5C 515.823,1034.89 516.823,1029.23 517.5,1023.5 Z M 358.5,1042.5 C 364.764,1042.76 368.097,1046.1 368.5,1052.5C 368.483,1059.18 365.15,1062.52 358.5,1062.5C 357.608,1056.15 356.608,1049.81 355.5,1043.5C 356.791,1043.74 357.791,1043.4 358.5,1042.5 Z M 864.5,1049.5 C 864.897,1048.47 865.563,1048.31 866.5,1049C 870.533,1053.37 874.866,1057.37 879.5,1061C 875.833,1062.83 872.167,1064.67 868.5,1066.5C 867.146,1060.71 865.813,1055.04 864.5,1049.5 Z M 314.5,1049.5 C 321.584,1048.96 325.251,1052.3 325.5,1059.5C 325.18,1065.65 322.013,1068.99 316,1069.5C 314.461,1064.1 313.294,1058.6 312.5,1053C 312.862,1051.57 313.528,1050.4 314.5,1049.5 Z M 739.5,1049.5 C 740.872,1055.9 742.205,1062.4 743.5,1069C 739.175,1068.81 734.842,1068.14 730.5,1067C 733.641,1061.22 736.641,1055.38 739.5,1049.5 Z M 359.5,1066.5 C 369.808,1064.97 375.142,1069.47 375.5,1080C 374.132,1087.93 369.965,1090.1 363,1086.5C 360.951,1079.99 359.784,1073.32 359.5,1066.5 Z M 316.5,1074.5 C 329.641,1071.47 335.475,1076.8 334,1090.5C 330.252,1094.85 325.919,1095.85 321,1093.5C 319.06,1087.14 317.56,1080.81 316.5,1074.5 Z M 465.5,1123.5 C 467.427,1120.23 469.761,1117.23 472.5,1114.5C 470.809,1112.74 468.809,1112.24 466.5,1113C 444.276,1131.95 419.61,1147.12 392.5,1158.5C 393.04,1159.75 393.707,1160.91 394.5,1162C 403.325,1161.5 410.492,1164.66 416,1171.5C 418.607,1176.01 417.441,1179.18 412.5,1181C 409.072,1181.7 405.738,1181.37 402.5,1180C 397.167,1177.33 391.833,1174.67 386.5,1172C 380.516,1166.67 373.849,1162.34 366.5,1159C 365.328,1157.13 365.495,1155.3 367,1153.5C 374.029,1157.44 381.529,1159.77 389.5,1160.5C 389.042,1156.83 388.042,1153.33 386.5,1150C 395.3,1144.7 403.967,1139.2 412.5,1133.5C 414.353,1131.31 414.687,1128.98 413.5,1126.5C 414.122,1123.63 414.789,1120.8 415.5,1118C 421.176,1118.74 426.842,1118.41 432.5,1117C 440.5,1114 448.5,1111 456.5,1108C 462.803,1105.58 469.137,1105.25 475.5,1107C 478.6,1108.67 479.1,1110.84 477,1113.5C 473.571,1117.44 469.737,1120.77 465.5,1123.5 Z M 645.5,1114.5 C 655.632,1112.94 665.632,1114.11 675.5,1118C 691.167,1129.67 706.833,1141.33 722.5,1153C 716.868,1154.21 711.534,1156.21 706.5,1159C 703.5,1159.67 700.5,1159.67 697.5,1159C 692.833,1153.67 687.833,1148.67 682.5,1144C 670.004,1134.33 657.67,1124.5 645.5,1114.5 Z M 462.5,1126.5 C 449.481,1138.85 435.481,1150.02 420.5,1160C 418.365,1160.63 416.365,1160.3 414.5,1159C 430.672,1148.31 446.672,1137.48 462.5,1126.5 Z M 722.5,1157.5 C 730.668,1160.07 738.835,1160.07 747,1157.5C 748.728,1157.45 750.228,1157.95 751.5,1159C 746.04,1161.45 740.373,1163.45 734.5,1165C 725.782,1173.02 715.616,1176.18 704,1174.5C 702.287,1173.05 701.12,1171.21 700.5,1169C 702.167,1167.33 703.833,1165.67 705.5,1164C 711.16,1161.51 716.826,1159.34 722.5,1157.5 Z"/>
  </g>
<g>
    <path style="opacity:1" fill="#f9faf9" d="M 4882.5,128.5 C 4893.5,128.5 4904.5,128.5 4915.5,128.5C 4915.5,487.5 4915.5,846.5 4915.5,1205.5C 4904.5,1205.5 4893.5,1205.5 4882.5,1205.5C 4882.5,846.5 4882.5,487.5 4882.5,128.5 Z"/>
  </g>
<g>
    <path style="opacity:1" fill="#f9faf9" d="M 5241.5,132.5 C 5285.07,132.17 5328.57,132.503 5372,133.5C 5405.15,262.774 5437.99,392.107 5470.5,521.5C 5448.49,521.833 5426.49,521.5 5404.5,520.5C 5397.18,493.239 5390.18,465.905 5383.5,438.5C 5332.5,438.5 5281.5,438.5 5230.5,438.5C 5223.66,466.209 5216.66,493.876 5209.5,521.5C 5187.49,521.833 5165.49,521.5 5143.5,520.5C 5176.8,391.317 5209.46,261.983 5241.5,132.5 Z M 5293.5,185.5 C 5302.83,185.5 5312.17,185.5 5321.5,185.5C 5337.5,250.835 5353.5,316.168 5369.5,381.5C 5327.83,381.5 5286.17,381.5 5244.5,381.5C 5260.21,315.989 5276.54,250.655 5293.5,185.5 Z"/>
  </g>
<g>
    <path style="opacity:1" fill="#f9faf9" d="M 1564.5,136.5 C 1706.17,136.5 1847.83,136.5 1989.5,136.5C 2071.83,493.835 2154.17,851.168 2236.5,1208.5C 2161.83,1208.83 2087.16,1208.5 2012.5,1207.5C 1997.85,1143.57 1983.52,1079.57 1969.5,1015.5C 1841.17,1015.5 1712.83,1015.5 1584.5,1015.5C 1570.68,1079.61 1556.34,1143.61 1541.5,1207.5C 1466.84,1208.5 1392.17,1208.83 1317.5,1208.5C 1399.83,851.168 1482.17,493.835 1564.5,136.5 Z M 1738.5,317.5 C 1764.17,317.5 1789.83,317.5 1815.5,317.5C 1852.5,486.835 1889.5,656.168 1926.5,825.5C 1826.83,825.5 1727.17,825.5 1627.5,825.5C 1664.5,656.167 1701.5,486.833 1738.5,317.5 Z"/>
  </g>
<g>
    <path style="opacity:1" fill="#f9faf9" d="M 3354.5,136.5 C 3429.17,136.5 3503.83,136.5 3578.5,136.5C 3578.5,493.833 3578.5,851.167 3578.5,1208.5C 3503.83,1208.5 3429.17,1208.5 3354.5,1208.5C 3354.5,851.167 3354.5,493.833 3354.5,136.5 Z"/>
  </g>
<g>
    <path style="opacity:1" fill="#f9faf9" d="M 3817.5,136.5 C 3948.83,136.333 4080.17,136.5 4211.5,137C 4275.42,137.214 4338.42,144.88 4400.5,160C 4441.44,170.077 4479.11,187.077 4513.5,211C 4555.43,244.615 4587.26,286.115 4609,335.5C 4630.31,386.405 4643.31,439.405 4648,494.5C 4655.96,583.038 4657.63,671.704 4653,760.5C 4650.61,812.661 4644.28,864.327 4634,915.5C 4620.18,977.784 4594.51,1034.45 4557,1085.5C 4517.6,1132.81 4468.1,1164.98 4408.5,1182C 4350.6,1198.03 4291.6,1206.7 4231.5,1208C 4093.5,1208.5 3955.5,1208.67 3817.5,1208.5C 3817.5,851.167 3817.5,493.833 3817.5,136.5 Z M 4041.5,326.5 C 4096.5,326.333 4151.5,326.5 4206.5,327C 4246.7,326.884 4285.7,333.551 4323.5,347C 4352.57,358.403 4374.4,377.903 4389,405.5C 4409.38,445.34 4420.21,487.674 4421.5,532.5C 4425.96,614.81 4426.12,697.143 4422,779.5C 4419.4,819.083 4412.07,857.749 4400,895.5C 4380.31,953.189 4341.14,990.356 4282.5,1007C 4260.54,1012.94 4238.21,1016.6 4215.5,1018C 4157.5,1018.5 4099.5,1018.67 4041.5,1018.5C 4041.5,787.833 4041.5,557.167 4041.5,326.5 Z"/>
  </g>
<g>
    <path style="opacity:1" fill="#f9faf9" d="M 5923.5,230.5 C 6009.71,227.715 6053.71,269.381 6055.5,355.5C 6054.83,372.227 6053.49,388.894 6051.5,405.5C 5991.5,405.5 5931.5,405.5 5871.5,405.5C 5871.12,421.43 5874.62,436.43 5882,450.5C 5887.74,459.122 5895.57,464.955 5905.5,468C 5922.09,471.946 5938.92,473.446 5956,472.5C 5985.3,472.61 6014.46,470.944 6043.5,467.5C 6045.38,483.117 6045.88,498.784 6045,514.5C 5995.06,526.044 5944.56,529.544 5893.5,525C 5850.97,517.805 5824.47,493.305 5814,451.5C 5806.96,420.88 5804.63,389.88 5807,358.5C 5808.05,328.032 5816.71,300.032 5833,274.5C 5846.71,256.22 5864.54,243.72 5886.5,237C 5898.79,233.749 5911.12,231.582 5923.5,230.5 Z M 5926.5,282.5 C 5942.1,281.52 5956.77,284.687 5970.5,292C 5983.31,303.119 5990.14,317.286 5991,334.5C 5991.98,342.138 5992.48,349.804 5992.5,357.5C 5951.83,357.5 5911.17,357.5 5870.5,357.5C 5869.99,337.866 5874.49,319.533 5884,302.5C 5888.58,296.926 5894.08,292.426 5900.5,289C 5909,285.607 5917.66,283.44 5926.5,282.5 Z"/>
  </g>
<g>
    <path style="opacity:1" fill="#f9faf9" d="M 6252.5,230.5 C 6276.05,229.219 6298.39,233.719 6319.5,244C 6333.45,253.626 6343.29,266.459 6349,282.5C 6355.47,301.975 6359.13,321.975 6360,342.5C 6360.5,402.166 6360.67,461.832 6360.5,521.5C 6339.17,521.5 6317.83,521.5 6296.5,521.5C 6296.67,463.499 6296.5,405.499 6296,347.5C 6295.55,330.694 6291.22,315.027 6283,300.5C 6272.31,290.213 6259.48,285.546 6244.5,286.5C 6222.26,287.113 6201.1,292.113 6181,301.5C 6180.5,374.833 6180.33,448.166 6180.5,521.5C 6158.83,521.5 6137.17,521.5 6115.5,521.5C 6115.5,426.833 6115.5,332.167 6115.5,237.5C 6136.83,237.5 6158.17,237.5 6179.5,237.5C 6179.17,242.875 6179.51,248.208 6180.5,253.5C 6203.1,240.965 6227.1,233.298 6252.5,230.5 Z"/>
  </g>
<g>
    <path style="opacity:1" fill="#f9faf9" d="M 6941.5,230.5 C 6964.02,229.512 6986.02,232.345 7007.5,239C 7029.73,247.564 7043.89,263.397 7050,286.5C 7051.87,294.072 7053.21,301.738 7054,309.5C 7054.33,359.167 7054.67,408.833 7055,458.5C 7057.79,472.176 7066.29,479.176 7080.5,479.5C 7079.66,495.489 7078.99,511.489 7078.5,527.5C 7050.19,528.882 7024.03,522.216 7000,507.5C 6965.43,522.881 6929.26,529.381 6891.5,527C 6846.26,521.09 6822.43,495.257 6820,449.5C 6813.62,396.939 6836.12,365.439 6887.5,355C 6921.05,350.621 6954.72,347.287 6988.5,345C 6989.8,340.082 6990.47,334.915 6990.5,329.5C 6991.35,319.447 6989.85,309.78 6986,300.5C 6979.71,291.102 6970.88,285.935 6959.5,285C 6919.07,284.78 6878.74,286.614 6838.5,290.5C 6838.04,275.489 6837.38,260.489 6836.5,245.5C 6871.2,237.4 6906.2,232.4 6941.5,230.5 Z M 6985.5,389.5 C 6987.17,389.5 6988.83,389.5 6990.5,389.5C 6990.5,414.5 6990.5,439.5 6990.5,464.5C 6965.48,472.67 6939.81,476.504 6913.5,476C 6897.16,473.989 6887.66,464.823 6885,448.5C 6882.87,435.434 6884.87,423.101 6891,411.5C 6898.65,402.258 6908.48,397.092 6920.5,396C 6942.34,394.091 6964.01,391.925 6985.5,389.5 Z"/>
  </g>
<g>
    <path style="opacity:1" fill="#f9faf9" d="M 7393.5,230.5 C 7418.31,229.227 7441.64,234.393 7463.5,246C 7483.93,259.981 7497.1,279.148 7503,303.5C 7512.26,345.514 7513.92,387.848 7508,430.5C 7499.04,492.455 7463.21,524.622 7400.5,527C 7375.62,528.564 7350.96,527.064 7326.5,522.5C 7325.5,562.828 7325.17,603.161 7325.5,643.5C 7304.17,643.5 7282.83,643.5 7261.5,643.5C 7261.5,508.167 7261.5,372.833 7261.5,237.5C 7282.83,237.5 7304.17,237.5 7325.5,237.5C 7325.17,242.875 7325.51,248.208 7326.5,253.5C 7347.24,240.811 7369.57,233.144 7393.5,230.5 Z M 7381.5,286.5 C 7415.2,286.026 7435.37,302.359 7442,335.5C 7445.37,357.035 7446.37,378.701 7445,400.5C 7444.42,420.522 7438.75,438.855 7428,455.5C 7418.91,464.296 7408.07,469.796 7395.5,472C 7372.07,474.211 7348.73,473.377 7325.5,469.5C 7325.17,413.829 7325.5,358.163 7326.5,302.5C 7344.01,293.877 7362.34,288.544 7381.5,286.5 Z"/>
  </g>
<g>
    <path style="opacity:1" fill="#f9faf9" d="M 7677.5,230.5 C 7763.69,227.695 7807.69,269.361 7809.5,355.5C 7808.59,372.206 7807.25,388.873 7805.5,405.5C 7745.5,405.5 7685.5,405.5 7625.5,405.5C 7624.86,421.486 7628.36,436.486 7636,450.5C 7641.74,459.122 7649.57,464.955 7659.5,468C 7676.09,471.946 7692.92,473.446 7710,472.5C 7739.29,472.564 7768.46,470.897 7797.5,467.5C 7799.21,483.129 7799.71,498.796 7799,514.5C 7754.39,524.311 7709.22,528.478 7663.5,527C 7612.07,524.22 7579.91,498.054 7567,448.5C 7560.83,418.134 7558.83,387.467 7561,356.5C 7562.47,328.608 7570.14,302.608 7584,278.5C 7598.51,257.009 7618.34,242.842 7643.5,236C 7654.85,233.337 7666.18,231.504 7677.5,230.5 Z M 7680.5,282.5 C 7696.66,281.363 7711.66,284.863 7725.5,293C 7735.07,300.972 7740.91,311.139 7743,323.5C 7745.1,334.738 7746.26,346.071 7746.5,357.5C 7705.83,357.5 7665.17,357.5 7624.5,357.5C 7623.96,338.334 7628.13,320.334 7637,303.5C 7641.74,297.376 7647.57,292.542 7654.5,289C 7663,285.607 7671.66,283.44 7680.5,282.5 Z"/>
  </g>
<g>
    <path style="opacity:1" fill="#f9faf9" d="M 8030.5,230.5 C 8031.83,240.645 8032.5,251.145 8032.5,262C 8032.17,272.5 8031.83,283 8031.5,293.5C 7998.15,299.785 7965.98,309.785 7935,323.5C 7934.5,389.499 7934.33,455.499 7934.5,521.5C 7912.83,521.5 7891.17,521.5 7869.5,521.5C 7869.5,426.833 7869.5,332.167 7869.5,237.5C 7890.83,237.5 7912.17,237.5 7933.5,237.5C 7933.33,248.505 7933.5,259.505 7934,270.5C 7963.74,251.211 7995.91,237.877 8030.5,230.5 Z"/>
  </g>
<g>
    <path style="opacity:1" fill="#f9faf9" d="M 5604.5,231.5 C 5629.14,230.331 5653.47,232.497 5677.5,238C 5708.84,238.033 5740.17,237.533 5771.5,236.5C 5771.5,253.5 5771.5,270.5 5771.5,287.5C 5755.83,286.294 5740.17,285.461 5724.5,285C 5737.94,304.883 5742.44,326.716 5738,350.5C 5736.17,383.72 5720,406.554 5689.5,419C 5667.41,426.085 5644.74,429.585 5621.5,429.5C 5612.49,428.618 5603.49,428.118 5594.5,428C 5590.32,436.706 5587.65,445.873 5586.5,455.5C 5587.12,464.288 5591.79,469.454 5600.5,471C 5609.42,472.709 5618.42,473.709 5627.5,474C 5653.63,473.831 5679.63,475.498 5705.5,479C 5720.76,481.194 5734.76,486.527 5747.5,495C 5761.01,507.857 5768.17,523.691 5769,542.5C 5775.64,596.089 5753.14,630.256 5701.5,645C 5657.71,654.911 5613.71,655.911 5569.5,648C 5553.64,645.271 5538.97,639.604 5525.5,631C 5510.05,618.27 5501.89,601.77 5501,581.5C 5498.91,565.142 5501.91,549.809 5510,535.5C 5519.71,522.953 5530.88,511.953 5543.5,502.5C 5531.26,492.339 5525.26,479.173 5525.5,463C 5525.64,457.287 5526.8,451.787 5529,446.5C 5533.7,435.599 5539.53,425.433 5546.5,416C 5519.61,398.734 5505.77,373.901 5505,341.5C 5499.99,283.293 5525.82,247.793 5582.5,235C 5589.96,233.7 5597.29,232.533 5604.5,231.5 Z M 5612.5,280.5 C 5662.33,277.496 5682.5,300.496 5673,349.5C 5668.09,366.412 5656.92,376.245 5639.5,379C 5580.1,386.359 5558.27,361.192 5574,303.5C 5582.95,289.279 5595.78,281.613 5612.5,280.5 Z M 5586.5,525.5 C 5613.48,527.215 5640.48,528.715 5667.5,530C 5697.43,529.598 5709.6,544.098 5704,573.5C 5696.29,588.789 5683.79,597.289 5666.5,599C 5644.17,602.278 5621.84,602.278 5599.5,599C 5565.85,592.774 5556.02,573.941 5570,542.5C 5575.03,536.303 5580.53,530.636 5586.5,525.5 Z"/>
  </g>
<g>
    <path style="opacity:1" fill="#f9faf9" d="M 6419.5,237.5 C 6491.83,237.5 6564.17,237.5 6636.5,237.5C 6636.67,256.17 6636.5,274.836 6636,293.5C 6589.45,350.377 6543.29,407.544 6497.5,465C 6543.83,465.5 6590.17,465.667 6636.5,465.5C 6636.5,484.167 6636.5,502.833 6636.5,521.5C 6564.17,521.5 6491.83,521.5 6419.5,521.5C 6419.33,502.497 6419.5,483.497 6420,464.5C 6466.29,407.425 6512.45,350.258 6558.5,293C 6512.17,292.5 6465.83,292.333 6419.5,292.5C 6419.5,274.167 6419.5,255.833 6419.5,237.5 Z"/>
  </g>
<g>
    <path style="opacity:1" fill="#f9faf9" d="M 6697.5,237.5 C 6719.17,237.5 6740.83,237.5 6762.5,237.5C 6762.5,332.167 6762.5,426.833 6762.5,521.5C 6740.83,521.5 6719.17,521.5 6697.5,521.5C 6697.5,426.833 6697.5,332.167 6697.5,237.5 Z"/>
  </g>
<g>
    <path style="opacity:1" fill="#f9faf9" d="M 5174.5,799.5 C 5195.83,799.5 5217.17,799.5 5238.5,799.5C 5238.5,933.5 5238.5,1067.5 5238.5,1201.5C 5217.17,1201.5 5195.83,1201.5 5174.5,1201.5C 5174.5,1067.5 5174.5,933.5 5174.5,799.5 Z"/>
  </g>
<g>
    <path style="opacity:1" fill="#f9faf9" d="M 6119.5,799.5 C 6141.17,799.5 6162.83,799.5 6184.5,799.5C 6184.5,933.5 6184.5,1067.5 6184.5,1201.5C 6162.83,1201.5 6141.17,1201.5 6119.5,1201.5C 6119.5,1067.5 6119.5,933.5 6119.5,799.5 Z"/>
  </g>
<g>
    <path style="opacity:1" fill="#f9faf9" d="M 8293.5,799.5 C 8314.83,799.5 8336.17,799.5 8357.5,799.5C 8357.5,933.5 8357.5,1067.5 8357.5,1201.5C 8336.17,1201.5 8314.83,1201.5 8293.5,1201.5C 8293.5,1067.5 8293.5,933.5 8293.5,799.5 Z"/>
  </g>
<g>
    <path style="opacity:1" fill="#f9faf9" d="M 6263.5,804.5 C 6285.17,804.5 6306.83,804.5 6328.5,804.5C 6328.5,826.5 6328.5,848.5 6328.5,870.5C 6306.83,870.5 6285.17,870.5 6263.5,870.5C 6263.5,848.5 6263.5,826.5 6263.5,804.5 Z"/>
  </g>
<g>
    <path style="opacity:1" fill="#f9faf9" d="M 7200.5,804.5 C 7221.83,804.5 7243.17,804.5 7264.5,804.5C 7264.5,826.5 7264.5,848.5 7264.5,870.5C 7243.17,870.5 7221.83,870.5 7200.5,870.5C 7200.5,848.5 7200.5,826.5 7200.5,804.5 Z"/>
  </g>
<g>
    <path style="opacity:1" fill="#f9faf9" d="M 7646.5,804.5 C 7667.83,804.5 7689.17,804.5 7710.5,804.5C 7710.5,826.5 7710.5,848.5 7710.5,870.5C 7689.17,870.5 7667.83,870.5 7646.5,870.5C 7646.5,848.5 7646.5,826.5 7646.5,804.5 Z"/>
  </g>
<g>
    <path style="opacity:1" fill="#f9faf9" d="M 5332.5,808.5 C 5355.18,808.167 5377.84,808.5 5400.5,809.5C 5385.43,853.721 5370.76,898.055 5356.5,942.5C 5339.82,942.833 5323.15,942.499 5306.5,941.5C 5315.68,897.265 5324.35,852.932 5332.5,808.5 Z"/>
  </g>
<g>
    <path style="opacity:1" fill="#f9faf9" d="M 5463.5,812.5 C 5485.5,812.5 5507.5,812.5 5529.5,812.5C 5529.5,942.167 5529.5,1071.83 5529.5,1201.5C 5507.5,1201.5 5485.5,1201.5 5463.5,1201.5C 5463.5,1071.83 5463.5,942.167 5463.5,812.5 Z"/>
  </g>
<g>
    <path style="opacity:1" fill="#f9faf9" d="M 6834.5,812.5 C 6890.85,812.06 6947.18,812.56 7003.5,814C 7033.86,815.561 7061.19,825.228 7085.5,843C 7103.42,860.332 7115.59,881.166 7122,905.5C 7136.61,968.661 7137.28,1031.99 7124,1095.5C 7118.87,1116.76 7110.2,1136.43 7098,1154.5C 7077.8,1178.69 7051.97,1193.19 7020.5,1198C 7012.88,1199.37 7005.22,1200.37 6997.5,1201C 6943.17,1201.5 6888.83,1201.67 6834.5,1201.5C 6834.5,1071.83 6834.5,942.167 6834.5,812.5 Z M 6900.5,868.5 C 6932.19,868.079 6963.86,868.579 6995.5,870C 7030.03,874.193 7050.86,893.36 7058,927.5C 7068.18,979.568 7067.85,1031.57 7057,1083.5C 7049.02,1118.15 7027.52,1138.32 6992.5,1144C 6961.86,1145.43 6931.19,1145.93 6900.5,1145.5C 6900.5,1053.17 6900.5,960.833 6900.5,868.5 Z"/>
  </g>
<g>
    <path style="opacity:1" fill="#f9faf9" d="M 5626.5,835.5 C 5647.83,835.5 5669.17,835.5 5690.5,835.5C 5690.5,862.833 5690.5,890.167 5690.5,917.5C 5717.17,917.5 5743.83,917.5 5770.5,917.5C 5770.5,935.5 5770.5,953.5 5770.5,971.5C 5743.83,971.5 5717.17,971.5 5690.5,971.5C 5690.33,1020.5 5690.5,1069.5 5691,1118.5C 5691.38,1126.79 5693.05,1134.79 5696,1142.5C 5701.35,1148.73 5708.18,1151.9 5716.5,1152C 5732,1151.96 5747.5,1151.46 5763,1150.5C 5765.63,1150.58 5767.96,1151.25 5770,1152.5C 5770.83,1166 5771.67,1179.5 5772.5,1193C 5772.47,1195.75 5772.14,1198.42 5771.5,1201C 5751.84,1204.9 5732.01,1207.4 5712,1208.5C 5695.3,1208.54 5679.14,1205.71 5663.5,1200C 5650.61,1194.11 5641.44,1184.61 5636,1171.5C 5630.69,1156.28 5627.69,1140.62 5627,1124.5C 5626.5,1073.5 5626.33,1022.5 5626.5,971.5C 5614.17,971.5 5601.83,971.5 5589.5,971.5C 5589.5,953.5 5589.5,935.5 5589.5,917.5C 5601.83,917.5 5614.17,917.5 5626.5,917.5C 5626.5,890.167 5626.5,862.833 5626.5,835.5 Z"/>
  </g>
<g>
    <path style="opacity:1" fill="#f9faf9" d="M 7799.5,835.5 C 7820.83,835.5 7842.17,835.5 7863.5,835.5C 7863.5,862.833 7863.5,890.167 7863.5,917.5C 7890.5,917.5 7917.5,917.5 7944.5,917.5C 7944.5,935.5 7944.5,953.5 7944.5,971.5C 7917.5,971.5 7890.5,971.5 7863.5,971.5C 7863.33,1017.5 7863.5,1063.5 7864,1109.5C 7864.08,1120.43 7865.75,1131.1 7869,1141.5C 7874.05,1148.27 7880.88,1151.77 7889.5,1152C 7907.5,1151.83 7925.5,1151.33 7943.5,1150.5C 7944.29,1166.01 7945.29,1181.51 7946.5,1197C 7946.44,1198.44 7946.11,1199.77 7945.5,1201C 7918.78,1207.13 7891.78,1209.13 7864.5,1207C 7846.46,1205.72 7830.96,1198.89 7818,1186.5C 7807.39,1169.43 7801.73,1150.76 7801,1130.5C 7799.6,1077.51 7799.1,1024.51 7799.5,971.5C 7787.17,971.5 7774.83,971.5 7762.5,971.5C 7762.5,953.5 7762.5,935.5 7762.5,917.5C 7774.83,917.5 7787.17,917.5 7799.5,917.5C 7799.5,890.167 7799.5,862.833 7799.5,835.5 Z"/>
  </g>
<g>
    <path style="opacity:1" fill="#f9faf9" d="M 5912.5,911.5 C 5926.84,911.333 5941.17,911.5 5955.5,912C 6004.85,914.69 6032.02,940.523 6037,989.5C 6037.33,1039.17 6037.67,1088.83 6038,1138.5C 6038.57,1147.16 6042.74,1153.33 6050.5,1157C 6054.42,1158.47 6058.42,1159.64 6062.5,1160.5C 6062.83,1161.83 6063.17,1163.17 6063.5,1164.5C 6062.61,1179.16 6061.94,1193.82 6061.5,1208.5C 6040.82,1208.75 6020.82,1205.25 6001.5,1198C 5995.01,1195.26 5989.01,1191.76 5983.5,1187.5C 5945.55,1204.94 5905.89,1211.1 5864.5,1206C 5827.91,1198.37 5807.74,1175.87 5804,1138.5C 5801.54,1120.84 5802.37,1103.34 5806.5,1086C 5812.1,1066.06 5824.44,1052.06 5843.5,1044C 5859.55,1037.49 5876.21,1033.49 5893.5,1032C 5920.15,1029.61 5946.82,1027.45 5973.5,1025.5C 5973.67,1015.16 5973.5,1004.83 5973,994.5C 5971.47,981.926 5964.97,973.093 5953.5,968C 5946.62,966.178 5939.62,965.011 5932.5,964.5C 5895.47,965.798 5858.47,967.798 5821.5,970.5C 5821.09,955.487 5820.43,940.487 5819.5,925.5C 5850.32,918.764 5881.32,914.098 5912.5,911.5 Z M 5962.5,1070.5 C 5966.17,1070.5 5969.83,1070.5 5973.5,1070.5C 5973.83,1095.18 5973.5,1119.84 5972.5,1144.5C 5946.92,1153.51 5920.59,1157.34 5893.5,1156C 5880.57,1153.63 5872.4,1146.13 5869,1133.5C 5865.97,1119.68 5867.31,1106.34 5873,1093.5C 5878.57,1085.61 5886.07,1080.44 5895.5,1078C 5917.96,1075.34 5940.29,1072.84 5962.5,1070.5 Z"/>
  </g>
<g>
    <path style="opacity:1" fill="#f9faf9" d="M 6495.5,911.5 C 6509.5,911.333 6523.5,911.5 6537.5,912C 6589.24,914.745 6616.74,941.912 6620,993.5C 6620.33,1042.5 6620.67,1091.5 6621,1140.5C 6622.16,1148.32 6626.32,1153.82 6633.5,1157C 6637.31,1158.38 6641.14,1159.55 6645,1160.5C 6645.27,1176.5 6645.1,1192.5 6644.5,1208.5C 6615.95,1209.45 6589.62,1202.45 6565.5,1187.5C 6529.91,1204.04 6492.58,1210.54 6453.5,1207C 6414.67,1201.5 6392.5,1179.33 6387,1140.5C 6383.76,1119.07 6385.43,1098.07 6392,1077.5C 6399.62,1061.21 6411.79,1049.71 6428.5,1043C 6443.93,1036.91 6459.93,1033.25 6476.5,1032C 6503.15,1029.61 6529.82,1027.45 6556.5,1025.5C 6556.67,1015.83 6556.5,1006.16 6556,996.5C 6554.75,979.158 6545.59,968.992 6528.5,966C 6524.15,965.632 6519.82,965.132 6515.5,964.5C 6478.47,965.796 6441.47,967.796 6404.5,970.5C 6403.65,955.509 6402.98,940.509 6402.5,925.5C 6433.33,918.764 6464.33,914.097 6495.5,911.5 Z M 6555.5,1069.5 C 6556.83,1094.34 6556.83,1119.34 6555.5,1144.5C 6528.25,1154.32 6500.25,1157.82 6471.5,1155C 6459.87,1150.94 6453.04,1142.78 6451,1130.5C 6448.25,1116.76 6450.25,1103.76 6457,1091.5C 6464.01,1083.41 6472.85,1078.58 6483.5,1077C 6507.66,1074.64 6531.66,1072.14 6555.5,1069.5 Z"/>
  </g>
<g>
    <path style="opacity:1" fill="#f9faf9" d="M 7438.5,911.5 C 7462.97,911.413 7487.14,914.08 7511,919.5C 7539.85,918.508 7568.68,917.508 7597.5,916.5C 7597.5,933.5 7597.5,950.5 7597.5,967.5C 7581.84,966.542 7566.17,966.042 7550.5,966C 7560.58,979.756 7565.58,995.256 7565.5,1012.5C 7565.88,1035.11 7560.38,1056.11 7549,1075.5C 7541.21,1085.62 7531.37,1093.12 7519.5,1098C 7487.74,1108.74 7455.24,1111.91 7422,1107.5C 7416.54,1116.31 7413.37,1125.98 7412.5,1136.5C 7413.99,1145.49 7419.32,1150.65 7428.5,1152C 7452.77,1154.32 7477.1,1155.65 7501.5,1156C 7520.3,1156.85 7538.63,1160.19 7556.5,1166C 7574.19,1172.36 7585.69,1184.52 7591,1202.5C 7608.59,1272.21 7582.42,1314.37 7512.5,1329C 7476.55,1334.6 7440.55,1334.94 7404.5,1330C 7386.37,1327.55 7369.37,1321.89 7353.5,1313C 7336.9,1299.96 7328.06,1282.8 7327,1261.5C 7324.32,1238.54 7330.98,1218.88 7347,1202.5C 7354.38,1195.62 7361.88,1188.95 7369.5,1182.5C 7357.31,1172.46 7351.31,1159.46 7351.5,1143.5C 7352,1136.16 7353.83,1129.16 7357,1122.5C 7361.46,1113.74 7366.29,1105.24 7371.5,1097C 7345.33,1078.5 7331.83,1053 7331,1020.5C 7327.38,959.127 7355.88,923.627 7416.5,914C 7423.99,913.209 7431.32,912.376 7438.5,911.5 Z M 7446.5,960.5 C 7489.18,961.37 7507.02,983.036 7500,1025.5C 7497.06,1043.78 7486.56,1054.94 7468.5,1059C 7456.88,1060.53 7445.21,1060.86 7433.5,1060C 7412.78,1057.94 7400.28,1046.77 7396,1026.5C 7392.3,1009.06 7394.96,992.727 7404,977.5C 7410.53,969.981 7418.7,965.148 7428.5,963C 7434.65,962.162 7440.65,961.329 7446.5,960.5 Z M 7411.5,1206.5 C 7436.83,1207.57 7462.17,1208.74 7487.5,1210C 7497.71,1210.46 7507.71,1212.12 7517.5,1215C 7524.23,1218.06 7528.39,1223.23 7530,1230.5C 7535.33,1253.85 7526.66,1269.18 7504,1276.5C 7473.14,1284.4 7442.3,1284.24 7411.5,1276C 7391.88,1267.12 7385.38,1252.28 7392,1231.5C 7392.72,1229.05 7393.72,1226.72 7395,1224.5C 7399.71,1217.74 7405.21,1211.74 7411.5,1206.5 Z"/>
  </g>
<g>
    <path style="opacity:1" fill="#f9faf9" d="M 8086.5,911.5 C 8100.5,911.333 8114.5,911.5 8128.5,912C 8181.67,915.169 8209.17,943.336 8211,996.5C 8211.33,1044.5 8211.67,1092.5 8212,1140.5C 8213.17,1148.36 8217.33,1153.86 8224.5,1157C 8228.31,1158.38 8232.14,1159.55 8236,1160.5C 8236.11,1176.5 8235.95,1192.5 8235.5,1208.5C 8206.88,1209.72 8180.55,1202.72 8156.5,1187.5C 8118.92,1205.04 8079.59,1211.21 8038.5,1206C 8008.22,1200.56 7988.89,1183.06 7980.5,1153.5C 7976.73,1136.7 7975.57,1119.7 7977,1102.5C 7979.07,1073.81 7993.23,1053.98 8019.5,1043C 8034.93,1036.91 8050.93,1033.25 8067.5,1032C 8094.15,1029.61 8120.82,1027.45 8147.5,1025.5C 8148.06,1012.72 8147.22,1000.06 8145,987.5C 8140.78,975.279 8132.28,968.113 8119.5,966C 8115.15,965.632 8110.82,965.132 8106.5,964.5C 8069.47,965.796 8032.47,967.796 7995.5,970.5C 7994.48,955.518 7993.82,940.518 7993.5,925.5C 8024.33,918.764 8055.33,914.097 8086.5,911.5 Z M 8146.5,1069.5 C 8147.83,1094.34 8147.83,1119.34 8146.5,1144.5C 8118.2,1154.95 8089.2,1158.12 8059.5,1154C 8049.71,1149.6 8043.88,1142.1 8042,1131.5C 8039.21,1118.7 8040.55,1106.36 8046,1094.5C 8052.61,1084.77 8061.78,1078.94 8073.5,1077C 8098,1074.7 8122.34,1072.2 8146.5,1069.5 Z"/>
  </g>
<g>
    <path style="opacity:1" fill="#f9faf9" d="M 8532.5,911.5 C 8558.51,909.519 8583.85,912.686 8608.5,921C 8632.91,931.08 8650.41,948.247 8661,972.5C 8668.95,992.905 8672.78,1014.07 8672.5,1036C 8671.86,1052.9 8670.52,1069.73 8668.5,1086.5C 8608.5,1086.5 8548.5,1086.5 8488.5,1086.5C 8488.05,1102.13 8491.55,1116.8 8499,1130.5C 8508.71,1143.78 8521.88,1150.94 8538.5,1152C 8579.57,1153.81 8620.57,1152.64 8661.5,1148.5C 8662.32,1164.15 8662.65,1179.82 8662.5,1195.5C 8624.19,1202.96 8585.52,1207.29 8546.5,1208.5C 8525.18,1208.76 8504.51,1205.26 8484.5,1198C 8456.03,1184.52 8438.2,1162.35 8431,1131.5C 8424.08,1101.54 8421.75,1071.21 8424,1040.5C 8424.98,1008.91 8433.98,979.907 8451,953.5C 8472.12,927.844 8499.28,913.844 8532.5,911.5 Z M 8537.5,963.5 C 8553.41,961.912 8568.74,964.079 8583.5,970C 8595.68,977.524 8603.18,988.357 8606,1002.5C 8608.35,1014.05 8609.52,1025.71 8609.5,1037.5C 8568.83,1037.5 8528.17,1037.5 8487.5,1037.5C 8487.71,1024.6 8489.54,1011.93 8493,999.5C 8500.27,978.118 8515.11,966.118 8537.5,963.5 Z"/>
  </g>
<g>
    <path style="opacity:1" fill="#f9faf9" d="M 6263.5,917.5 C 6285.17,917.5 6306.83,917.5 6328.5,917.5C 6328.5,1012.17 6328.5,1106.83 6328.5,1201.5C 6306.83,1201.5 6285.17,1201.5 6263.5,1201.5C 6263.5,1106.83 6263.5,1012.17 6263.5,917.5 Z"/>
  </g>
<g>
    <path style="opacity:1" fill="#f9faf9" d="M 7200.5,917.5 C 7221.83,917.5 7243.17,917.5 7264.5,917.5C 7264.5,1012.17 7264.5,1106.83 7264.5,1201.5C 7243.17,1201.5 7221.83,1201.5 7200.5,1201.5C 7200.5,1106.83 7200.5,1012.17 7200.5,917.5 Z"/>
  </g>
<g>
    <path style="opacity:1" fill="#f9faf9" d="M 7646.5,917.5 C 7667.83,917.5 7689.17,917.5 7710.5,917.5C 7710.5,1012.17 7710.5,1106.83 7710.5,1201.5C 7689.17,1201.5 7667.83,1201.5 7646.5,1201.5C 7646.5,1106.83 7646.5,1012.17 7646.5,917.5 Z"/>
  </g>
<g>
    <path style="opacity:1" fill="#f9faf9" d="M 144.5,960.5 C 154.035,964.867 162.535,970.867 170,978.5C 174.298,986.943 172.465,993.776 164.5,999C 160.54,1000.66 156.54,1000.83 152.5,999.5C 150.953,1010.96 151.286,1022.29 153.5,1033.5C 149.564,1031.53 145.564,1029.53 141.5,1027.5C 142.824,1016.97 142.824,1006.47 141.5,996C 140.004,995.493 138.837,995.993 138,997.5C 135.083,1001.67 132.416,1006 130,1010.5C 129.109,1013.85 130.275,1016.19 133.5,1017.5C 133.167,1018.5 132.5,1019.17 131.5,1019.5C 125.205,1015.86 119.205,1011.86 113.5,1007.5C 116.099,1006.97 118.765,1006.8 121.5,1007C 123.333,1005.17 125.167,1003.33 127,1001.5C 134.054,989.883 141.221,978.383 148.5,967C 145.756,965.676 144.423,963.509 144.5,960.5 Z M 156.5,974.5 C 152.326,979.196 148.659,984.362 145.5,990C 151.039,997.429 156.539,997.262 162,989.5C 166.312,982.139 164.479,977.139 156.5,974.5 Z"/>
  </g>
<g>
    <path style="opacity:1" fill="#f9faf9" d="M 945.5,974.5 C 962.062,985.033 978.562,995.7 995,1006.5C 997.007,1005.33 999.173,1004.66 1001.5,1004.5C 1001.76,1005.98 1001.43,1007.31 1000.5,1008.5C 995.167,1012.17 989.833,1015.83 984.5,1019.5C 983.5,1019.17 982.833,1018.5 982.5,1017.5C 983.929,1015.67 984.429,1013.67 984,1011.5C 980.088,1008.46 975.921,1005.79 971.5,1003.5C 966.891,1006.11 962.558,1009.11 958.5,1012.5C 959.861,1017.28 961.528,1021.94 963.5,1026.5C 965.843,1027.73 967.677,1027.06 969,1024.5C 969.956,1025.58 970.789,1026.75 971.5,1028C 966.919,1030.55 962.753,1033.72 959,1037.5C 957,1035.5 957,1033.5 959,1031.5C 959.667,1029.17 959.667,1026.83 959,1024.5C 954.554,1008.55 949.721,992.718 944.5,977C 944.743,976.098 945.077,975.265 945.5,974.5 Z M 951.5,989.5 C 953.078,995.156 955.078,1000.66 957.5,1006C 961.054,1005.13 964.221,1003.3 967,1000.5C 967.089,998.887 966.255,997.72 964.5,997C 960.438,993.971 956.105,991.471 951.5,989.5 Z"/>
  </g>
<g>
    <path style="opacity:1" fill="#f9faf9" d="M 183.5,989.5 C 186.425,989.46 189.091,990.293 191.5,992C 199.365,997.364 207.365,1002.53 215.5,1007.5C 212.833,1011.17 210.167,1014.83 207.5,1018.5C 206.5,1018.17 205.833,1017.5 205.5,1016.5C 208.838,1011.03 207.838,1006.53 202.5,1003C 200.167,1001.83 197.833,1000.67 195.5,999.5C 191.108,1005.23 187.108,1011.23 183.5,1017.5C 185.891,1020.24 188.891,1021.07 192.5,1020C 194.451,1017.43 196.784,1016.27 199.5,1016.5C 195.833,1022.5 192.167,1028.5 188.5,1034.5C 186.893,1035.7 185.893,1035.2 185.5,1033C 188.951,1027.54 187.785,1023.38 182,1020.5C 179,1025.17 176,1029.83 173,1034.5C 170.05,1040.36 171.55,1044.52 177.5,1047C 183.001,1050.43 188.001,1049.76 192.5,1045C 193.5,1044.33 194.5,1044.33 195.5,1045C 193.027,1049.13 190.194,1052.97 187,1056.5C 175.765,1049.46 164.598,1042.3 153.5,1035C 155.145,1032.08 157.145,1031.91 159.5,1034.5C 161.258,1033.87 162.758,1032.87 164,1031.5C 172.853,1020.15 180.686,1008.15 187.5,995.5C 186.142,993.497 184.809,991.497 183.5,989.5 Z"/>
  </g>
<g>
    <path style="opacity:1" fill="#f9faf9" d="M 923.5,991.5 C 924.627,992.122 925.627,992.955 926.5,994C 923.455,996.448 922.955,999.281 925,1002.5C 934.54,1015.09 943.707,1027.92 952.5,1041C 952.387,1042.28 951.72,1043.11 950.5,1043.5C 933.656,1037.37 916.656,1031.71 899.5,1026.5C 898.479,1027 898.312,1027.67 899,1028.5C 905.5,1037 912,1045.5 918.5,1054C 921.618,1057.04 924.951,1057.2 928.5,1054.5C 929.725,1056.84 929.059,1058.68 926.5,1060C 922.504,1061.66 918.837,1063.83 915.5,1066.5C 912.973,1064.8 913.14,1063.13 916,1061.5C 916.667,1059.83 916.667,1058.17 916,1056.5C 908.235,1045.29 900.235,1034.29 892,1023.5C 889.069,1021.92 886.736,1022.59 885,1025.5C 884.044,1024.42 883.211,1023.25 882.5,1022C 885.882,1019.05 889.548,1016.55 893.5,1014.5C 909.712,1020.41 926.046,1025.57 942.5,1030C 935.5,1021 928.5,1012 921.5,1003C 917.775,1002.21 914.109,1001.55 910.5,1001C 912.888,999.139 915.554,997.806 918.5,997C 919.692,994.645 921.359,992.812 923.5,991.5 Z"/>
  </g>
<g>
    <path style="opacity:1" fill="#f9faf9" d="M 516.5,1009.5 C 518.144,1009.29 519.644,1009.62 521,1010.5C 529,1025.17 537,1039.83 545,1054.5C 546.995,1056.75 549.495,1057.75 552.5,1057.5C 552.5,1058.5 552.5,1059.5 552.5,1060.5C 545.754,1060.98 539.087,1061.98 532.5,1063.5C 532.351,1062.45 532.517,1061.45 533,1060.5C 534.757,1059.88 535.924,1058.71 536.5,1057C 535.262,1051.33 532.428,1046.83 528,1043.5C 523.211,1044.55 518.378,1045.21 513.5,1045.5C 512.479,1050.47 511.979,1055.47 512,1060.5C 513.224,1063.47 515.224,1064.14 518,1062.5C 518.49,1063.79 518.657,1065.13 518.5,1066.5C 513.07,1066.54 507.737,1067.2 502.5,1068.5C 504.373,1065.43 506.539,1062.43 509,1059.5C 511.393,1042.81 513.893,1026.14 516.5,1009.5 Z M 517.5,1023.5 C 516.823,1029.23 515.823,1034.89 514.5,1040.5C 518.917,1041.87 523.25,1041.7 527.5,1040C 524.267,1034.35 520.933,1028.85 517.5,1023.5 Z"/>
  </g>
<g>
    <path style="opacity:1" fill="#f9faf9" d="M 220.5,1011.5 C 228.266,1014.88 235.599,1019.05 242.5,1024C 249.968,1030.97 250.468,1038.47 244,1046.5C 239.483,1050.24 234.316,1051.41 228.5,1050C 224.94,1048.04 221.273,1046.71 217.5,1046C 211.754,1051.32 208.588,1057.82 208,1065.5C 212.218,1066.9 212.885,1068.9 210,1071.5C 205.578,1068.04 200.744,1065.2 195.5,1063C 192.945,1061.74 192.278,1059.91 193.5,1057.5C 194.748,1058.04 195.915,1058.71 197,1059.5C 199.333,1057.17 201.667,1054.83 204,1052.5C 210.707,1040.92 217.541,1029.42 224.5,1018C 223.07,1016.11 221.403,1014.45 219.5,1013C 220.056,1012.62 220.389,1012.12 220.5,1011.5 Z M 231.5,1023.5 C 228.191,1029.45 224.858,1035.45 221.5,1041.5C 226.721,1045.82 231.554,1045.48 236,1040.5C 241.867,1032.62 240.367,1026.95 231.5,1023.5 Z"/>
  </g>
<g>
    <path style="opacity:1" fill="#f9faf9" d="M 487.5,1016.5 C 488.5,1016.5 489.5,1016.5 490.5,1016.5C 490.948,1021.19 491.615,1025.86 492.5,1030.5C 492.167,1031.5 491.833,1032.5 491.5,1033.5C 489.115,1029.25 486.115,1025.42 482.5,1022C 470.873,1017.74 464.04,1021.91 462,1034.5C 460.04,1048.28 463.873,1060.12 473.5,1070C 479.818,1072.69 485.318,1071.52 490,1066.5C 492.424,1061.81 493.757,1056.81 494,1051.5C 494.414,1051.04 494.914,1050.71 495.5,1050.5C 497.319,1056.73 498.152,1063.06 498,1069.5C 497.311,1068.64 496.478,1067.98 495.5,1067.5C 482.325,1077.46 469.825,1076.8 458,1065.5C 451.05,1053.01 450.716,1040.34 457,1027.5C 465.478,1018.5 475.644,1015.83 487.5,1019.5C 487.5,1018.5 487.5,1017.5 487.5,1016.5 Z"/>
  </g>
<g>
    <path style="opacity:1" fill="#f9faf9" d="M 648.5,1021.5 C 655.996,1023.73 663.662,1025.23 671.5,1026C 669.013,1027.79 666.346,1029.29 663.5,1030.5C 662.018,1034.74 660.852,1039.07 660,1043.5C 658.99,1053.58 657.49,1063.58 655.5,1073.5C 655.925,1076.35 657.591,1078.01 660.5,1078.5C 661.386,1079.32 661.719,1080.32 661.5,1081.5C 654.592,1079.86 647.592,1078.69 640.5,1078C 639.663,1076.99 639.33,1075.82 639.5,1074.5C 643.923,1074.26 646.756,1071.92 648,1067.5C 649.559,1058.48 651.226,1049.48 653,1040.5C 653.667,1036.17 653.667,1031.83 653,1027.5C 651.89,1025.96 650.39,1025.3 648.5,1025.5C 648.5,1024.17 648.5,1022.83 648.5,1021.5 Z"/>
  </g>
<g>
    <path style="opacity:1" fill="#f9faf9" d="M 441.5,1023.5 C 443.288,1023.21 444.955,1023.55 446.5,1024.5C 445.135,1025.94 443.635,1027.27 442,1028.5C 443.167,1041.84 444.834,1055.17 447,1068.5C 448.049,1073.05 450.882,1075.05 455.5,1074.5C 455.5,1075.83 455.5,1077.17 455.5,1078.5C 448.13,1079.06 440.797,1079.06 433.5,1078.5C 434.991,1077.76 436.491,1077.09 438,1076.5C 439.434,1072.59 439.767,1068.59 439,1064.5C 436.895,1053.14 434.729,1041.81 432.5,1030.5C 430.227,1029.35 427.894,1028.35 425.5,1027.5C 425.709,1026.91 426.043,1026.41 426.5,1026C 431.661,1025.27 436.661,1024.43 441.5,1023.5 Z"/>
  </g>
<g>
    <path style="opacity:1" fill="#f9faf9" d="M 676.5,1024.5 C 689.873,1026.34 703.207,1028.51 716.5,1031C 718.941,1031.04 720.941,1031.87 722.5,1033.5C 721.863,1038.2 721.03,1042.86 720,1047.5C 719.286,1036.63 713.619,1032.63 703,1035.5C 700.671,1048.98 698.504,1062.48 696.5,1076C 696.58,1077.89 696.913,1079.73 697.5,1081.5C 699.5,1082.83 701.5,1084.17 703.5,1085.5C 702.333,1085.83 701.167,1086.17 700,1086.5C 693.377,1084.26 686.544,1083.09 679.5,1083C 679.043,1082.59 678.709,1082.09 678.5,1081.5C 681.161,1080.5 683.828,1079.5 686.5,1078.5C 687.192,1077.97 687.692,1077.31 688,1076.5C 690.409,1061.56 692.242,1046.56 693.5,1031.5C 689.524,1030.67 685.524,1030.5 681.5,1031C 679.374,1033.43 678.041,1036.27 677.5,1039.5C 675.709,1039.04 674.709,1037.87 674.5,1036C 675.362,1032.19 676.029,1028.36 676.5,1024.5 Z"/>
  </g>
<g>
    <path style="opacity:1" fill="#f9faf9" d="M 252.5,1029.5 C 254.308,1029.49 255.975,1029.99 257.5,1031C 262,1034.08 266.667,1036.92 271.5,1039.5C 269.219,1040.18 266.886,1040.35 264.5,1040C 258.925,1052.96 255.758,1066.46 255,1080.5C 264.267,1073.24 272.934,1065.24 281,1056.5C 282.366,1054.63 283.533,1052.63 284.5,1050.5C 283.855,1049.35 283.022,1048.35 282,1047.5C 281.251,1046.36 281.417,1045.36 282.5,1044.5C 286.539,1047.52 290.872,1050.02 295.5,1052C 296.731,1053.18 296.731,1054.35 295.5,1055.5C 292.273,1054.22 289.273,1054.72 286.5,1057C 273.949,1069.39 260.949,1081.22 247.5,1092.5C 245.833,1092.17 244.833,1091.17 244.5,1089.5C 247.667,1074.17 250.833,1058.83 254,1043.5C 255.193,1038.85 254.36,1034.68 251.5,1031C 252.056,1030.62 252.389,1030.12 252.5,1029.5 Z"/>
  </g>
<g>
    <path style="opacity:1" fill="#f9faf9" d="M 399.5,1031.5 C 401.359,1031.46 402.692,1032.29 403.5,1034C 400.066,1034.04 397.733,1035.54 396.5,1038.5C 398.096,1052.27 400.263,1065.94 403,1079.5C 404.509,1081.88 406.675,1082.88 409.5,1082.5C 413.702,1082.04 417.702,1080.88 421.5,1079C 423.358,1075.41 424.524,1071.58 425,1067.5C 425.414,1067.04 425.914,1066.71 426.5,1066.5C 428.465,1071.65 429.799,1076.99 430.5,1082.5C 416.786,1084.17 403.12,1086.17 389.5,1088.5C 389.281,1087.32 389.614,1086.32 390.5,1085.5C 392.741,1084.97 394.241,1083.63 395,1081.5C 395.425,1077.13 395.092,1072.8 394,1068.5C 391.356,1058.26 389.189,1047.93 387.5,1037.5C 385.629,1036.23 383.796,1036.23 382,1037.5C 381.308,1036.97 380.808,1036.31 380.5,1035.5C 386.866,1033.65 393.2,1032.32 399.5,1031.5 Z"/>
  </g>
<g>
    <path style="opacity:1" fill="#f9faf9" d="M 741.5,1034.5 C 743.229,1035.12 744.729,1036.12 746,1037.5C 748.95,1054.58 752.283,1071.58 756,1088.5C 758.131,1091.1 759.965,1093.77 761.5,1096.5C 754.508,1095.17 747.508,1093.84 740.5,1092.5C 741.712,1090.08 743.712,1089.08 746.5,1089.5C 746.687,1083.79 746.354,1078.12 745.5,1072.5C 739.783,1071.78 734.116,1070.78 728.5,1069.5C 725.45,1074.43 722.784,1079.6 720.5,1085C 721.729,1086.53 723.229,1087.7 725,1088.5C 725.749,1089.64 725.583,1090.64 724.5,1091.5C 719.2,1090.23 713.867,1089.06 708.5,1088C 712.065,1086.47 715.231,1084.31 718,1081.5C 726.372,1066.09 734.205,1050.42 741.5,1034.5 Z M 739.5,1049.5 C 736.641,1055.38 733.641,1061.22 730.5,1067C 734.842,1068.14 739.175,1068.81 743.5,1069C 742.205,1062.4 740.872,1055.9 739.5,1049.5 Z"/>
  </g>
<g>
    <path style="opacity:1" fill="#f9faf9" d="M 858.5,1034.5 C 860.199,1034.34 861.866,1034.51 863.5,1035C 875.833,1046 888.167,1057 900.5,1068C 904.348,1069.81 908.348,1071.15 912.5,1072C 906.664,1075.75 900.664,1079.25 894.5,1082.5C 893.28,1082.11 892.613,1081.28 892.5,1080C 893.535,1078.73 894.702,1077.56 896,1076.5C 896.667,1075.83 896.667,1075.17 896,1074.5C 892.204,1070.2 887.704,1067.37 882.5,1066C 878.833,1067.83 875.167,1069.67 871.5,1071.5C 870.351,1076.94 870.851,1082.28 873,1087.5C 874.881,1088.35 876.714,1088.02 878.5,1086.5C 879.5,1086.83 880.167,1087.5 880.5,1088.5C 876.215,1091.56 871.715,1094.22 867,1096.5C 866.167,1095.67 865.333,1094.83 864.5,1094C 866.414,1092.59 867.747,1090.75 868.5,1088.5C 865.041,1070.54 861.707,1052.54 858.5,1034.5 Z M 864.5,1049.5 C 865.813,1055.04 867.146,1060.71 868.5,1066.5C 872.167,1064.67 875.833,1062.83 879.5,1061C 874.866,1057.37 870.533,1053.37 866.5,1049C 865.563,1048.31 864.897,1048.47 864.5,1049.5 Z"/>
  </g>
<g>
    <path style="opacity:1" fill="#f9faf9" d="M 358.5,1038.5 C 373.437,1037.91 378.604,1044.58 374,1058.5C 372.442,1060.36 370.609,1061.86 368.5,1063C 376.427,1063.25 381.927,1067.08 385,1074.5C 385.882,1082.57 382.716,1088.4 375.5,1092C 366.096,1093.58 356.762,1095.41 347.5,1097.5C 347.5,1096.5 347.5,1095.5 347.5,1094.5C 350.532,1094.82 352.199,1093.49 352.5,1090.5C 350.754,1078.2 349.254,1065.86 348,1053.5C 347.366,1047.7 344.2,1044.37 338.5,1043.5C 338.709,1042.91 339.043,1042.41 339.5,1042C 346,1041.01 352.333,1039.84 358.5,1038.5 Z M 358.5,1042.5 C 357.791,1043.4 356.791,1043.74 355.5,1043.5C 356.608,1049.81 357.608,1056.15 358.5,1062.5C 365.15,1062.52 368.483,1059.18 368.5,1052.5C 368.097,1046.1 364.764,1042.76 358.5,1042.5 Z M 359.5,1066.5 C 359.784,1073.32 360.951,1079.99 363,1086.5C 369.965,1090.1 374.132,1087.93 375.5,1080C 375.142,1069.47 369.808,1064.97 359.5,1066.5 Z"/>
  </g>
<g>
    <path style="opacity:1" fill="#f9faf9" d="M 775.5,1042.5 C 782.766,1044.15 790.1,1045.48 797.5,1046.5C 797.167,1047.17 796.833,1047.83 796.5,1048.5C 793.701,1049 791.201,1050 789,1051.5C 785.147,1066.28 783.147,1081.28 783,1096.5C 788.243,1100.23 794.076,1101.39 800.5,1100C 803.837,1098.17 805.837,1095.34 806.5,1091.5C 807.689,1090.57 809.022,1090.24 810.5,1090.5C 809.614,1096.05 808.114,1101.38 806,1106.5C 805.5,1106 805,1105.5 804.5,1105C 791.487,1102.83 778.487,1100.66 765.5,1098.5C 765.5,1097.5 765.5,1096.5 765.5,1095.5C 768.272,1095.78 770.772,1095.11 773,1093.5C 777.297,1078.45 779.631,1063.12 780,1047.5C 778.4,1046.13 776.567,1045.13 774.5,1044.5C 774.863,1043.82 775.196,1043.15 775.5,1042.5 Z"/>
  </g>
<g>
    <path style="opacity:1" fill="#f9faf9" d="M 314.5,1044.5 C 331.1,1043.39 336.934,1050.72 332,1066.5C 331.097,1067.7 329.931,1068.53 328.5,1069C 340.801,1070.41 345.634,1077.24 343,1089.5C 340.833,1093 338,1095.83 334.5,1098C 324.28,1100.24 313.947,1101.74 303.5,1102.5C 303.5,1101.5 303.5,1100.5 303.5,1099.5C 305.582,1099.53 307.416,1098.86 309,1097.5C 308.033,1082.03 305.866,1066.69 302.5,1051.5C 300.584,1050.75 298.584,1050.75 296.5,1051.5C 296.5,1050.17 296.5,1048.83 296.5,1047.5C 302.82,1047.6 308.82,1046.6 314.5,1044.5 Z M 314.5,1049.5 C 313.528,1050.4 312.862,1051.57 312.5,1053C 313.294,1058.6 314.461,1064.1 316,1069.5C 322.013,1068.99 325.18,1065.65 325.5,1059.5C 325.251,1052.3 321.584,1048.96 314.5,1049.5 Z M 316.5,1074.5 C 317.56,1080.81 319.06,1087.14 321,1093.5C 325.919,1095.85 330.252,1094.85 334,1090.5C 335.475,1076.8 329.641,1071.47 316.5,1074.5 Z"/>
  </g>
<g>
    <path style="opacity:1" fill="#f9faf9" d="M 839.5,1046.5 C 841.167,1046.5 842.833,1046.5 844.5,1046.5C 844.5,1047.83 844.5,1049.17 844.5,1050.5C 838.677,1049.99 836.344,1052.66 837.5,1058.5C 838.918,1071.51 840.418,1084.51 842,1097.5C 842.374,1098.42 842.874,1099.25 843.5,1100C 845.619,1100.1 847.286,1100.93 848.5,1102.5C 841.513,1104 834.513,1104.33 827.5,1103.5C 831.151,1102.35 833.151,1099.85 833.5,1096C 832.295,1083.18 831.128,1070.35 830,1057.5C 829.727,1052.73 827.227,1050.73 822.5,1051.5C 822.5,1050.17 822.5,1048.83 822.5,1047.5C 828.358,1047.82 834.025,1047.49 839.5,1046.5 Z"/>
  </g>
</svg>