<?xml version="1.0" encoding="utf-8"?>
<svg xmlns="http://www.w3.org/2000/svg" width="24" height="24" viewBox="0 0 24 24" fill="none">
<g clip-path="url(#clip0_6374_16461)">
<path fill-rule="evenodd" clip-rule="evenodd" d="M18.6039 4.28571V7.54647H21.4081V10.2429H18.5836V15.0713C18.5836 15.5521 18.6039 15.8656 18.6242 16.0746C18.6446 16.2628 18.7258 16.43 18.8681 16.5763C19.0103 16.7226 19.2339 16.7853 19.5387 16.7853L21.2862 16.7435L21.4284 19.2518C20.4124 19.4817 19.6199 19.6071 19.0916 19.6071C17.7098 19.6071 16.7751 19.2936 16.2874 18.6456C15.7794 18.0186 15.5356 16.848 15.5356 15.134V4.28571H18.6039ZM12.3366 7.73724V19.2704H9.17971V7.73724H12.3366ZM4.50751 7.02168C5.06687 7.02168 5.54017 7.21006 5.9059 7.58684C6.27163 7.96362 6.44374 8.42413 6.44374 8.9893C6.44374 9.55447 6.27163 9.99404 5.9059 10.3708C5.56168 10.7057 5.10989 10.8941 4.52903 10.8941C3.96967 10.8941 3.49637 10.7057 3.13064 10.329C2.76491 9.95218 2.57129 9.49167 2.57129 8.94743C2.57129 8.4032 2.76491 7.94269 3.10913 7.56591C3.47486 7.18913 3.94816 7.02168 4.50751 7.02168Z" fill="white"/>
</g>
<defs>
<clipPath id="clip0_6374_16461">
<rect width="18.8571" height="15.3214" fill="white" transform="translate(2.57129 4.28571)"/>
</clipPath>
</defs>
</svg>