<?xml version="1.0" encoding="utf-8"?>
<svg xmlns="http://www.w3.org/2000/svg" id="Livello_1" data-name="Livello 1" viewBox="0 0 275 40">
  <defs>
    <style>
      .cls-1 {
        fill: #164194;
      }

      .cls-2 {
        fill: #fff;
      }
    </style>
  </defs>
  <path class="cls-2" d="M65.91,2.52h1.2v8.58h-1.2V2.52ZM66.5,2.52h4.8v1.13h-4.8v-1.13ZM66.5,6.35h4.17v1.13h-4.17v-1.13Z"/>
  <path class="cls-2" d="M72.61,2.52h1.2v1.2h-1.2v-1.2ZM72.61,4.99h1.2v6.11h-1.2v-6.11Z"/>
  <path class="cls-2" d="M75.53,4.99h1.2v6.11h-1.2v-6.11ZM79.24,7.39c0-.43-.11-.77-.34-1s-.54-.36-.95-.36c-.38,0-.7.11-.91.32l-.32.88-.11-1.18.75-.86,1.02-.29c.66,0,1.18.23,1.54.66s.54,1.04.54,1.83v3.71h-1.2l-.02-3.71h0Z"/>
  <path class="cls-2" d="M82.43,10.72c-.38-.32-.57-.79-.57-1.43s.18-1.06.52-1.36.86-.45,1.54-.45h1.74l.09.97h-1.81l-.7.2-.23.63.32.7c.2.16.52.23.93.23.45,0,.79-.05,1.02-.16l.34-.45.11.86-.38.41-.54.25-.7.09c-.75-.02-1.31-.18-1.68-.5M85.62,7.23c0-.41-.11-.7-.32-.93-.23-.23-.52-.34-.91-.34l-.72.11-.63.32-.88-.61.93-.66c.38-.16.79-.23,1.27-.23s.93.09,1.29.27l.84.77c.18.34.27.75.27,1.22v3.94h-1.13v-3.87h0Z"/>
  <path class="cls-2" d="M88.48,4.99h1.2v6.11h-1.2v-6.11ZM92.19,7.39c0-.43-.11-.77-.34-1s-.54-.36-.95-.36c-.38,0-.7.11-.91.32l-.32.88-.11-1.18.75-.86,1.02-.29c.66,0,1.18.23,1.54.66s.54,1.04.54,1.83v3.71h-1.2l-.02-3.71h0Z"/>
  <polygon class="cls-2" points="99.34 6.01 96.4 9.99 99.5 9.99 99.5 11.1 94.93 11.1 94.93 10.06 97.96 6.1 95.02 6.1 95.02 4.99 99.34 4.99 99.34 6.01"/>
  <path class="cls-2" d="M100.97,2.52h1.2v1.2h-1.2v-1.2ZM100.97,4.99h1.2v6.11h-1.2v-6.11Z"/>
  <path class="cls-2" d="M104.17,10.72c-.38-.32-.57-.79-.57-1.43s.18-1.06.52-1.36.86-.45,1.56-.45h1.74l.09.97h-1.81l-.7.2-.23.63.32.7c.2.16.52.23.93.23.45,0,.79-.05,1.04-.16l.34-.45.11.86-.38.41-.54.25-.7.09c-.77-.02-1.34-.18-1.72-.5M107.36,7.23c0-.41-.11-.7-.32-.93-.23-.23-.52-.34-.91-.34l-.72.11-.63.32-.88-.61.93-.66c.38-.16.79-.23,1.27-.23s.93.09,1.29.27l.84.77c.18.34.27.75.27,1.22v3.94h-1.13v-3.87h0Z"/>
  <path class="cls-2" d="M109.76,4.99h2.76v1.09h-2.76v-1.09ZM110.73,10.72c-.23-.27-.34-.68-.34-1.2V3.2h1.2v6.32l.09.34.25.11h.57v1.13h-.7c-.48.02-.84-.11-1.06-.38"/>
  <path class="cls-2" d="M115.03,10.88c-.38-.2-.66-.52-.86-.91-.2-.41-.29-.88-.29-1.45v-1c0-.54.11-1.02.29-1.43.2-.38.48-.7.86-.91s.84-.32,1.36-.32,1,.11,1.36.32c.38.2.66.5.86.91s.29.86.29,1.43v1.02c0,.57-.09,1.04-.29,1.43-.2.41-.48.7-.86.91s-.84.32-1.36.32-.97-.11-1.36-.32M117.39,9.65c.23-.27.34-.63.34-1.11v-1.02c0-.48-.11-.84-.34-1.11-.23-.25-.54-.38-.97-.38-.41,0-.75.14-.97.38s-.34.63-.34,1.11v1.02c0,.48.11.84.34,1.11s.57.41.97.41.72-.14.97-.41"/>
  <path class="cls-2" d="M66.59,23.76l-.72-.84c-.16-.38-.25-.81-.25-1.36v-1.36c0-.52.09-.97.25-1.36l.7-.86c.32-.18.68-.29,1.11-.29l1,.27.72.79-.14,1.25-.14-.66-.41-.43-.66-.14c-.41,0-.7.11-.93.36s-.34.59-.34,1.04v1.34c0,.45.11.79.34,1.04s.52.36.93.36l.66-.16.41-.43.14-.68.09,1.29-.61.77c-.27.2-.61.32-1.02.32-.45.02-.81-.07-1.13-.27M69.26,15.38h1.2v8.58h-1.2v-8.58Z"/>
  <path class="cls-2" d="M72.45,23.58c-.38-.32-.57-.79-.57-1.43s.18-1.06.52-1.36.86-.45,1.56-.45h1.74l.09.97h-1.81l-.7.2-.23.63.32.7c.2.16.52.23.93.23.45,0,.79-.05,1.04-.16l.34-.45.11.86-.38.41-.54.25-.7.09c-.79-.05-1.36-.2-1.72-.5M75.64,20.07c0-.41-.11-.7-.32-.93-.23-.23-.52-.34-.91-.34l-.72.11-.63.32-.88-.61.93-.66c.38-.16.79-.23,1.27-.23s.93.09,1.29.27l.84.77c.18.34.27.75.27,1.22v3.94h-1.13v-3.87h0Z"/>
  <path class="cls-2" d="M79.72,22.35l.09.34.27.11h.57v1.13h-.7c-.45,0-.81-.14-1.06-.43-.25-.27-.38-.68-.38-1.2v-6.97h1.2l.02,7.02h0Z"/>
  <path class="cls-2" d="M83.09,22.35l.09.34.27.11h.57v1.13h-.7c-.45,0-.81-.14-1.06-.43-.25-.27-.38-.68-.38-1.2v-6.97h1.2l.02,7.02h0Z"/>
  <polygon class="cls-2" points="84.79 15.38 86.03 15.38 86.03 17.28 84.79 18.6 84.79 15.38"/>
  <path class="cls-2" d="M88.34,23.67c-.45-.25-.79-.61-1.02-1.09-.25-.48-.36-1.06-.36-1.72v-5.48h1.2v5.5c0,.63.16,1.11.48,1.45s.77.52,1.34.52,1.02-.18,1.34-.52.48-.84.48-1.45v-5.5h1.2v5.48c0,.68-.11,1.25-.36,1.72s-.59.84-1.04,1.09-1,.38-1.63.38c-.61-.02-1.15-.14-1.61-.38"/>
  <path class="cls-2" d="M94.77,17.83h1.2v6.11h-1.2v-6.11ZM98.48,20.23c0-.43-.11-.77-.34-1s-.54-.36-.95-.36c-.38,0-.7.11-.91.32l-.32.88-.11-1.18.75-.86,1.02-.29c.66,0,1.18.23,1.54.66.36.43.54,1.04.54,1.83v3.71h-1.2v-3.71h-.02Z"/>
  <path class="cls-2" d="M101.4,15.38h1.2v1.2h-1.2v-1.2ZM101.4,17.83h1.2v6.11h-1.2v-6.11Z"/>
  <path class="cls-2" d="M105.32,23.71c-.38-.2-.66-.52-.86-.91-.2-.41-.29-.88-.29-1.45v-1c0-.54.11-1.02.29-1.43.2-.38.48-.7.86-.91.38-.2.84-.32,1.36-.32s1,.11,1.36.32c.38.2.66.5.86.91s.29.86.29,1.43v1.02c0,.57-.09,1.04-.29,1.43-.2.41-.48.7-.86.91-.38.2-.84.32-1.36.32s-1-.11-1.36-.32M107.65,22.49c.23-.27.34-.63.34-1.11v-1.02c0-.48-.11-.84-.34-1.11-.23-.25-.54-.38-.97-.38s-.75.14-.97.38-.34.63-.34,1.11v1.02c0,.48.11.84.34,1.11s.54.41.97.41.75-.14.97-.41"/>
  <path class="cls-2" d="M110.8,17.83h1.2v6.11h-1.2v-6.11ZM114.51,20.23c0-.43-.11-.77-.34-1s-.54-.36-.95-.36c-.38,0-.7.11-.91.32l-.32.88-.11-1.18.75-.86,1.02-.29c.66,0,1.18.23,1.54.66s.54,1.04.54,1.83v3.71h-1.2v-3.71h-.02Z"/>
  <path class="cls-2" d="M118.5,23.71c-.41-.2-.7-.52-.93-.93-.2-.41-.32-.91-.32-1.49v-.7c0-.61.11-1.13.29-1.56.2-.43.5-.75.88-.97s.84-.34,1.38-.34.95.14,1.31.38.63.63.84,1.11c.18.48.29,1.06.29,1.74v.41h-4.12v-.97h2.99c-.05-.5-.16-.88-.38-1.15l-.91-.41c-.45,0-.81.16-1.06.45s-.38.72-.38,1.27v.77c0,.5.14.91.41,1.18s.66.41,1.13.41l.72-.14.63-.41.79.79-1.02.68-1.13.25c-.54-.05-1.04-.14-1.43-.36"/>
  <path class="cls-2" d="M127.98,23.71c-.41-.2-.7-.52-.93-.93-.2-.41-.32-.91-.32-1.49v-.7c0-.61.11-1.13.29-1.56.2-.43.5-.75.88-.97s.84-.34,1.38-.34.95.14,1.31.38.63.63.84,1.11c.18.48.29,1.06.29,1.74v.41h-4.12v-.97h2.99c-.05-.5-.16-.88-.38-1.15l-.91-.41c-.45,0-.81.16-1.06.45s-.38.72-.38,1.27v.77c0,.5.14.91.41,1.18s.66.41,1.13.41l.72-.14.63-.41.79.79-1.02.68-1.13.25c-.54-.05-1.02-.14-1.43-.36"/>
  <path class="cls-2" d="M134.37,21.54c0,.43.11.77.34,1s.52.36.93.36c.38,0,.7-.11.91-.32.23-.2.32-.5.32-.88l.09,1.29-.61.77c-.27.2-.63.32-1.04.32-.68,0-1.2-.23-1.56-.66s-.54-1.04-.54-1.83v-3.71h1.2v3.67h-.02ZM136.83,17.83h1.2v6.11h-1.2v-6.11Z"/>
  <path class="cls-2" d="M139.75,17.83h1.2v6.11h-1.2v-6.11ZM142.72,18.98l-.57-.09-.88.32-.32.88-.11-1.18.72-.86,1-.29.77.11.59.36-.79,1.06-.41-.32Z"/>
  <path class="cls-2" d="M145.68,23.71c-.38-.2-.66-.52-.86-.91-.2-.41-.29-.88-.29-1.45v-1c0-.54.11-1.02.29-1.43.2-.38.48-.7.86-.91s.84-.32,1.36-.32,1,.11,1.36.32c.38.2.66.5.86.91s.29.86.29,1.43v1.02c0,.57-.09,1.04-.29,1.43-.2.41-.48.7-.86.91s-.84.32-1.36.32-1-.11-1.36-.32M148.02,22.49c.23-.27.34-.63.34-1.11v-1.02c0-.48-.11-.84-.34-1.11-.23-.25-.54-.38-.97-.38s-.75.14-.97.38-.34.63-.34,1.11v1.02c0,.48.11.84.34,1.11s.54.41.97.41.75-.14.97-.41"/>
  <path class="cls-2" d="M151.16,17.83h1.2v8.6h-1.2v-8.6ZM152.91,23.76l-.63-.77.09-1.29.14.68.41.43.66.16c.41,0,.7-.11.93-.36s.34-.59.34-1.02v-1.36c0-.45-.11-.79-.34-1.04s-.52-.36-.93-.36l-.66.14-.41.41-.14.66-.11-1.18.72-.84,1-.29c.43,0,.81.09,1.11.29l.7.86c.16.36.25.81.25,1.36v1.34c0,.52-.09.97-.25,1.34l-.72.84c-.32.18-.7.29-1.13.29l-1.02-.27Z"/>
  <path class="cls-2" d="M158.68,23.71c-.41-.2-.7-.52-.93-.93-.2-.41-.32-.91-.32-1.49v-.7c0-.61.11-1.13.29-1.56.2-.43.5-.75.88-.97s.84-.34,1.38-.34.95.14,1.31.38.63.63.84,1.11c.18.48.29,1.06.29,1.74v.41h-4.12v-.97h2.99c-.05-.5-.16-.88-.38-1.15l-.91-.41c-.45,0-.81.16-1.06.45s-.38.72-.38,1.27v.77c0,.5.14.91.41,1.18s.66.41,1.13.41l.72-.14.63-.41.79.79-1.02.68-1.13.25c-.54-.05-1.02-.14-1.43-.36"/>
  <path class="cls-2" d="M164.25,23.58c-.38-.32-.57-.79-.57-1.43s.18-1.06.52-1.36.86-.45,1.54-.45h1.74l.09.97h-1.81l-.7.2-.23.63.32.7c.2.16.52.23.93.23.45,0,.79-.05,1.02-.16l.34-.45.11.86-.38.41-.54.25-.7.09c-.72-.05-1.29-.2-1.68-.5M167.44,20.07c0-.41-.11-.7-.32-.93-.23-.23-.52-.34-.91-.34l-.72.11-.63.32-.88-.61.93-.66c.38-.16.79-.23,1.27-.23s.93.09,1.29.27l.84.77c.18.34.27.75.27,1.22v3.94h-1.13v-3.87h0Z"/>
  <polygon class="cls-2" points="65.63 30.39 66.27 30.39 69.98 36.14 69.71 35.98 69.71 30.39 70.37 30.39 70.37 36.78 69.71 36.78 65.93 30.98 66.27 31.23 66.27 36.78 65.63 36.78 65.63 30.39"/>
  <path class="cls-2" d="M72.63,36.62l-.68-.7c-.16-.32-.25-.68-.25-1.11v-.52c0-.45.07-.84.23-1.15l.66-.72c.29-.16.63-.25,1.04-.25l.97.25.61.72c.14.32.2.7.2,1.13v.52h-3.31v-.57h2.72v-.05c0-.45-.11-.79-.32-1.04s-.52-.36-.91-.36c-.43,0-.75.14-1,.38-.23.27-.34.63-.34,1.11v.59c0,.45.11.81.36,1.06.25.25.59.38,1.04.38l.63-.14.54-.38.43.41-.75.5-.86.18c-.36-.02-.72-.09-1.04-.25"/>
  <path class="cls-2" d="M77.95,34.26l.34.52-1.47,1.99h-.7l1.83-2.51ZM77.97,34.62l-1.83-2.4h.7l1.49,2.04,1.88,2.51h-.7l-1.54-2.15ZM78.09,34.22l1.36-1.99h.7l-1.72,2.47-.34-.48Z"/>
  <path class="cls-2" d="M80.85,32.22h2.06v.54h-2.06v-.54ZM81.59,36.5c-.18-.2-.25-.5-.25-.91v-4.71h.63v4.71l.14.45.38.16h.43v.59h-.52l-.81-.29Z"/>
  <path class="cls-2" d="M88.61,33.52v.95c0,.54-.09.97-.25,1.34l-.75.79c-.34.18-.75.27-1.25.27s-.93-.09-1.27-.25l-.75-.75c-.16-.34-.25-.75-.25-1.25v-1.88c0-.54.09-.97.25-1.34l.75-.79c.34-.18.75-.27,1.25-.27.41,0,.77.07,1.06.2l.75.63c.18.27.32.63.41,1.06h-.68l-.32-.72-.5-.43-.7-.14-.91.2-.54.61c-.11.27-.18.59-.18,1v1.88l.18.93.54.54.91.18.88-.18.52-.59c.11-.27.18-.61.18-1.02v-.36h-1.54v-.59h2.2v-.05h0Z"/>
  <path class="cls-2" d="M90.76,36.62l-.68-.7c-.16-.32-.25-.68-.25-1.11v-.52c0-.45.07-.84.23-1.15l.66-.72c.29-.16.63-.25,1.04-.25l.97.25.61.72c.14.32.2.7.2,1.13v.52h-3.31v-.57h2.72v-.05c0-.45-.11-.79-.32-1.04s-.52-.36-.91-.36c-.43,0-.75.14-1,.38-.23.27-.34.63-.34,1.11v.59c0,.45.11.81.36,1.06.25.25.59.38,1.04.38l.63-.14.54-.38.43.41-.75.5-.86.18c-.38-.02-.75-.09-1.04-.25"/>
  <path class="cls-2" d="M94.79,32.22h.63v4.57h-.63v-4.57ZM97.85,34.01c0-.41-.11-.72-.32-.95s-.52-.34-.91-.34l-.88.29-.32.84-.09-.88.63-.66.93-.2c.5,0,.88.16,1.15.48.27.32.41.77.41,1.38v2.76h-.63v-2.72h.02Z"/>
  <path class="cls-2" d="M100.63,36.62l-.68-.7c-.16-.32-.25-.68-.25-1.11v-.52c0-.45.07-.84.23-1.15l.66-.72c.29-.16.63-.25,1.04-.25l.97.25.61.72c.14.32.2.7.2,1.13v.52h-3.31v-.57h2.72v-.05c0-.45-.11-.79-.32-1.04s-.52-.36-.91-.36c-.43,0-.75.14-1,.38-.23.27-.34.63-.34,1.11v.59c0,.45.11.81.36,1.06.25.25.59.38,1.04.38l.63-.14.54-.38.43.41-.75.5-.86.18c-.38-.02-.75-.09-1.04-.25"/>
  <path class="cls-2" d="M104.66,32.22h.63v4.57h-.63v-4.57ZM107,32.81l-.5-.07-.88.32-.32.84-.09-.88.66-.63.88-.23.57.09.45.27-.41.52-.36-.23Z"/>
  <path class="cls-2" d="M108.74,36.48c-.29-.25-.43-.59-.43-1.04s.14-.77.41-1c.27-.23.63-.36,1.13-.36h1.52l.07.59h-1.58l-.68.2-.25.57.29.61.86.2c.38,0,.7-.05.93-.11l.32-.34.09.59-.34.25-.5.16-.59.05c-.54,0-.95-.11-1.25-.36M111.32,33.9l-.29-.86-.84-.29-.63.11-.54.29-.45-.32.68-.48.95-.18.97.2.61.59.2.93v2.94h-.63l-.02-2.94h0Z"/>
  <path class="cls-2" d="M112.95,32.22h2.06v.54h-2.06v-.54h0ZM113.67,36.5c-.18-.2-.25-.5-.25-.91v-4.71h.63v4.71l.14.45.38.16h.43v.59h-.52l-.81-.29Z"/>
  <path class="cls-2" d="M116.37,30.39h.63v.63h-.63v-.63ZM116.37,32.22h.63v4.57h-.63v-4.57Z"/>
  <path class="cls-2" d="M119.24,36.62l-.66-.68c-.14-.29-.23-.66-.23-1.06v-.75c0-.41.07-.77.23-1.06l.66-.68c.27-.16.61-.23,1.02-.23s.72.07,1.02.23l.63.68c.16.29.23.66.23,1.06v.75c0,.41-.07.77-.23,1.06l-.63.68c-.27.16-.61.23-1.02.23s-.75-.07-1.02-.23M121.19,35.89c.23-.25.34-.59.34-1.02v-.75c0-.43-.11-.77-.34-1.02s-.52-.36-.93-.36-.7.11-.93.36-.32.59-.32,1.02v.75c0,.43.11.77.32,1.02s.52.36.93.36c.38,0,.7-.11.93-.36"/>
  <path class="cls-2" d="M123.41,32.22h.63v4.57h-.63v-4.57ZM126.44,34.01c0-.41-.11-.72-.32-.95s-.52-.34-.91-.34l-.88.29-.32.84-.09-.88.63-.66.93-.2c.5,0,.88.16,1.15.48.27.32.41.77.41,1.38v2.76h-.63v-2.72h.02Z"/>
  <path class="cls-2" d="M128.55,30.39h.63v6.41h-.63v-6.41ZM128.98,30.39h3.67v.59h-3.67v-.59ZM128.98,33.31h3.19v.59h-3.19v-.59ZM128.98,36.19h3.67v.59h-3.67v-.59Z"/>
  <path class="cls-2" d="M134.82,36.59l-.75-.77c-.16-.34-.25-.77-.25-1.29v-4.12h.63v4.17c0,.57.14.97.41,1.27.27.27.68.41,1.2.41s.95-.14,1.22-.41.41-.7.41-1.27v-4.17h.63v4.12c0,.52-.09.95-.25,1.29l-.75.77c-.34.18-.75.25-1.25.25-.52,0-.93-.07-1.27-.25"/>
  <rect class="cls-2" x=".53" y=".19" width="58.32" height="39.62"/>
  <rect class="cls-1" x="1.66" y="1.28" width="56.08" height="37.38"/>
  <polygon class="cls-2" points="28.51 9.43 29.69 8.57 30.86 9.43 30.41 8.02 31.63 7.16 30.14 7.16 29.69 5.76 29.23 7.16 27.76 7.16 28.96 8.02 28.51 9.43"/>
  <polygon class="cls-2" points="22.37 11.08 23.57 10.2 24.75 11.08 24.3 9.68 25.5 8.82 24.03 8.82 23.57 7.39 23.12 8.82 21.63 8.82 22.83 9.68 22.37 11.08"/>
  <polygon class="cls-2" points="19.09 11.9 18.64 13.3 17.14 13.3 18.34 14.16 17.91 15.56 19.09 14.7 20.27 15.56 19.81 14.16 21.01 13.3 19.54 13.3 19.09 11.9"/>
  <polygon class="cls-2" points="17.44 20.81 18.61 21.68 18.16 20.27 19.38 19.41 17.89 19.41 17.44 18.01 16.98 19.41 15.51 19.41 16.71 20.27 16.26 21.68 17.44 20.81"/>
  <polygon class="cls-2" points="19.54 25.55 19.09 24.14 18.64 25.55 17.14 25.55 18.34 26.41 17.89 27.81 19.09 26.95 20.27 27.81 19.81 26.41 21.01 25.55 19.54 25.55"/>
  <polygon class="cls-2" points="24.03 30.05 23.57 28.63 23.12 30.05 21.65 30.05 22.85 30.91 22.4 32.29 23.57 31.43 24.75 32.29 24.3 30.91 25.5 30.05 24.03 30.05"/>
  <polygon class="cls-2" points="30.14 31.66 29.69 30.26 29.23 31.66 27.76 31.66 28.96 32.52 28.51 33.92 29.69 33.06 30.86 33.92 30.43 32.52 31.63 31.66 30.14 31.66"/>
  <polygon class="cls-2" points="36.25 30.05 35.8 28.63 35.34 30.05 33.87 30.05 35.07 30.91 34.62 32.29 35.8 31.43 37 32.29 36.54 30.91 37.74 30.05 36.25 30.05"/>
  <polygon class="cls-2" points="40.76 25.55 40.3 24.14 39.85 25.55 38.36 25.55 39.56 26.41 39.1 27.81 40.3 26.95 41.48 27.81 41.03 26.41 42.23 25.55 40.76 25.55"/>
  <polygon class="cls-2" points="43.86 19.39 42.39 19.39 41.91 17.99 41.48 19.39 39.99 19.39 41.19 20.27 40.73 21.65 41.91 20.79 43.11 21.65 42.66 20.27 43.86 19.39"/>
  <polygon class="cls-2" points="39.1 15.54 40.3 14.68 41.48 15.54 41.03 14.14 42.23 13.28 40.76 13.28 40.3 11.87 39.85 13.28 38.36 13.28 39.56 14.14 39.1 15.54"/>
  <polygon class="cls-2" points="35.82 7.39 35.37 8.82 33.9 8.82 35.1 9.68 34.64 11.08 35.82 10.2 37 11.08 36.57 9.68 37.77 8.82 36.27 8.82 35.82 7.39"/>
</svg>