<?xml version="1.0" encoding="utf-8"?>
<svg xmlns="http://www.w3.org/2000/svg" width="24" height="24" viewBox="0 0 24 24" fill="none">
<path d="M16.5 14.9981H15V11.0861C14.962 10.5016 14.5685 10.2126 14.0535 10.1536C13.469 10.0866 12.971 10.3581 12.838 10.9106C12.7785 11.1571 12.753 11.4176 12.7505 11.6721V14.9981H11.2505C11.2505 14.9981 11.255 11.3101 11.2505 11.1916C11.2235 10.5106 10.9 10.1966 10.347 10.1501C9.7665 10.1016 9.167 10.4666 9.049 11.0566C9.0105 11.2481 9.0025 11.4486 9.002 11.6451C8.997 12.7506 9 14.9981 9 14.9981H7.5V9.01958H9.001V9.80758C9.5125 9.17008 10.0985 8.82108 10.8355 8.83408C11.5625 8.84708 12.1995 9.04158 12.552 9.77208C12.7835 9.56608 12.9845 9.35158 13.2185 9.18408C14.189 8.48958 15.793 8.82108 16.2725 9.82458C16.396 10.0836 16.4945 10.3881 16.5 10.6736V14.9981Z" fill="white"/>
<path d="M5 20.5H3V3.5H5V4.5H4V19.5H5V20.5Z" fill="white"/>
<path d="M21 20.5H19V19.5H20V4.5H19V3.5H21V20.5Z" fill="white"/>
</svg>