<?xml version="1.0" encoding="utf-8"?>
<svg xmlns="http://www.w3.org/2000/svg" width="121" height="60" viewBox="0 0 121 60" fill="none">
<g clip-path="url(#clip0_1467_14785)">
<path fill-rule="evenodd" clip-rule="evenodd" d="M48.488 28.3589C48.641 27.3231 48.5361 26.6708 48.172 26.4018C47.7879 26.1336 47.3177 26.2196 46.7616 26.6606C46.4354 26.4882 45.9948 26.6515 45.4379 27.15C45.5342 26.9007 45.5436 26.6799 45.4671 26.4886C45.9657 26.2582 46.2871 26.0038 46.4311 25.7261C46.575 25.4481 46.6472 25.0118 46.6472 24.4167C46.7044 24.0522 47.04 23.3999 47.6541 22.4596C48.0754 21.5194 47.778 21.1936 46.762 21.4815C47.3177 20.9829 47.5965 20.551 47.5965 20.1866C47.6344 19.8411 47.4909 19.4001 47.1643 18.8629C47.0302 18.5561 46.829 18.4985 46.5601 18.6902C46.6559 18.4989 46.7088 18.2685 46.7186 17.9999C46.7281 17.7317 46.551 17.1654 46.1865 16.3016C46.1289 15.1704 45.8596 14.7003 45.3811 14.892C45.3029 14.2937 45.1072 13.7168 44.8053 13.1944C44.3443 12.5038 43.9802 12.3212 43.7119 12.6477C42.963 11.5351 42.2626 11.0748 41.6109 11.2665C41.5912 10.7869 41.4287 10.3554 41.1215 9.97162C40.9487 9.24273 40.7374 8.73434 40.4884 8.44606C40.143 8.31231 39.9035 8.50437 39.769 9.02188C39.7115 8.60022 39.5773 8.15888 39.366 7.69823C39.1546 7.23793 38.8193 6.99849 38.359 6.97918C38.1908 6.9591 38.0204 6.98915 37.8692 7.06555C37.5631 6.87349 37.3043 6.77764 37.0929 6.77764C36.4406 6.08702 35.8465 6.02944 35.309 6.60453L35.2222 6.00065C35.0302 5.29071 34.6464 5.13692 34.0706 5.54036C33.1314 4.56183 32.3256 3.91859 31.6543 3.61245C31.0975 3.42039 30.7323 3.46813 30.5603 3.75641C30.2724 3.4685 29.9651 3.28628 29.6397 3.20974C29.3289 3.13752 29.0216 3.05093 28.7188 2.95026C28.2778 2.93131 28.0857 3.17111 28.1429 3.66967C27.4523 3.7083 26.9778 3.8282 26.718 4.02938C26.4592 4.23128 26.3925 4.51409 26.5175 4.87853C26.6414 5.24297 26.9246 5.54072 27.3667 5.77069C27.2511 5.90553 27.2034 6.11618 27.2223 6.40372C27.2417 6.69163 27.5482 6.93144 28.1426 7.12313C28.5843 7.23793 29.0158 7.24704 29.4378 7.15156C29.342 7.59254 29.4954 7.87097 29.8981 7.98614C30.4539 8.56196 31.1445 8.70591 31.9699 8.418L31.8836 8.96467L33.0061 9.42496C33.0443 9.96251 33.294 10.3459 33.7546 10.5759L34.1945 10.7661C34.099 10.777 33.6868 11.1178 33.6814 11.1721C33.5903 11.2785 33.3432 11.8084 33.9427 11.9254C34.3982 11.9775 34.8983 12.0238 35.3779 12.014C35.3899 12.1554 35.4763 12.385 35.5674 12.5486C35.649 12.7217 35.8494 12.9739 36.1855 13.3383C36.4971 13.6773 37.0845 14.0118 37.5802 14.2221C37.5485 14.2575 37.4125 14.6314 37.2886 14.9751C37.1363 15.3949 37.0576 16.0757 37.3506 16.4416C37.2872 16.4102 37.0124 16.6019 36.9133 16.755C36.5561 17.309 37.3324 18.1034 37.4552 18.3768C37.3951 18.3695 37.1804 18.4781 37.0674 18.559C36.8006 18.7485 36.8914 19.7026 37.6498 19.8655C37.84 19.9566 38.7114 20.4632 39.1462 20.9064C39.2311 20.9938 39.4753 21.453 39.8233 21.9097C40.0092 22.1539 40.206 22.5657 40.6605 22.5755C41.0759 23.9214 41.7611 25.2068 42.5818 26.4619C42.5782 26.5009 43.3315 27.3009 43.6022 28.0254C43.5111 28.4934 43.5213 28.8964 43.5195 28.919C43.4211 29.8447 43.2535 30.6939 43.0202 31.4665C42.2039 31.0729 42.0716 31.6101 41.9502 32.1378C41.9706 32.1112 41.5705 32.0598 41.5173 32.2435C41.5526 31.9246 41.0271 31.6436 40.7884 31.8134C40.7822 31.8171 40.5267 31.9971 40.3685 32.1174C40.315 32.1582 40.268 31.8539 40.2505 31.6265C40.2424 31.4705 40.2118 30.9362 40.3113 30.727C40.327 30.6928 40.5198 30.4621 40.6393 30.2478C40.8817 29.8134 40.7049 28.4445 40.4053 27.4973C40.3157 27.2131 40.1291 27.0782 39.9655 27.0133C39.8991 26.9878 39.4698 27.0119 39.3875 27.3413C39.3645 27.1544 39.062 27.0432 38.8379 26.99C38.2081 26.8406 37.535 28.0495 37.6097 29.1723C37.152 28.8097 36.5477 28.9252 36.621 29.555C36.7237 30.4347 38.0478 31.9989 38.0879 32.7052C37.6917 32.3517 36.7934 32.3426 36.7923 33.2009C36.7915 33.4618 37.0047 33.9042 37.0937 34.0927C36.9103 35.0081 37.9665 35.6791 38.8284 36.5428C38.8131 36.9517 38.9534 36.9572 39.085 37.1164C38.9283 37.3581 37.9632 38.8785 37.9505 38.9146C37.9038 38.9343 37.2376 38.5611 37.0182 38.7542C36.785 38.9609 36.5955 39.2426 36.4861 39.4095L36.602 40.4755C36.6786 40.9165 36.4435 41.4107 35.8965 41.9562C35.3498 42.5029 34.9897 43.0066 34.817 43.4676C34.7211 43.8127 34.3468 44.1874 33.6952 44.5901C33.657 44.4749 33.5032 44.292 33.2346 44.0427C33.1963 43.9662 33.1194 43.9385 33.0042 43.9578C32.3519 44.1301 31.0377 44.882 29.0617 45.8609C28.718 46.0344 28.2286 46.4695 27.5955 47.5628H26.4731C26.1662 47.1984 25.8404 46.9735 25.4945 46.6663C25.2452 46.475 24.8039 46.4549 24.1716 46.7804C23.5765 46.6455 22.9821 46.7264 22.3869 47.1095C22.0225 47.2443 21.7542 47.2494 21.5815 47.1729L20.1718 45.6371C17.2563 44.409 15.6637 43.8586 15.3947 43.9924C15.1068 44.1651 14.8962 44.4115 14.762 44.7369C14.4741 44.6032 14.0426 44.2377 13.4668 43.6418L12.575 42.6348C11.9227 41.906 11.6541 41.215 11.7696 40.5619L11.9132 39.6697C11.9329 39.5356 11.9132 39.4292 11.856 39.3527C11.6446 39.1231 11.2714 38.9846 11.0797 38.9456C11.0382 38.9288 10.9135 38.8854 10.7718 39.4055C10.8093 39.5294 9.85117 38.1431 9.83805 38.0957C10.0961 37.8195 10.5538 37.0005 10.8148 36.0486C11.1107 34.9699 11.2477 33.7803 11.2357 33.3255C11.2812 33.2402 11.2929 33.2169 11.345 33.1659C11.7911 32.8233 12.3571 29.6206 12.2306 28.8501C12.173 28.5429 12.1009 28.3851 12.0145 28.3753C11.9281 28.3654 11.8469 28.3899 11.7703 28.4474L11.9427 28.1019C12.0386 27.8523 12.0386 27.6901 11.9427 27.6129C11.8855 27.552 11.3662 27.56 10.915 27.7885C10.8603 27.2885 10.6234 26.5552 10.5017 26.2899C10.4616 26.2014 10.3362 26.2965 10.3322 26.2987C9.52681 26.787 9.16966 27.8548 8.88284 29.1796L8.65179 29.391C7.61859 30.6855 6.79203 32.1921 6.43962 33.8864C6.26651 33.6167 6.16811 33.2282 6.01468 32.7202C5.86161 32.2125 5.8135 31.871 5.87072 31.699C6.02379 31.4308 5.97641 31.1815 5.7264 30.9504C5.53434 30.7584 5.28543 29.8954 4.9782 28.3607C4.99752 27.958 5.16042 27.3534 5.46765 26.548C5.77451 25.7425 6.28764 24.7221 6.95931 23.5705C6.99576 23.5205 7.29351 23.1973 7.38498 23.1743C8.38137 22.9265 12.8079 17.1912 12.3432 14.521C12.2692 14.8409 14.2438 11.3696 14.4023 10.656L14.6465 10.577L14.9344 10.4622C15.894 10.0784 16.7093 9.66877 17.4578 9.32328L18.6182 8.70737C19.4236 8.36188 20.1915 7.89174 20.9204 7.29697C21.6879 6.62275 22.1005 5.92302 22.158 5.19414C22.0239 5.02103 21.6307 4.92518 20.9783 4.90623C21.3238 4.5221 21.5061 4.11903 21.525 3.697C21.2754 3.35188 20.5275 3.29429 19.28 3.52462C17.9761 3.85043 16.8346 4.3592 15.8561 5.04945C14.8522 5.68777 13.9459 6.46798 13.1654 7.36585C12.3691 8.27696 11.7313 9.22196 11.2521 10.2005L11.8279 8.87683C12.1158 8.2438 12.422 7.50507 12.7485 6.66102C12.8447 6.25831 12.8494 5.9704 12.7631 5.79729C12.6771 5.62527 12.4897 5.57717 12.2018 5.6537C11.8957 5.73023 11.3388 6.13331 10.5327 6.86219C9.65072 7.76419 8.86863 8.87683 8.18785 10.2005C7.50634 11.5234 7.04131 12.5694 6.79203 13.3369C6.92615 12.4739 6.9072 11.7352 6.73445 11.1211C6.6386 10.8714 6.42759 10.804 6.10178 10.9195C5.79455 11.1309 5.48769 11.448 5.18083 11.8696C4.87397 12.2913 4.57658 12.6995 4.28904 13.0923C4.00113 13.4859 3.66037 14.0472 3.2675 14.7761C2.8739 15.505 2.52878 16.3687 2.23139 17.3658C1.93401 18.3637 1.70842 19.6873 1.55499 21.3368C1.45914 22.3922 1.53603 23.5242 1.78531 24.7327C2.09217 25.9412 2.39904 26.8333 2.7059 27.4088C3.01312 27.9846 3.30067 28.3199 3.56963 28.4161C3.74201 28.8378 3.97234 29.5386 4.26025 30.5171C4.41331 30.977 4.48037 31.3273 4.46069 31.5674C4.44247 31.8061 4.50442 31.9749 4.64838 32.0711C4.79233 32.1666 4.91187 32.3579 5.00808 32.6455C5.25736 33.5668 5.59301 34.4203 6.01504 35.2075C5.93892 35.6247 5.9005 36.048 5.90024 36.4721C4.97966 33.8073 4.23109 31.7919 3.65527 30.4296C2.54299 27.9551 1.66978 26.8235 1.03675 27.0345C0.728793 27.1497 0.53746 27.4281 0.460927 27.8691C0.441247 28.0414 0.441247 28.4828 0.460927 29.192C0.479149 29.9027 0.546571 30.6509 0.661371 31.437C1.23719 33.9881 2.22556 36.1186 3.62612 37.8256L5.72677 40.3002C6.14879 40.7222 6.5515 41.0342 6.93526 41.2346C7.31902 41.4366 7.67399 41.4887 8.00016 41.3932C8.4794 42.1607 9.08402 42.9658 9.81327 43.8105C10.2736 44.5197 10.7535 44.8558 11.2521 44.8175C11.4635 45.2778 11.7794 45.5085 12.2018 45.5085L12.6337 45.4513C13.2277 46.0263 13.7657 46.4863 14.2445 46.8325L13.6979 48.3865C12.7394 48.5202 11.8563 48.5968 11.0506 48.6161C10.3027 48.0782 9.24802 47.3496 7.88573 46.4287L7.79935 44.7023C7.76036 44.1083 7.86605 43.609 8.11533 43.2067C8.17291 42.8805 7.99069 42.5827 7.56866 42.3149C6.93562 42.0076 6.66666 41.8823 6.39807 41.9402C6.28327 41.9781 6.37839 42.0845 6.37839 42.2573V42.3644C6.37839 42.277 6.41629 42.2478 6.52635 42.285C7.33177 42.4971 7.69549 42.7653 7.63791 43.0915C7.3879 43.5131 7.26763 43.9938 7.28695 44.5303L7.31246 46.0267C6.27021 45.3417 5.17258 44.7448 4.03101 44.2424C4.16476 44.2234 4.31783 44.2078 4.49021 44.1987C4.66296 44.1892 4.77812 44.1276 4.83534 44.0128C4.89256 43.8962 4.78687 43.8298 4.51827 43.8105C3.92423 43.8105 3.54047 43.8579 3.36736 43.9549C3.23252 44.1079 3.26167 44.2697 3.45337 44.4425C4.83461 45.1335 6.05258 45.8237 7.108 46.5154C8.77715 47.5709 10.0717 48.4335 10.993 49.1052C11.8946 49.0862 13.1603 48.9608 14.7912 48.7309L17.2658 48.271C18.2826 48.0778 19.338 47.9156 20.4313 47.7815C20.834 47.7239 21.3424 47.6853 21.9569 47.6667C22.525 47.651 23.0918 47.6028 23.6545 47.5224C24.1537 48.4627 24.4599 49.2863 24.5754 49.997C24.633 50.3614 24.5849 50.5633 24.4314 50.6019C22.1482 51.4445 20.5082 51.9773 19.5107 52.1975C18.5133 52.4183 17.6113 52.6151 16.8055 52.7879C14.8297 53.1465 12.8432 53.4439 10.849 53.6796C10.3497 53.5455 8.9109 52.8068 6.53218 51.4638C4.84372 50.4481 3.66402 49.6223 2.99271 48.99C2.22556 48.1645 1.91833 47.6663 2.07213 47.4921C2.57069 46.6685 2.9067 45.9385 3.07909 45.3062C3.15562 45.0376 3.17493 44.827 3.13667 44.6735C2.92529 44.0205 3.07909 43.6844 3.59732 43.6651C4.88235 43.5886 5.74608 43.5693 6.18706 43.6079C6.37875 43.6269 6.50412 43.5696 6.56098 43.4352L6.99284 42.5725L6.73336 42.4574L6.38094 43.0324L6.3773 42.4508V43.2052L3.46175 43.262C3.21247 43.262 2.91582 43.3579 2.75218 43.55C2.58927 43.7413 2.53935 44.1258 2.69241 44.7009C2.70679 44.8847 2.68929 45.0697 2.64066 45.2475C2.50655 45.8613 2.14028 46.6098 1.56446 47.4914C1.48793 47.627 1.51599 47.8278 1.65922 48.0964C1.8039 48.3653 2.16069 48.787 2.73615 49.3625C2.98579 49.6121 3.36299 49.9201 3.87139 50.2838C4.37978 50.6475 5.27595 51.2051 6.56098 51.9529C8.07706 52.8549 9.52463 53.602 10.9059 54.1979C11.1938 54.2168 13.1118 53.9574 16.6604 53.4209L16.6896 53.7361C15.6728 54.5044 15.0204 54.8222 14.7325 54.6859C14.3298 54.7241 14.2052 55.0219 14.359 55.5788C14.4738 55.8284 14.6851 56.0008 14.9916 56.0963L15.3659 56.5285L16.4301 57.1612C16.8332 57.276 17.2173 57.276 17.5817 57.1612C17.9269 57.0271 18.1576 56.7289 18.272 56.2694L18.385 56.1564L19.5381 55.0033L20.3726 54.371C21.025 54.2566 21.4467 54.0266 21.6387 53.6804C21.677 53.3735 21.7634 53.1822 21.8975 53.1053L22.9048 52.4143C22.9431 52.3188 23.3556 52.4825 24.1424 52.9041C24.5262 53 24.8619 52.9806 25.1498 52.8465L25.898 52.4147C26.5696 52.5696 27.7493 53.4041 29.4374 54.9195C29.4181 55.0922 29.5238 55.2923 29.7538 55.5237C29.8879 55.6968 30.2531 55.8397 30.8471 55.9549L31.2498 56.7038L31.6529 56.8481C32.2469 56.8674 32.8034 56.655 33.322 56.214L33.9547 56.0125C34.2809 55.7635 34.4248 55.5143 34.3869 55.2653L34.1275 55.0055L33.5808 54.8623C32.8894 54.5354 32.1904 54.0948 31.4801 53.5386L31.0195 53.1924C33.1107 53.5579 35.7099 53.8447 38.8178 54.0561C39.2012 54.1327 39.7144 53.9359 40.3572 53.4657C40.9998 52.9967 42.9422 51.6107 46.1847 49.3074C46.6684 48.7839 47.0577 48.1804 47.3352 47.5238C47.0473 47.2556 46.7933 46.8722 46.5728 46.3722C46.3527 45.8744 46.2131 45.4527 46.1555 45.1061C46.079 44.78 46.0692 44.4877 46.1264 44.2278C46.184 43.9702 46.098 43.7249 45.8676 43.4946C45.7714 43.3604 45.5506 43.2748 45.2062 43.2365C44.5921 43.1793 43.9015 43.1881 43.1339 43.2646C42.7688 43.2267 42.5581 43.1407 42.5005 43.0058L42.5297 42.3156C42.5869 42.0087 42.5005 41.8746 42.2709 41.9132C41.4262 42.1239 40.9178 42.3345 40.7446 42.5456C40.4954 42.8138 40.5052 43.1013 40.7738 43.4093C40.9852 43.6006 41.0901 43.8211 41.0901 44.0711C40.9753 45.3376 40.87 46.1907 40.7742 46.6317C39.3729 47.7443 38.4235 48.4255 37.9242 48.6744C37.5222 48.8085 36.6206 48.7509 35.2201 48.5016C34.9128 48.2338 34.6923 47.7728 34.5582 47.1204C35.0371 46.8332 35.5459 46.487 36.0831 46.0843C36.4475 46.0271 36.7547 45.9553 37.0036 45.8682C37.2536 45.7829 37.3779 45.5475 37.3779 45.163C37.6272 45.0664 37.8094 44.8558 37.9246 44.5299L39.5937 42.5164C40.1306 42.055 40.7155 41.7868 41.3485 41.7099C42.1157 41.6527 43.1139 41.2204 44.3413 40.4154C44.5334 40.2033 44.5334 39.9066 44.3413 39.5225C44.7058 39.3111 45.3009 38.7171 46.1256 37.7382C46.4515 37.2783 46.528 36.7699 46.3552 36.2137C47.1228 35.2924 47.555 34.5642 47.6508 34.026C47.7274 33.5474 47.7179 33.0285 47.6217 32.4727C47.9861 32.2424 48.2405 32.0456 48.3852 31.8823C48.5292 31.7201 48.6002 31.4938 48.6002 31.2063C48.6002 30.9191 48.4945 30.6789 48.2842 30.4869C48.8418 29.7022 48.9085 28.9926 48.4861 28.3592L48.488 28.3589ZM21.6781 5.39531C21.6781 5.75975 21.4959 6.16246 21.0549 6.6038C20.3828 7.21789 19.5811 7.78387 18.5738 8.30211C17.5661 8.81925 16.2176 9.43261 14.7599 10.1433V9.97089C16.5821 8.51312 18.4152 7.32358 20.0844 6.40226C20.5253 6.13367 20.3541 6.05714 19.8358 6.17194C19.26 6.45985 18.6368 6.81481 17.9465 7.23684C16.8216 7.96886 15.7009 8.70748 14.5846 9.45265L14.6152 9.10716C16.8018 7.18873 18.5971 5.95181 19.998 5.39494C20.6886 5.24188 21.2746 5.24188 21.6781 5.39567V5.39531ZM15.1509 6.08593C16.1969 5.2222 17.448 4.55162 18.9061 4.07129C19.6161 3.87923 20.2298 3.79285 20.7477 3.81253C20.9973 3.86975 21.0647 4.01298 20.9492 4.24367L20.3162 5.07824C19.7596 5.15478 18.9969 5.47184 18.0285 6.02798C17.0591 6.58412 16.0183 7.32285 14.906 8.2438L14.5033 8.50255C14.2919 8.34876 13.9085 8.41618 13.3524 8.70372C15.117 7.22663 16.6517 6.10415 17.9564 5.337C18.8015 4.9157 19.2899 4.61832 19.4247 4.44557C19.002 4.56073 18.4079 4.82459 17.6404 5.23714C16.8729 5.64896 15.6068 6.50795 13.8418 7.8123L12.1442 9.33749C13.1027 8.03278 14.1057 6.94929 15.1509 6.08593ZM13.3812 9.28027C13.688 9.10716 13.8987 9.03974 14.0142 9.07874C14.0907 9.27043 14.1101 9.53429 14.0718 9.86958C14.0335 10.2049 13.7839 10.9108 13.3232 11.9848L12.259 14.057C11.5105 14.1529 10.8013 14.498 10.1292 15.0931C10.4747 14.4991 10.892 13.8176 11.3811 13.0501C11.8702 12.2829 12.6326 11.1316 13.6687 9.59697C13.8411 9.30906 13.8462 9.23727 13.6833 9.38122C13.52 9.52554 13.0834 10.0766 12.3738 11.0358C11.6639 11.995 10.7145 13.4823 9.52499 15.4966C9.19882 15.9951 8.41708 17.1971 7.12696 19.176L7.28367 18.7299L9.01295 15.6686L10.6759 12.561C11.462 11.1597 12.364 10.0664 13.3808 9.27991L13.3812 9.28027ZM6.33028 16.3301C7.0978 15.0837 8.01911 13.3183 9.09349 11.0354C9.41967 10.3638 9.89891 9.60608 10.5323 8.7624C10.724 8.32142 10.6187 8.33053 10.2152 8.79155C9.27571 9.96142 8.18165 11.8128 6.93526 14.3457L7.48192 12.9644C7.57814 12.6572 7.885 11.9622 8.40287 10.8776C8.92038 9.79377 9.42914 8.93514 9.92807 8.30211C10.4274 7.66907 10.7721 7.25616 10.9642 7.06482C11.6548 6.47005 12.0575 6.19198 12.1727 6.23025C12.2689 6.30678 12.2977 6.43142 12.2594 6.6038L10.849 10.23C9.92843 12.014 8.71994 13.8744 7.22353 15.8122C6.5905 16.5032 6.19726 16.9441 6.04347 17.1362C5.90404 17.3079 5.77898 17.4907 5.66955 17.6829L5.78471 17.1938L6.33138 16.3301H6.33028ZM7.108 19.6111C6.70493 20.359 6.39734 21.0303 6.18706 21.6251L5.95673 21.5959L6.56098 19.7263L7.10764 19.6108L7.108 19.6111ZM4.9782 24.5023L5.17974 23.6678L5.35248 22.8332L5.81277 22.7468L5.23695 24.3012L4.83424 25.6532L4.97856 24.5027L4.9782 24.5023ZM4.86304 21.3663C4.99788 20.5026 5.1801 19.7165 5.4097 19.0069L5.64003 19.2948L4.86304 21.3663ZM3.76971 27.0924L3.65491 26.8628C3.53974 26.6897 3.74055 25.5672 4.25879 23.4954C4.06673 25.0304 3.90419 26.2294 3.76971 27.0924ZM3.33821 25.4524C3.18441 24.666 3.27625 23.0107 3.61154 20.4887C3.94683 17.9657 4.37395 16.1672 4.89183 15.0928C5.14147 14.537 5.13163 14.4503 4.86267 14.834C3.69281 16.8293 3.0113 19.774 2.82033 23.6681C2.78134 25.0304 2.85823 26.0137 3.04993 26.6179C3.24199 27.2222 3.46248 27.5728 3.71176 27.6683C3.84588 27.7448 3.98983 27.7353 4.14435 27.6391C4.12686 27.6344 4.03502 28.1566 4.05507 28.2721C3.5412 28.0414 3.164 27.6511 2.93477 27.107C2.70444 26.5603 2.48869 25.846 2.28715 24.963C2.08561 24.081 2.00434 23.0256 2.04297 21.7978C2.13882 20.34 2.34911 18.9202 2.67565 17.5386C3.15525 15.6205 4.13342 13.7983 5.61087 12.0719C5.93705 11.7075 6.13859 11.6207 6.21585 11.8124C6.29238 12.5796 6.28728 13.323 6.20127 14.0428C6.11526 14.7626 5.92794 15.5625 5.64003 16.4456C4.8911 18.9398 4.44101 20.6185 4.28722 21.4822C3.99931 22.499 3.68297 23.8226 3.33784 25.4535L3.33821 25.4524ZM4.191 28.2149V27.7546C4.91989 26.9682 4.83424 26.2203 5.10211 25.5097L6.11308 22.9203L7.28658 20.1862C7.91962 18.9581 8.8136 17.5586 9.94519 15.9849C10.6158 15.1988 11.2171 14.7764 11.7346 14.7189C11.8695 14.9109 11.8716 15.3042 11.7372 15.8986C11.603 16.4933 11.3738 17.1169 11.0476 17.7689C11.0258 17.7769 10.9992 17.7886 11.0287 17.8046C9.78848 20.0886 8.58619 21.7453 7.42215 22.7756L9.40691 19.5528L10.3545 17.8265C10.7189 17.1741 10.7816 16.9438 10.5513 17.1358C8.61388 20.0514 7.44402 21.8838 7.0599 22.6316C6.6765 23.3802 6.28363 24.0803 5.91992 24.7327C5.55548 25.385 5.18848 25.8934 5.07368 26.2579C4.95888 26.6223 4.91952 27.2747 4.19064 28.2149H4.191ZM11.9136 29.395C11.8552 30.2587 11.6635 31.3327 11.3377 32.6181C11.3184 31.5623 11.2707 30.8524 11.1938 30.4876L11.4525 29.7685C11.4722 29.5193 11.4234 29.5098 11.3086 29.7401L11.1362 30.0561L11.107 29.4803L11.5389 28.9336C11.8268 28.6464 11.9518 28.7995 11.9132 29.3946L11.9136 29.395ZM11.4817 27.841C11.731 27.7838 11.7787 27.8993 11.6256 28.1865L11.079 28.9919C11.0485 28.711 11.0004 28.4322 10.935 28.1573C11.1069 28.0351 11.2899 27.9289 11.4817 27.841ZM9.20829 29.1938C9.611 27.6012 9.99476 26.7575 10.3592 26.6617C10.5706 27.2182 10.7433 28.2492 10.8774 29.7551C11.0116 31.2617 11.0116 32.6185 10.8774 33.8277C10.7047 35.362 10.4459 36.397 10.1004 36.9353L9.72653 37.74C9.72653 36.5505 9.74111 35.5818 9.76917 34.8343C9.79832 34.085 9.82675 33.0923 9.85554 31.8553C9.8847 30.6177 9.9656 29.2124 10.0997 27.6395C10.1763 27.2557 10.158 27.1693 10.0425 27.3807C9.73528 28.9733 9.55305 31.016 9.49584 33.5106L9.46668 35.1499L9.4091 37.3949L9.03482 36.9626C8.76622 35.6197 8.65106 34.2104 8.68932 32.7333C8.74763 31.6392 8.92002 30.4599 9.20756 29.1934L9.20829 29.1938ZM6.66193 34.0136C6.97826 32.6032 7.70205 31.141 8.83401 29.6249C8.64231 30.4114 8.53662 30.9967 8.51694 31.3797C7.67326 32.8382 7.0209 34.2873 6.56061 35.7261C6.44581 36.1671 6.34923 36.6944 6.2727 37.3078C6.21585 36.5224 6.34559 35.4236 6.66156 34.0139L6.66193 34.0136ZM8.54683 36.416L7.91379 35.6106L8.37408 34.4597C8.35683 35.1162 8.41479 35.7726 8.54683 36.416ZM14.3597 48.3005L14.762 47.1496L16.0857 48.0133L14.3593 48.3012L14.3597 48.3005ZM17.5245 47.7257L15.3663 46.4302L13.3808 45.1061L13.0069 44.6167C12.8917 44.4826 12.7336 44.4545 12.532 44.531C12.3305 44.6076 12.1723 44.4928 12.0568 44.1863C11.5393 44.4931 11.0108 44.378 10.4744 43.8401L9.52499 42.6902L8.6332 41.1647L8.31613 40.934C8.13749 41.0492 7.92238 41.0939 7.71262 41.0594C7.33724 41.0098 6.9072 40.7605 6.47497 40.302C6.20637 40.0513 5.63055 39.064 4.74824 37.3373C3.57837 35.1116 2.78207 33.4341 2.36004 32.3018C2.05318 31.3615 1.85164 30.7675 1.75579 30.5178C1.65958 30.2682 1.62095 30.2635 1.64026 30.5033C1.65958 30.7427 1.80354 31.2806 2.07213 32.1152C2.34036 32.9498 2.83928 34.1725 3.56853 35.7837C4.20157 37.0884 4.82586 38.2779 5.43922 39.3516C4.01935 37.8165 2.99308 36.3777 2.35968 35.0347C1.727 33.7104 1.30461 32.4836 1.09396 31.3517C0.998116 30.9486 0.94017 30.3294 0.920854 29.4952C0.901903 28.6606 0.911379 28.196 0.95001 28.0994C1.04549 27.8115 1.17961 27.6876 1.35272 27.7255C1.46752 27.7255 1.73174 27.9988 2.14356 28.5455C2.55647 29.0921 3.11735 30.3203 3.82729 32.2293C4.53722 34.1368 4.97346 35.389 5.13673 35.9848C5.278 36.5094 5.44117 37.0279 5.62581 37.5388C5.78909 37.9798 5.98552 38.431 6.21621 38.8909C6.56098 39.5812 6.90647 40.0513 7.25196 40.3013C7.70751 40.6238 8.03916 40.6811 8.25782 40.4719L7.20458 38.5895C7.10983 38.5476 7.00159 38.5396 6.87768 38.5742C6.85654 38.576 6.84378 38.568 6.8241 38.568C6.82301 38.568 6.82265 38.5753 6.82228 38.5753C6.77855 38.5742 6.74757 38.5589 6.7093 38.5527C6.66557 38.5454 6.6171 38.5418 6.58102 38.5265C6.54713 38.5119 6.52526 38.4842 6.49793 38.4623C6.46513 38.4368 6.42868 38.4164 6.40499 38.3803C6.38386 38.3483 6.37584 38.3023 6.36272 38.263C6.34887 38.2222 6.32846 38.1875 6.32263 38.1391C6.31044 38.0254 6.31326 37.9106 6.33101 37.7976C6.36928 37.4528 6.49428 36.8584 6.70493 36.0136C7.12769 34.5938 7.7312 33.1845 8.51803 31.7843C8.42255 32.3976 8.37444 32.9151 8.37444 33.3383C7.66451 34.9301 7.14627 36.2159 6.82046 37.1933C6.64771 37.904 6.65719 38.2488 6.84961 38.2298L7.07921 38.1147L6.90683 37.7123L7.02127 37.3952L7.36676 38.0002L7.5683 37.8555L7.74104 38.1143L7.56793 38.3741L8.8628 40.2437L9.17986 39.9857L9.40946 40.2437C9.02607 40.6286 8.87227 40.8779 8.94917 40.9927C9.29539 41.625 9.611 42.1334 9.89891 42.5186C10.4747 43.3615 10.9449 43.6021 11.3093 43.238C11.4241 43.1421 11.5681 43.1615 11.7408 43.2956C11.9136 43.4297 12.1053 43.7172 12.3166 44.1578L12.2875 43.496L11.2233 42.4891L10.6183 41.2809C10.1198 40.5717 9.76552 40.0247 9.55415 39.6409C9.2974 39.1766 9.03376 38.7162 8.76331 38.2597C8.44624 37.7221 8.05811 37.1175 7.59782 36.4466L7.68419 36.1295L8.60514 37.252C9.43024 38.3071 10.0101 39.1085 10.3457 39.6555C10.681 40.2022 10.8778 40.3312 10.9361 40.0436L11.1085 39.497L11.3673 39.6413L11.1945 40.7638L11.1369 41.1082C11.1172 41.3768 11.1705 41.5353 11.2951 41.5841C11.4197 41.6315 11.5302 41.809 11.626 42.1155C11.6836 42.3072 11.9857 42.7059 12.5327 43.3102C13.0794 43.9144 13.6552 44.4232 14.2591 44.835C14.7553 45.1748 15.2541 45.5109 15.7555 45.843C16.1491 46.1018 16.3364 46.3554 16.3168 46.6047L16.8634 46.7195L16.7202 46.0296L17.0653 45.9422C17.2381 46.0577 17.3824 46.2702 17.4972 46.5763C17.9957 46.9597 18.4272 47.2665 18.7917 47.4961L17.5249 47.7276L17.5245 47.7257ZM8.08617 38.373L8.25928 38.201L9.0647 39.5531L8.97796 39.7255L8.08617 38.373ZM9.43825 41.0787L9.75532 40.6749L10.5035 41.7409L10.9358 42.5182L11.0797 42.949C10.8118 42.8149 10.5815 42.6137 10.3891 42.3447L9.92879 41.7416L9.43935 41.079L9.43825 41.0787ZM19.4532 47.3799L18.2151 46.5173C17.8526 46.0837 17.4882 45.6517 17.1218 45.2213C16.8922 44.9534 16.6714 44.7614 16.4607 44.6466C16.1531 44.4742 15.9042 44.417 15.7121 44.4742C15.578 44.5121 15.4344 44.7038 15.2806 45.0489L15.2231 44.9917C15.2996 44.6655 15.4199 44.464 15.5828 44.3867C15.7457 44.3102 15.9523 44.3299 16.2016 44.445L17.5828 45.1065L19.9422 45.9983C20.5181 46.6131 20.8723 47.0348 21.0064 47.2647C20.4904 47.3252 19.9724 47.3636 19.4532 47.3799ZM20.201 53.3943C19.3956 54.1815 18.4845 54.9286 17.4677 55.6393L17.1214 55.5245C17.7166 55.1589 18.561 54.5649 19.6543 53.7394L20.1438 53.1928L19.885 53.1647C19.4859 53.518 19.0678 53.8494 18.6328 54.1574C18.1627 54.4942 17.6211 54.8149 17.0074 55.1217L16.1721 55.5252L16.3164 55.6979L16.9498 55.7832C17.3142 56.0139 17.4673 56.2453 17.4101 56.4749C17.2184 56.7628 16.9115 56.8007 16.4899 56.5897L15.7992 56.2154C15.5496 55.9662 15.3 55.7938 15.051 55.6979L14.7631 55.4683L14.8779 55.2067L15.7417 55.5791H16.0004L15.8565 55.0339L16.8926 54.3878C17.1608 54.293 17.2763 54.1217 17.2377 53.8921L17.3241 53.3702C17.7651 53.4661 18.2447 53.3921 18.7629 53.1527C19.2804 52.9129 19.7699 52.7736 20.2301 52.735C20.5181 52.9267 20.5086 53.1468 20.2017 53.3958L20.201 53.3943ZM32.2294 8.5605L32.2877 7.89903L31.7404 8.01383C31.2228 8.18694 30.7042 8.03315 30.1867 7.55354C29.8405 7.61112 29.6969 7.47701 29.7545 7.15083C29.8886 6.86292 29.8503 6.70985 29.6397 6.69018L28.8051 6.77655C28.2672 6.70002 27.913 6.54622 27.7399 6.31626C27.6247 6.1242 27.7016 5.88439 27.9706 5.59685C27.4523 5.38547 27.1309 5.15587 27.0062 4.90623C26.8816 4.65658 26.9581 4.45577 27.2358 4.30198C27.5143 4.14891 28.0278 4.11976 28.7763 4.21597C28.604 4.00459 28.5555 3.78411 28.6327 3.55414C28.6517 3.32454 29.1503 3.44845 30.1288 3.92806L30.7046 4.27355C30.8577 3.98564 31.1164 3.89963 31.4816 4.0148C31.9199 4.22395 32.3347 4.47929 32.7189 4.77648C33.103 5.07423 33.5338 5.501 34.0141 6.0575C34.4172 5.78854 34.7051 5.84612 34.8778 6.22952L34.9635 6.92014C34.5418 6.51743 34.0239 6.48864 33.4095 6.83413L33.0075 6.66175C32.4499 5.99044 32.1146 5.48205 31.9987 5.13583C31.8839 4.69485 31.8264 4.65695 31.8264 5.02139C31.8453 5.40515 32.0753 5.8946 32.5166 6.489C31.6729 6.22077 31.0534 5.87528 30.6605 5.45289C30.2676 5.03087 29.9651 4.67663 29.7545 4.38872C29.5438 4.04322 29.4575 4.04322 29.4957 4.38872C29.7253 4.81074 30.0424 5.20398 30.4448 5.56842C30.1386 5.43358 29.85 5.29982 29.5818 5.16535C28.9101 4.87816 28.3536 4.72437 27.9126 4.70542C27.7012 4.70542 27.6921 4.74368 27.8842 4.82022C28.6327 5.01228 29.1743 5.18976 29.5096 5.3523C29.846 5.5163 30.0708 5.66427 30.1864 5.79875C29.6601 6.02698 29.0897 6.13529 28.5165 6.11581C28.152 6.09613 27.9895 6.10597 28.0274 6.14424C28.0657 6.18251 28.1805 6.22077 28.3725 6.25904C29.0632 6.3363 29.7632 6.25977 30.4732 6.02944C30.9914 6.29803 31.5957 6.55679 32.2867 6.80643C31.8639 6.90228 31.4521 7.09434 31.049 7.38225C30.8959 7.57395 30.9725 7.58343 31.2786 7.41141C31.5862 7.18072 32.0461 7.03676 32.6598 6.97918L33.1497 7.18035C33.1121 7.69859 33.2364 8.2263 33.5239 8.76349L33.2076 8.87829L32.2291 8.56123L32.2294 8.5605ZM35.5105 11.6389C34.4354 11.6583 34.2197 11.6317 34.1584 11.4669C34.1183 11.3394 34.0957 11.2228 34.474 11.0066L34.6683 10.6797C34.044 10.3944 33.4678 10.0554 33.4376 9.28027L33.9558 9.07837C34.1854 8.80978 34.1912 8.60824 33.9704 8.4734C33.7495 8.33928 33.6293 7.98431 33.6103 7.40922C33.8217 6.94893 34.3392 6.94893 35.165 7.40922C35.5295 6.69929 35.9704 6.48827 36.488 6.77618C35.9325 6.77618 35.606 7.01599 35.5098 7.49559C35.4522 7.80246 35.4522 8.1771 35.5098 8.61808C35.3194 8.3511 35.0859 8.1177 34.8188 7.92746C34.3006 7.65923 34.2047 7.68766 34.5309 8.01347C34.8454 8.3255 35.1342 8.66236 35.3946 9.02079C34.9719 9.36592 34.5127 9.52008 34.0134 9.48145C33.8406 9.55798 33.8694 9.60609 34.0994 9.6254C34.329 9.68371 34.5987 9.66403 34.9048 9.56818C34.8669 9.87504 34.9679 10.3845 35.1016 10.6907C35.2838 10.9531 35.5266 11.1845 35.8115 11.3948C35.6778 11.433 35.5681 11.5041 35.5105 11.6389ZM36.1144 12.1867C36.0951 11.9564 36.2966 11.827 36.7186 11.7982C37.1403 11.7698 37.2077 11.6499 36.9202 11.4389C36.3743 11.2541 35.8943 10.914 35.5389 10.4603C35.2897 10.1338 35.2897 9.90384 35.5389 9.76936L35.9708 9.65456L36.1727 9.39507L35.914 8.38775C35.8374 7.87024 35.981 7.5058 36.3451 7.29442C36.8633 7.21789 37.3717 7.37095 37.8703 7.75508C37.8896 7.48648 38.0671 7.40521 38.4035 7.5109C38.7388 7.61659 39.0504 8.3309 39.3379 9.65456L39.7982 9.82694C39.9513 9.46249 40.0763 9.28027 40.1725 9.28027C40.3255 9.28027 40.4793 9.59661 40.6328 10.23C41.0169 10.5748 41.1991 11.1411 41.1794 11.9272C40.9305 12.2534 40.7957 12.6561 40.7774 13.1361L40.5468 12.6178C40.4108 12.0236 40.3528 11.4143 40.374 10.8051C40.3547 10.5369 40.3259 10.5369 40.288 10.8051C40.2304 11.3616 40.2206 11.8314 40.2588 12.2155C39.7577 11.5624 39.1991 10.9555 38.5897 10.402C38.4749 9.98 38.4366 9.5004 38.4749 8.96321C38.4173 8.50292 38.3692 8.39759 38.3309 8.64614C38.2927 9.22196 38.3116 9.75915 38.3882 10.2581C37.9472 9.8171 37.4297 9.17422 36.8342 8.33017C36.6811 8.06157 36.614 8.00399 36.633 8.15742C36.9974 8.84804 37.3812 9.4235 37.7835 9.88416C38.1866 10.3448 38.5124 10.7093 38.7624 10.9775C38.2639 10.8244 37.832 10.7235 37.4679 10.6757C37.1176 10.632 36.7771 10.5297 36.4606 10.3732C36.1727 10.3157 36.1822 10.3827 36.4887 10.5744C36.6625 10.6896 37.0127 10.7953 37.5397 10.8915C38.0674 10.9873 38.5613 11.1502 39.0219 11.3806C39.2716 11.5336 39.6072 11.9272 40.0292 12.5603L40.3747 13.3373C39.8372 13.0493 39.2428 12.8482 38.5904 12.733C37.9388 12.6178 37.5547 12.5125 37.4399 12.4159C36.9406 12.2053 36.883 12.2246 37.2668 12.4743C37.3816 12.5891 37.7894 12.7184 38.4895 12.8624C39.1899 13.0063 39.8656 13.2797 40.518 13.6824L40.5752 13.8548C40.4411 14.0086 40.393 14.2192 40.4312 14.4878L40.6328 15.0636C40.4604 14.8522 40.2209 14.9488 39.9137 15.3515C40.0285 15.1019 39.9997 14.8719 39.8273 14.6609C39.5591 14.2582 38.9068 13.8263 37.8703 13.366L37.6979 13.6831C36.8539 13.4134 36.3265 12.9152 36.1155 12.1863L36.1144 12.1867ZM43.1212 26.5312C42.9207 26.2342 42.6321 25.7786 42.2585 25.1645C41.885 24.5504 41.6113 24.0519 41.4385 23.6685C41.2667 23.299 41.2359 22.8794 41.3518 22.4888C41.4666 22.0857 41.5632 21.7789 41.6397 21.5678C41.7163 21.3565 41.7071 21.3182 41.6113 21.4527C41.3806 21.8554 41.2177 22.249 41.1218 22.6324L40.546 20.9917C40.6036 20.3393 40.9491 19.5055 41.5825 18.4887C41.7742 18.1432 41.7552 18.1144 41.5242 18.4019C40.9495 19.1691 40.5752 19.9464 40.4028 20.7329L39.5114 18.7474C39.4921 18.383 39.722 17.692 40.202 16.6756C40.4509 16.138 40.3933 16.1573 40.0285 16.7331C39.7217 17.309 39.5015 17.8458 39.3667 18.344C39.0985 17.2506 38.8397 16.3202 38.5897 15.5531L38.3882 15.4955L38.5033 15.8126C38.6564 16.771 38.8678 17.6056 39.136 18.3163C38.7716 17.9897 38.359 17.7211 37.8987 17.5109C37.6491 17.376 37.6491 17.4052 37.8987 17.5969C38.4548 17.923 38.8776 18.2492 39.1648 18.5754C39.3951 19.1126 39.6065 19.6017 39.7978 20.043C39.4534 19.7934 38.8685 19.5062 38.0434 19.1793C37.7362 19.1221 37.7362 19.1603 38.0434 19.2948C39.0791 19.7168 39.7217 20.1294 39.9713 20.5321L40.5471 22.0573C40.3357 22.0573 40.0573 21.7409 39.7125 21.1079C39.4239 20.5704 38.7045 20.0525 37.5539 19.5536C37.3243 19.4577 37.2179 19.2565 37.2376 18.9493C37.2759 18.7379 37.4964 18.6519 37.8994 18.6906C37.7843 18.364 37.6498 18.1053 37.4967 17.9132L37.2671 17.5684C36.9595 16.9354 37.1414 16.6191 37.8131 16.6187C37.5638 16.2349 37.4778 15.9379 37.5543 15.7269C37.535 15.3625 37.6214 15.0079 37.8131 14.6627C37.9244 14.4425 38.0114 14.2108 38.0726 13.9717C38.437 14.1831 38.7675 14.3602 39.0657 14.5038C39.3623 14.6482 39.5212 14.912 39.5402 15.2947L39.3966 16.1876C39.4538 16.3599 39.6072 16.302 39.8565 16.0145C40.1058 15.669 40.3073 15.4678 40.4607 15.4095C40.6721 15.5057 40.8737 15.6784 41.065 15.9277C41.2567 16.2922 41.1896 16.9638 40.8638 17.942L40.5468 18.7474C41.1991 17.8837 41.7268 17.4719 42.1295 17.5101C42.2636 17.606 42.307 17.8028 42.2593 18.0998C42.2111 18.4097 42.2111 18.7251 42.2593 19.035C42.3067 19.3608 42.1966 19.6392 41.9284 19.8695C41.6601 20.0991 41.4772 20.4734 41.3817 20.9913C41.9954 20.531 42.2443 20.6174 42.1295 21.25L41.7848 22.4881C41.6889 23.0821 41.7848 23.3609 42.0727 23.3226C42.3606 23.2844 42.5377 23.3226 42.6055 23.4374C42.6722 23.5522 42.6868 23.7545 42.6481 24.0424C42.475 24.4448 42.3985 24.7086 42.4178 24.8332C42.4371 24.9579 42.4892 25.0636 42.5756 25.1503C42.6631 25.2363 42.8497 25.217 43.1376 25.092C43.4255 24.9681 43.5691 25.0541 43.5691 25.3508C43.5691 25.6489 43.5742 25.9364 43.5837 26.2145C43.5931 26.4929 43.6839 26.7666 43.857 27.0345C43.9918 27.2269 44.1639 27.3516 44.3745 27.4088L44.6343 27.0917C44.2499 27.1114 44.0724 26.8621 44.1015 26.3439C44.1296 25.8264 44.1252 25.4233 44.087 25.1354C43.9339 24.7709 43.7801 24.569 43.6263 24.5304C43.4732 24.4921 43.1179 23.5329 42.5621 21.6528L43.166 21.6819C43.607 23.2927 43.9627 24.1612 44.2309 24.2859C44.4991 24.4098 44.6245 24.5537 44.6052 24.717C44.5855 24.8799 44.6336 25.2301 44.7488 25.7673C45.0935 25.6711 45.2954 25.3548 45.353 24.8176C45.4489 24.3183 45.3049 23.9349 44.9208 23.6659C44.5185 23.4363 44.2878 23.225 44.2302 23.0329C44.1157 22.7067 44.24 22.5056 44.6048 22.4287C44.8155 22.3139 44.3071 21.8528 43.0796 21.0474C42.4466 20.6064 42.2538 20.2128 42.5038 19.8677C42.5997 19.6953 42.7771 19.7001 43.0359 19.8823C43.2947 20.0645 43.463 20.1082 43.5396 20.012C43.6737 19.7434 43.5687 19.5565 43.2236 19.4508C42.8774 19.3451 42.7148 19.2248 42.7341 19.0911C42.7148 18.497 42.7243 18.094 42.7626 17.8826C42.8008 17.6712 42.7819 17.4227 42.7053 17.1348C42.494 16.8279 42.0913 16.8468 41.4965 17.1923C41.6313 16.8662 41.6641 16.5495 41.5971 16.2426C41.5297 15.9357 41.381 15.6383 41.151 15.3504L40.8631 14.4583C40.7866 14.1511 40.9593 13.9408 41.3806 13.8252C41.2468 13.2305 41.2468 12.8084 41.3806 12.5588C41.5154 12.2902 41.6117 12.0697 41.6692 11.897C41.7265 11.7242 41.8988 11.7053 42.1867 11.8394C42.4747 11.9735 42.9349 12.4819 43.568 13.3646C43.8756 13.0191 44.1722 13.1441 44.4609 13.7385C44.8053 14.2753 44.9394 14.9182 44.8629 15.6664C45.5724 15.2827 45.8213 15.5414 45.6111 16.4434C45.9183 17.0764 46.1049 17.5703 46.1723 17.9252C46.2418 18.2662 46.18 18.621 45.9992 18.9183C45.817 19.2245 45.731 19.4599 45.7404 19.6235C45.7499 19.7864 45.817 19.7817 45.942 19.609C46.0666 19.4362 46.321 19.2919 46.7048 19.1771C46.9544 19.7143 47.0601 20.0692 47.0218 20.2413C47.0218 20.4526 46.8917 20.683 46.6333 20.9322C46.3746 21.1815 46.2251 21.4789 46.1869 21.824C46.1869 21.9968 46.2729 22.0828 46.4456 22.0828L46.9631 21.9388C47.2317 21.9006 47.2416 22.1116 46.9923 22.5719C46.7241 23.0701 46.5273 23.4921 46.4026 23.8376C46.278 24.1831 46.2153 24.4608 46.2153 24.6722C46.196 25.1131 46.1195 25.3726 45.9857 25.4495C46.023 24.8691 46.0084 24.2864 45.942 23.7086C45.8745 23.1036 45.7546 22.4279 45.5823 21.6794C45.7361 21.5452 45.9474 21.0944 46.2157 20.3273C46.3498 19.9435 46.3214 19.8954 46.1297 20.183C45.9183 20.7588 45.7069 21.1134 45.4966 21.2471C45.286 20.5379 45.0549 19.6746 44.8056 18.6578C45.0928 18.1785 45.2758 17.5743 45.3523 16.845C45.3716 16.2309 45.333 16.1832 45.2375 16.7011C45.122 17.4307 44.911 17.9963 44.6045 18.3994C44.3678 17.6307 44.0991 16.8722 43.799 16.126C43.8945 15.7233 43.9328 15.2531 43.9135 14.7156C43.8942 14.1791 43.8464 14.1598 43.7695 14.6584C43.7695 15.0611 43.7211 15.4066 43.6252 15.6945L42.9929 14.0829L42.5902 13.1623C42.4561 12.8555 42.408 12.8555 42.4462 13.1623L42.8198 14.3708C42.5319 14.0446 42.2633 13.8052 42.0144 13.6514C41.7647 13.4983 41.717 13.5074 41.87 13.6806C42.2928 14.045 42.6565 14.4379 42.9634 14.8599C43.2195 15.4905 43.4692 16.1237 43.7123 16.7594C42.9823 16.1453 42.4743 15.8002 42.186 15.7236C41.8216 15.5888 41.8216 15.6566 42.186 15.9248C42.7043 16.251 43.318 16.8268 44.0279 17.6515C44.2513 18.303 44.4719 18.9553 44.6897 19.6086C44.3253 19.3972 43.8843 18.9756 43.3657 18.3422C43.1354 18.1126 43.1259 18.1505 43.3366 18.457C43.7476 19.0775 44.2414 19.639 44.8042 20.1261L45.2364 21.8813C44.7947 21.4403 44.2196 20.9891 43.5089 20.5292C43.2028 20.3371 43.1835 20.3754 43.4521 20.6436C44.0662 21.0846 44.7087 21.7369 45.38 22.6007C45.5717 23.1382 45.6584 24.1259 45.6388 25.5647C45.6198 25.9291 45.3516 26.1981 44.8333 26.3701L44.7185 27.7521L43.9991 27.7812C43.7019 27.3675 43.4094 26.9503 43.1219 26.5297L43.1212 26.5312ZM44.06 27.8811C44.1748 27.8432 44.4335 27.8749 44.6832 27.8749C44.4146 29.3327 44.1048 30.93 43.8559 31.9275L43.4525 31.6972C43.798 30.3159 43.9835 28.7645 44.0596 27.8815L44.06 27.8811ZM38.949 36.0854C38.8433 35.9998 38.5219 35.7356 37.9854 35.2946C37.5055 34.8729 37.352 34.4892 37.5244 34.143C37.3818 33.956 37.2611 33.7532 37.1647 33.5387C37.059 33.3091 37.0831 33.0839 37.2369 32.863C37.3899 32.6422 37.7449 32.7428 38.3011 33.1655C38.3973 32.839 38.3973 32.5321 38.3011 32.2446C38.2048 31.957 38.0908 31.6698 37.9567 31.3808C37.7063 30.9209 37.4668 30.5273 37.2365 30.2015C37.0251 29.7605 36.977 29.5109 37.0922 29.4533C37.207 29.3957 37.3896 29.4726 37.6389 29.6836C38.1185 29.1661 38.4352 29.0167 38.5882 29.2375C38.742 29.458 38.867 29.8279 38.9625 30.3455C39.0584 30.8637 39.0682 31.4005 38.9917 31.9574L38.8765 32.0725L38.9913 32.1877C39.0288 32.3025 38.9815 32.7344 38.847 33.4822C38.847 33.6353 38.8944 33.7902 38.9909 33.9436C38.9523 33.7122 38.9425 33.5398 38.9618 33.4246C38.9811 33.3288 39.0438 33.1039 39.1491 32.749C39.2544 32.394 39.3069 32.1932 39.3069 32.1447C39.3069 32.0973 39.3131 32.0627 39.1597 32.0438C39.3321 31.9865 39.3601 31.9053 39.4082 31.7996C39.4563 31.6939 39.4655 31.5893 39.4374 31.4832C39.4082 31.3783 39.3889 31.0751 39.3791 30.5772C39.37 30.078 39.3222 29.6989 39.2355 29.4402C39.1498 29.1814 39.097 28.9799 39.0773 28.8359C39.058 28.692 38.9432 28.6107 38.7326 28.5918C38.5212 28.5724 38.2238 28.7834 37.8397 29.2244C38.0131 28.3997 38.1903 27.8479 38.3729 27.5699C38.5551 27.2914 38.742 27.2101 38.9341 27.3257C39.1254 27.4401 39.2501 27.5651 39.3073 27.6992C39.3649 27.833 39.4516 27.8086 39.5668 27.6271C39.6812 27.4448 39.7771 27.3829 39.854 27.4397C39.9305 27.4981 40.0125 27.6125 40.0989 27.7849C40.1849 27.958 40.2475 28.1398 40.2862 28.3315C40.3241 28.5236 40.3576 28.8735 40.386 29.3822C40.4152 29.8906 40.3532 30.2314 40.1994 30.4038C40.0453 30.5772 39.9687 30.7883 39.9687 31.0372C40.007 32.035 40.0835 32.5285 40.1994 32.5194C40.3142 32.5091 40.4531 32.4319 40.6167 32.289C40.78 32.1447 40.924 32.0922 41.0486 32.1305C41.1732 32.1688 41.2454 32.4476 41.2647 32.9651C41.284 33.4826 41.3318 33.5362 41.4087 33.1236C41.4852 32.7107 41.6295 32.5051 41.8405 32.5051C42.0519 32.5051 42.0902 33.0609 41.9553 34.1743C41.2071 34.8449 40.6703 35.4017 40.3445 35.8427C40.2293 35.3638 40.2242 35.0278 40.3299 34.8358C40.4356 34.6437 40.5304 34.4287 40.6178 34.1885C40.7038 33.948 40.7756 33.7322 40.8336 33.5405C40.9866 33.0806 40.9582 33.0423 40.7468 33.4257C40.632 33.6561 40.5307 33.8583 40.4454 34.0307C40.3587 34.2031 40.2581 34.3755 40.143 34.5493C40.1043 34.2413 39.9797 33.6943 39.769 32.9086C39.5963 32.3721 39.5485 32.3812 39.6251 32.937C39.7781 33.8394 39.8838 34.7118 39.9407 35.5566C39.6365 35.2308 39.3043 34.9324 38.9479 34.6648C38.6273 34.4284 38.3332 34.158 38.0707 33.8583C37.8593 33.7242 37.8207 33.7435 37.9559 33.9155C38.1855 34.2224 38.5263 34.5825 38.9764 34.9954C39.4283 35.4072 39.7016 35.6805 39.7971 35.8147C39.8933 35.9495 39.9502 36.065 39.9698 36.1609C39.7971 36.3905 39.5963 36.631 39.3656 36.8803C39.2315 36.803 39.1542 36.6726 39.136 36.4914C39.116 36.3074 39.0533 36.1733 38.9479 36.0869L38.949 36.0854ZM28.6331 46.6033C28.8627 46.3347 29.1601 46.0956 29.5249 45.8835C31.1554 45.0781 32.2393 44.6079 32.7757 44.4742C32.8723 44.4359 32.959 44.464 33.0356 44.5595L33.2652 44.8485L32.9496 45.0489C32.7575 45.202 32.5173 45.2701 32.2294 45.2512C31.9798 45.2319 31.6449 45.3139 31.2225 45.4954C30.8012 45.6776 30.5701 45.932 30.5319 46.2581C30.4553 46.4877 30.3496 46.6324 30.2155 46.69C29.8353 46.8986 29.4514 47.1003 29.0639 47.295L28.1725 47.2367L28.6338 46.6025L28.6331 46.6033ZM31.0785 47.561H30.9349L30.9313 47.4929C30.8314 47.5322 30.7283 47.5424 30.6179 47.5851L29.6689 47.4531L30.6758 46.9568L30.9317 47.4349C30.9776 47.4156 31.0198 47.3967 31.0629 47.3788L30.9353 46.8915C30.8391 46.5657 30.9546 46.264 31.2801 46.0715C31.5873 45.8408 31.9229 45.7246 32.2877 45.7629C32.4408 45.7818 32.4506 46.0373 32.3169 46.5756C32.2192 46.8015 31.7994 47.1302 31.0632 47.4382L31.0793 47.561H31.0785ZM26.8776 51.2656L26.7336 50.8038L25.9574 51.7827L25.3232 52.1851C25.0361 52.4343 24.7387 52.5298 24.4318 52.4723L23.4245 51.9839L23.942 51.7251L24.086 51.8396C23.9901 52.1275 24.1053 52.0889 24.4322 51.7248L25.3236 50.861C25.3812 50.3435 25.2565 49.6766 24.9497 48.8614C24.6428 48.0461 24.4125 47.5337 24.2591 47.3216C24.2208 47.1488 23.7795 47.1102 22.935 47.2064C23.4343 46.9568 24.0193 46.9378 24.6906 47.1488L25.3812 47.4367L25.7566 47.2764L25.7034 47.2254L25.0645 46.9192L25.41 46.9484L25.7034 47.2254L25.785 47.2636L25.7573 47.2764L25.9577 47.4659C26.9355 48.521 27.4866 49.2407 27.6123 49.6234C27.7362 50.0075 27.7508 50.3814 27.6546 50.7459C27.2901 51.227 27.0314 51.3982 26.8776 51.2649V51.2656ZM33.7557 55.4078L34.0721 55.4669L33.9573 55.6101L33.2091 55.8397C32.8816 56.1283 32.4847 56.327 32.0574 56.4163L31.5691 56.3288L31.4535 55.9844C31.5614 55.8177 31.717 55.6873 31.9 55.6101C32.0822 55.5336 32.3176 55.4669 32.6052 55.4078L33.2958 55.5245L33.7557 55.4078ZM32.6908 55.2493C32.1726 55.2493 31.8471 55.5784 31.7123 55.5784H31.3096C30.7531 54.8495 30.3125 54.683 29.9866 54.3575L28.6338 53.2132C28.8831 53.0798 29.4199 53.1665 30.2447 53.3968L32.6908 55.2493ZM36.8061 49.236C37.3622 49.2834 37.7843 49.2604 38.0726 49.1649C38.5901 48.9536 39.655 48.1671 41.2665 46.8048C42.8202 45.6342 44.134 44.8186 45.2087 44.3594C45.5349 44.1673 45.5495 44.0277 45.2514 43.9414C44.9547 43.8554 44.5079 43.812 43.9138 43.812C43.7214 43.9651 43.7404 44.0908 43.9711 44.1863C44.2397 44.167 44.4314 44.1863 44.5469 44.2435C43.2615 44.9141 42.1867 45.5865 41.3237 46.257C41.4003 45.8161 41.4673 45.058 41.5249 43.984C41.5092 43.6484 41.3886 43.3262 41.1802 43.0627C41.046 42.871 41.21 42.6983 41.7086 42.5452L42.0942 42.4304V43.0627L41.5657 42.9195L41.6321 43.2074C41.7469 43.4177 41.9622 43.5623 42.2698 43.6389L43.8249 43.7249L44.5166 43.6968C45.3221 43.7158 45.7167 43.9118 45.6974 44.2865C45.6763 44.639 45.7052 44.9927 45.7831 45.3372C45.9179 46.1619 46.2445 46.9488 46.7627 47.6966C46.6483 48.0414 46.3983 48.4455 46.0156 48.9051L44.5177 49.884C43.2334 50.8038 41.487 52.0039 39.2807 53.481C37.7081 53.5193 35.8185 53.3943 33.6118 53.1067C32.0191 52.8954 30.1878 52.493 28.116 51.8979L27.6549 51.7831L27.8565 51.5808C28.183 51.1595 28.3605 50.8767 28.3893 50.7324C28.4185 50.5881 28.3631 50.2623 28.2377 49.7535C28.1127 49.2444 27.8805 48.6456 27.1516 47.955V47.7826L27.5901 47.725C28.78 47.8015 29.8434 47.9546 30.7731 48.1853C31.7035 48.4149 32.8129 48.6263 34.0983 48.8176C35.3458 49.0487 36.2496 49.1868 36.8061 49.2353V49.236ZM34.6479 48.4732C34.1486 48.3967 33.3432 48.2535 32.2302 48.0414L33.2379 47.6962C33.7747 47.811 34.0812 47.6962 34.1577 47.3511C34.2363 47.7565 34.4036 48.1396 34.6475 48.4729L34.6479 48.4732ZM40.6619 39.9853C40.2785 40.4063 40.1532 40.8472 40.2884 41.3083C39.7508 41.5962 39.2329 42.0178 38.7344 42.5751C38.2358 43.1308 37.8568 43.601 37.5973 43.9847C37.3386 44.3681 37.0652 44.5981 36.7773 44.6757C36.4511 44.8288 36.0776 44.7523 35.6548 44.4443L35.5404 45.1637L33.6125 46.3445L32.6628 46.7465C32.7393 46.5548 32.7874 46.229 32.8067 45.7676L33.1522 45.4804C34.4762 44.7902 35.2434 44.1564 35.454 43.5817C35.7219 43.1013 36.0102 42.7034 36.317 42.387C36.6243 42.07 36.8447 41.6815 36.9785 41.2215L37.0076 40.5313L36.9213 39.8119C37.2281 40.1566 37.5062 40.2335 37.7558 40.0415C38.1425 39.3191 38.575 38.6221 39.0507 37.955C39.5008 37.325 39.9909 36.7245 40.518 36.1572C41.0362 35.5996 41.4764 35.1295 41.8416 34.7468L41.8132 35.4659C40.6616 36.8857 39.9421 37.8544 39.6546 38.373C38.6764 39.8505 38.0146 41.0211 37.6691 41.8834C37.4577 42.3622 37.1505 42.7471 36.7482 43.035C36.4409 43.1881 36.2106 43.3513 36.0575 43.5241C35.9234 43.7734 36 43.8397 36.2871 43.7245C36.4678 43.5408 36.6831 43.3946 36.9205 43.2945C37.3433 43.082 38.2442 42.0853 39.6258 40.3013L39.5967 39.2933L39.913 38.7466C39.8937 39.3035 39.9414 39.6103 40.0569 39.6675C40.1717 39.7259 40.3303 39.5673 40.5322 39.1927C40.7333 38.8195 41.2272 37.7881 42.0136 36.1004C41.8409 36.6179 41.8314 37.0687 41.9845 37.4525C41.5242 37.7783 41.3999 38.3355 41.6113 39.1216L40.6608 39.9853H40.6619ZM47.1228 33.5959C47.0553 34.0763 46.8968 34.4888 46.6479 34.8339C45.8607 35.7341 45.5349 36.2724 45.6686 36.4448C45.88 36.8092 45.8414 37.2218 45.5538 37.6821C45.1318 38.201 44.5757 38.7754 43.8847 39.4081C44.0768 39.7933 43.9332 40.1187 43.4532 40.3877C42.8963 40.6938 42.2822 40.9624 41.6113 41.1938C42.8577 40.2536 43.6252 39.2462 43.9131 38.1719C44.3155 37.8074 44.6712 37.5676 44.9773 37.4525C45.247 37.2797 45.2944 37.2032 45.122 37.2221C44.7757 37.3562 44.4113 37.5673 44.0275 37.8548C44.392 37.1259 44.6507 36.3387 44.8045 35.4958C45.5524 34.7661 46.0229 34.1911 46.2142 33.7683C46.4824 33.366 46.4923 33.2799 46.2434 33.5095C45.9555 33.9892 45.5145 34.4979 44.919 35.0347C45.1879 34.2104 45.4277 33.2891 45.6388 32.2723C45.7342 31.6782 45.7054 31.5718 45.552 31.9563L45.2648 32.9636C45.13 32.5613 44.9769 32.2529 44.8038 32.0423L45.1777 33.2504C45.1005 33.7297 44.9182 34.4108 44.6311 35.2935C44.3621 34.5271 44.0071 33.8357 43.5658 33.2227C43.1635 32.7234 43.0957 32.714 43.3643 33.1936C43.806 33.827 44.1697 34.6612 44.4583 35.6962C44.2276 36.6175 43.959 37.3843 43.6529 37.9988C43.4218 37.654 43.1828 37.4138 42.9324 37.2793C42.7407 37.1831 42.7407 37.2407 42.9324 37.4517C43.1824 37.701 43.3832 37.9499 43.5366 38.2007C43.307 38.7561 43.0046 39.2455 42.631 39.6672C42.2567 40.0888 41.8875 40.4442 41.5224 40.7314C41.983 40.0225 42.1365 39.2357 41.983 38.3727C41.983 38.2196 42.1033 38.0942 42.3427 37.9984C42.5822 37.9025 42.6642 37.7965 42.5876 37.6813C42.3763 37.26 42.2706 36.924 42.2706 36.6747C42.4244 36.5982 42.6543 36.5982 42.9612 36.6747C43.2112 36.5024 43.1871 36.2574 42.8898 35.9415C42.5916 35.6244 42.4051 35.1689 42.3285 34.5741C42.3285 34.2293 42.5581 34.104 43.0191 34.1998C43.2305 34.1801 43.2487 33.9312 43.0767 33.452L42.5873 32.7901C42.2411 32.0223 42.3857 31.7449 43.0191 31.9556L43.7673 32.4159C44.2659 32.6072 44.5057 32.2715 44.4871 31.4089C44.4871 31.2172 44.6351 31.1735 44.9332 31.2784C45.2298 31.3841 45.5035 31.16 45.7532 30.6028C46.0028 30.3345 46.1942 30.5834 46.3283 31.3517C46.2711 32.3685 46.52 32.8481 47.0765 32.7905C47.1723 32.8481 47.1869 33.1163 47.1202 33.5959H47.1228ZM47.9858 31.1206C48.0149 31.3123 47.9712 31.4705 47.8564 31.5962C47.7416 31.7201 47.5211 31.8302 47.1949 31.9257L46.8786 31.3477C46.8979 30.8877 46.7445 30.4431 46.4179 30.0211C46.552 29.9056 46.7634 29.7842 47.051 29.669C47.2616 29.5725 47.2234 29.6782 46.9362 29.7164C46.6289 29.774 46.3888 30.067 46.2164 30.067H46.1592C46.3316 29.3381 46.61 28.7477 46.9938 28.1916C47.0896 27.9416 47.0317 27.9048 46.821 28.1734C46.4941 28.6337 46.2062 29.0863 45.9573 29.6042C45.8417 29.489 45.7554 29.2594 45.6978 28.9526C45.6213 28.5881 45.5637 28.5688 45.5254 28.9143C45.5826 29.3553 45.669 29.6676 45.7842 29.8593C45.3625 30.5116 45.0261 30.7686 44.7768 30.6341C44.9306 29.7135 45.1322 28.7434 45.3818 27.7258C45.8228 27.2849 46.2066 27.1405 46.5324 27.294C46.993 26.9295 47.3866 26.8621 47.7124 27.0924C47.8848 27.3803 47.9617 27.6628 47.942 27.9416C47.9231 28.2193 47.8276 28.5309 47.6549 28.876C48.0193 28.876 48.2114 29.0207 48.2307 29.3082C48.0765 29.9606 47.7697 30.4307 47.3094 30.7179C47.7314 30.7959 47.957 30.9289 47.9858 31.1206Z" fill="white"/>
<path fill-rule="evenodd" clip-rule="evenodd" d="M7.68582 49.4952C7.68947 49.5619 7.75616 49.5578 7.82577 49.618C8.09363 49.7977 8.35275 49.72 8.53352 49.3847C8.77696 49.0487 8.69533 48.7907 8.4271 48.6132C8.28752 48.4878 8.28752 48.4878 8.16725 48.6912L7.68618 49.4948L7.68582 49.4952ZM3.88832 46.9528C4.23199 47.197 4.43499 47.3792 4.80235 46.904C4.98457 46.6357 4.96635 46.3125 4.76444 46.1911C4.69702 46.1328 4.564 46.0734 4.564 46.0734C4.49585 46.0763 4.49949 46.1427 4.43462 46.1463L3.88796 46.9528H3.88832ZM9.34622 49.6373C9.39725 49.3738 9.449 49.177 9.24782 48.993L9.30869 48.923C9.43879 48.9831 9.58202 49.1052 9.71322 49.1635C9.84952 49.2204 9.98436 49.3432 10.1841 49.3957L10.121 49.462C10.0562 49.4019 9.85644 49.349 9.79668 49.4802C9.73727 49.6169 9.57692 50.2722 9.51751 50.473L9.31998 51.5874L10.1352 50.8972C10.257 50.7605 10.7548 50.2751 10.8131 50.1446C10.9341 49.9412 10.7985 49.8858 10.7307 49.8213L10.7235 49.6945C10.8605 49.8148 10.992 49.8749 11.0631 49.935C11.1991 49.9934 11.3292 50.0509 11.4002 50.1136L11.4039 50.1749C11.1335 49.9974 10.8885 50.3345 10.6371 50.5418L9.01786 52.0616L8.88484 51.9996L9.34695 49.6369L9.34622 49.6373ZM7.25796 50.0375C7.20075 50.1716 7.0218 50.4434 7.02837 50.5703C6.97005 50.7044 7.09943 50.7645 7.23901 50.8873L7.17706 50.9522C7.04221 50.8319 6.90518 50.7747 6.70146 50.6497C6.56771 50.5951 6.43177 50.4748 6.29802 50.4165L6.29073 50.2842C6.42485 50.3454 6.56042 50.4682 6.62238 50.3341C6.74629 50.2598 6.93215 49.9926 6.99046 49.8567L7.58888 48.8516C7.645 48.7185 7.82941 48.4514 7.88991 48.3785C7.9453 48.1832 7.81228 48.1245 7.6778 48.0669L7.74049 47.9977C7.87679 48.1208 8.0765 48.1762 8.21499 48.2972C8.34765 48.3545 8.48577 48.4784 8.61952 48.5378C8.95335 48.7127 9.23653 49.0855 8.93294 49.5597C8.63337 50.0947 8.1042 49.9915 7.76673 49.7521C7.7004 49.7557 7.56446 49.6318 7.56446 49.6318L7.25833 50.0371L7.25796 50.0375ZM5.8104 47.7283C5.86761 47.5942 6.04947 47.3238 6.1107 47.2553C6.16536 47.0585 6.03198 47.0002 5.89823 46.9426L6.02505 46.8661L7.44711 47.7692L7.08121 48.3071L7.01415 48.2473C7.25578 47.8472 7.11437 47.7232 6.77872 47.4805L6.5739 47.3617C6.50903 47.2998 6.50903 47.2998 6.38439 47.4361L5.84137 48.31C6.24846 48.6154 6.43651 48.4106 6.61873 48.2025L6.68433 48.1988C6.56844 48.404 6.4438 48.54 6.38184 48.6726C6.26303 48.8749 6.20436 49.0035 6.08154 49.1427L6.0123 49.079C6.25283 48.6788 6.1158 48.5564 5.78051 48.3774L5.41826 48.9831C5.35885 49.1132 5.23676 49.2528 5.24332 49.3793C5.25426 49.5761 5.39056 49.7036 5.52613 49.7561C5.8636 49.9347 6.06113 49.9875 6.36872 49.6526L6.43432 49.649L6.07535 50.2466L4.44993 49.1617L4.50824 49.0939C4.58113 49.1544 4.71124 49.2156 4.83988 49.1413C4.89892 49.0728 5.0826 48.8024 5.20651 48.6701L5.81076 47.7287L5.8104 47.7283ZM4.23892 48.6241C4.24912 48.8195 4.25277 48.8836 4.39089 49.0086L4.33149 49.0779C4.26003 49.0177 4.19074 48.955 4.12375 48.8898C4.05342 48.8301 3.92185 48.8373 3.85407 48.7776L3.90144 48.4467L3.91128 47.408C3.90108 47.2134 3.90108 47.2134 3.76368 47.0895L3.45974 47.4969C3.39888 47.631 3.21921 47.8978 3.16089 48.0312C3.16818 48.1613 3.2367 48.2225 3.37045 48.2819L3.30922 48.3497C3.17511 48.2921 3.03808 48.1697 2.90688 48.1081C2.7662 47.9893 2.62881 47.8639 2.43237 47.8129L2.49068 47.7436C2.62553 47.8027 2.69404 47.8614 2.81978 47.791C2.94733 47.72 3.13065 47.4492 3.18859 47.3198L3.85261 46.3067C3.91529 46.2363 4.09678 45.9677 4.15874 45.8365C4.2145 45.7035 4.07966 45.6434 4.01114 45.5836L4.00385 45.4531C4.20794 45.5734 4.34461 45.6962 4.54869 45.815C4.68208 45.8711 4.81838 45.9961 4.88836 46.0563C5.22802 46.299 5.50499 46.6084 5.20251 47.0785C4.8971 47.4874 4.57056 47.5057 4.23746 47.3242V48.6245L4.23892 48.6241ZM22.9301 49.4864L22.3918 48.4806L22.2256 49.5666L22.9301 49.4864ZM14.5869 51.3841C14.6518 51.5094 14.6569 51.7022 14.7243 51.8276C14.7936 51.953 14.9204 51.9504 15.0465 51.9464C15.3016 51.8735 15.4226 51.6184 15.3501 51.3013C15.3435 51.0462 15.2101 50.9201 15.0793 50.7999C14.889 50.7437 14.764 50.8072 14.6336 50.8108L14.5082 50.8152L14.5873 51.3837L14.5869 51.3841ZM14.5031 50.626L14.5669 50.6249C14.6908 50.552 14.8169 50.5484 14.8814 50.4843C15.0042 50.3542 14.9995 50.165 14.9944 49.9755C14.9222 49.6603 14.7903 49.5374 14.5388 49.5447C14.4761 49.6089 14.3438 49.6114 14.3438 49.6114L14.3489 49.802L14.5031 50.6268V50.626ZM12.4965 51.6946C12.5001 51.8199 12.5719 52.0743 12.6357 52.2022C12.7064 52.3251 12.8325 52.3211 12.9589 52.2547C13.276 52.246 13.3985 51.9901 13.3245 51.6097C13.2541 51.4202 13.1842 51.2306 12.9917 51.1709C12.8642 51.1137 12.6736 51.1184 12.4826 51.1854L12.4163 51.1862L12.4965 51.6946ZM12.3507 50.9959L12.4768 50.9333C12.6022 50.9296 12.7283 50.9267 12.7924 50.7991C12.917 50.6687 12.9134 50.5367 12.9083 50.3509C12.8361 50.0324 12.6998 49.8472 12.3835 49.9172C12.3835 49.9172 12.257 49.9216 12.1925 49.9879L12.1962 50.1144L12.3507 50.9963V50.9959ZM22.109 49.8735C22.1141 50.0641 21.996 50.3848 22.0616 50.509C22.0671 50.7022 22.2584 50.6315 22.3878 50.6279L22.3915 50.7569C22.2621 50.7605 22.1327 50.7642 22.0062 50.7671C21.8787 50.8338 21.7548 50.837 21.6261 50.84L21.6247 50.7773C21.8135 50.7091 21.8743 50.6417 21.9352 50.4475C21.9898 50.1293 21.9826 49.8764 22.0387 49.6158L22.3157 47.8971L22.4425 47.8945L23.4531 49.8381C23.5194 49.962 23.6517 50.1523 23.7202 50.2754C23.7869 50.3374 23.9134 50.3337 24.0398 50.3308L24.0435 50.4562C23.9167 50.4598 23.7253 50.4649 23.5989 50.5327C23.4079 50.5378 23.2191 50.6056 23.0912 50.6082L23.0897 50.5462C23.1495 50.4788 23.3423 50.4751 23.2709 50.286C23.2694 50.2233 23.2053 50.0965 23.2038 50.0345L22.9327 49.5921L22.1054 49.7452L22.109 49.8727V49.8735ZM20.9191 48.2499L20.9847 48.2484L21.1378 49.072L21.07 49.0731C20.929 48.6311 20.6017 48.3242 20.2216 48.396C19.5827 48.4762 19.5401 49.2379 19.6202 49.872C19.7678 50.5043 20.0375 51.133 20.6746 51.0528C21.1192 50.9143 21.2376 50.5316 21.2242 50.0229L21.2861 49.9558L21.4392 50.9052L21.3062 50.7186C21.1203 50.9781 20.867 51.0466 20.6119 51.1177C19.914 51.2656 19.3239 50.7725 19.1742 49.9514C19.0874 49.1253 19.4548 48.415 20.1509 48.3355C20.473 48.2626 20.6666 48.3209 20.9235 48.4401L20.9191 48.2499ZM18.3072 49.4624C18.3035 49.3334 18.2354 49.0833 18.2321 48.9558C18.0983 48.8319 17.9733 48.8363 17.907 48.8373L17.8414 48.779C18.0309 48.7072 18.2252 48.7025 18.3538 48.6981C18.5433 48.6945 18.7335 48.6241 18.8618 48.6201L18.8637 48.6857C18.7995 48.6872 18.6716 48.7561 18.6122 48.88C18.6158 49.0126 18.6224 49.2619 18.688 49.3895L18.8502 50.5951C18.8538 50.7204 18.9256 51.036 18.9876 51.0973C19.0568 51.2226 19.188 51.2186 19.3119 51.2146L19.3156 51.3451C19.1271 51.3502 18.9949 51.3524 18.8053 51.3578C18.6792 51.4234 18.489 51.4282 18.2977 51.4333L18.2962 51.372C18.4252 51.3677 18.5502 51.3648 18.5451 51.1723C18.606 51.0448 18.5349 50.7933 18.532 50.6676L18.3072 49.4631V49.4624ZM16.0848 49.8866C16.0811 49.759 16.0082 49.4445 16.0046 49.3155C15.9361 49.1916 15.7495 49.1952 15.6839 49.2608L15.6146 49.1351C15.8067 49.13 15.9995 49.1263 16.1267 49.0611C16.3173 49.0556 16.5123 49.0509 16.6369 48.9817L16.7007 49.107C16.5739 49.1107 16.4478 49.1136 16.3873 49.2411C16.3902 49.3676 16.4627 49.6821 16.4663 49.8133L16.6249 51.0145C16.7051 51.5233 16.8344 51.6457 17.2809 51.5703C17.4059 51.5036 17.6009 51.4989 17.7226 51.3662C17.849 51.2368 17.8439 51.0477 17.8392 50.8549L17.9646 50.7868L18.0455 51.5499L17.8578 51.5554C17.282 51.6348 16.6453 51.7762 16.072 51.8568L16.0706 51.7912C16.1981 51.7277 16.3249 51.7237 16.3213 51.5962C16.3818 51.4686 16.3093 51.1501 16.306 51.0225L16.0848 49.8866ZM14.0446 50.2547C14.041 50.1256 13.9699 49.8126 13.9018 49.7481C13.8347 49.626 13.7086 49.6296 13.5781 49.6326L13.5767 49.5706C13.7687 49.5006 13.8952 49.4966 14.0905 49.4915C14.2134 49.4886 14.3395 49.4212 14.4714 49.4172C14.8519 49.3406 15.3001 49.3953 15.3778 49.9026C15.4543 50.2816 15.1992 50.4762 14.9477 50.6144C15.1409 50.6089 15.3326 50.6042 15.466 50.7281C15.6573 50.8483 15.7921 51.0349 15.861 51.2215C15.8698 51.5415 15.7466 51.7343 15.623 51.8666C15.4353 52.0627 15.1799 52.0692 14.9874 52.0743C14.9266 52.1407 14.7338 52.1458 14.6084 52.1498C14.4123 52.1549 14.2232 52.2212 14.0362 52.289L14.0326 52.1651C14.0953 52.1622 14.2841 52.1571 14.2793 51.9665C14.2757 51.84 14.2064 51.5845 14.2035 51.4599L14.045 50.2536L14.0446 50.2547ZM11.8915 50.6264C11.8879 50.5025 11.815 50.1843 11.812 50.0601C11.7464 49.935 11.616 49.9376 11.4913 50.0068L11.4877 49.8793C11.6145 49.8749 11.8069 49.8698 11.9323 49.8006C12.1269 49.7955 12.253 49.7933 12.3784 49.7277C12.6947 49.6566 13.2093 49.7058 13.2895 50.2751C13.3635 50.657 13.1751 50.8498 12.9251 50.9803C13.1182 50.9752 13.3077 50.9704 13.4364 51.0349C13.6332 51.1541 13.7651 51.3433 13.7717 51.5962C13.8409 51.8513 13.7228 52.0437 13.5329 52.2391C13.4083 52.3695 13.1561 52.4388 12.9637 52.4439C12.7683 52.4493 12.6419 52.4526 12.5183 52.5204C12.2596 52.5277 12.1364 52.5969 11.8795 52.6042L11.8776 52.5375C12.003 52.469 12.1328 52.4654 12.1947 52.3371C12.1911 52.2132 12.1182 51.8968 12.1145 51.77L11.8915 50.6264ZM33.5478 50.9624L33.3546 49.7947L32.836 50.8349L33.5478 50.9624ZM37.8847 50.6738C37.8847 50.5462 37.8205 50.2226 37.8205 50.1548C37.7586 49.9595 37.6252 50.0273 37.498 50.0273V49.8942H38.0133C38.1409 49.8942 38.3369 49.8301 38.5316 49.8301V49.9595C38.404 49.9595 38.2692 49.9595 38.209 50.0921V50.6734L38.3366 51.844C38.3366 51.9741 38.3366 52.2959 38.404 52.4278C38.4685 52.5565 38.5972 52.5565 38.724 52.5565V52.6203H38.2094C38.0137 52.6844 37.885 52.6844 37.6919 52.6844V52.6203C37.7589 52.6203 37.9525 52.6203 37.9525 52.4271C38.0133 52.2959 37.9525 52.0379 37.9525 51.9074L37.8847 50.6734V50.6738ZM35.3427 50.426C35.3427 50.294 35.4112 49.9704 35.4112 49.8428C35.3806 49.7832 35.3341 49.7331 35.2769 49.6981C35.2197 49.6631 35.1539 49.6446 35.0868 49.6446L35.1535 49.5848C35.28 49.5848 35.4742 49.6446 35.6036 49.6446C35.7982 49.7127 35.9918 49.7127 36.1845 49.7127L36.1219 49.8425C36.0574 49.8425 35.8606 49.7787 35.7975 49.9063C35.7334 50.0349 35.7334 50.3618 35.6663 50.4883L35.4731 51.7263C35.4105 52.2427 35.4732 52.3728 35.8606 52.4395C36.0574 52.4395 36.2487 52.5036 36.3766 52.4395C36.6405 52.3083 36.6405 52.1764 36.7021 51.9183H36.8325L36.6401 52.6983C36.6401 52.6337 36.5082 52.6337 36.5082 52.6337C35.8609 52.5036 35.28 52.4399 34.6371 52.3079V52.2423C34.7625 52.2423 34.8915 52.2423 35.022 52.1133C35.022 52.0506 35.0865 51.7263 35.1532 51.5944L35.3419 50.4256L35.3427 50.426ZM32.6422 51.094C32.5777 51.2226 32.449 51.5459 32.3852 51.6778C32.3852 51.8691 32.5777 51.8691 32.6422 51.9373V52.0011C32.5121 52.0011 32.3852 51.9369 32.2569 51.9369C32.125 51.9369 31.9956 51.8688 31.8695 51.8688L31.9315 51.809C32.1246 51.809 32.1866 51.7409 32.3214 51.5455C32.4497 51.286 32.578 51.028 32.7088 50.7671L33.4833 49.2109L33.6108 49.2721L33.9982 51.4814C34.0668 51.6104 34.0668 51.8684 34.1294 52.0003C34.1914 52.1345 34.257 52.1345 34.3846 52.1957V52.2613C34.257 52.2613 34.0668 52.1957 33.87 52.1957C33.7388 52.1345 33.5474 52.1345 33.3539 52.1345L33.4184 52.0003C33.4833 52.0003 33.6754 52.067 33.6754 51.9366V51.5455L33.6108 51.0936L32.7085 50.9617L32.6422 51.0929V51.094ZM32.3932 49.7649L32.3265 49.7022C32.3932 49.3115 32.2628 49.1785 31.9402 49.1136C31.7471 49.1136 31.5496 49.0524 31.5496 49.1792L31.2296 51.1902C31.2296 51.5171 31.2296 51.5812 31.5496 51.7132V51.7759C31.359 51.7759 31.1632 51.7132 30.9726 51.6483C30.7758 51.6483 30.5827 51.6483 30.3884 51.5812V51.5171C30.7755 51.5171 30.8447 51.4533 30.9059 51.1264L31.1636 49.114C31.2299 49.0527 31.0331 48.9849 30.9067 48.9849C30.5167 48.9252 30.3892 48.9252 30.3265 49.4398L30.196 49.376L30.3265 48.7244L32.5215 49.1143L32.394 49.7652L32.3932 49.7649ZM29.1205 49.329C29.1205 49.1978 29.184 48.9405 29.1205 48.8078C29.1205 48.6795 28.993 48.6132 28.8665 48.6132V48.4857C29.0549 48.5476 29.2528 48.6132 29.3815 48.6132C29.5757 48.6132 29.7678 48.6799 29.962 48.6799L29.8964 48.7426C29.8272 48.7426 29.6377 48.7426 29.5757 48.8738C29.5079 49.0032 29.5079 49.2612 29.4456 49.3942L29.3144 50.626C29.2525 50.7572 29.2525 51.0794 29.2525 51.1472C29.2525 51.3403 29.3818 51.3403 29.5083 51.3403V51.4715C29.3152 51.403 29.184 51.403 28.9934 51.3403C28.7973 51.3403 28.6708 51.3403 28.4784 51.2736V51.2099C28.6038 51.2099 28.7306 51.2099 28.7973 51.0794C28.8665 51.0156 28.9274 50.6894 28.9274 50.5633L29.1205 49.329ZM44.7107 47.3829L43.7438 46.7341L44.1309 47.8391L44.7107 47.3829ZM40.3563 50.5134L39.5156 49.7364L39.7102 50.8418L40.3563 50.5134ZM44.1939 48.0961C44.1939 48.2903 44.3251 48.6161 44.3907 48.7448C44.5201 48.8752 44.6487 48.7448 44.7107 48.6799L44.7774 48.81C44.7107 48.8756 44.5853 48.9427 44.4559 49.0068C44.3903 49.0651 44.2584 49.1344 44.1935 49.2663L44.1305 49.1351C44.2588 49.0068 44.2588 48.943 44.2588 48.7451C44.1312 48.4208 44.0656 48.1609 44.0037 47.9018L43.4862 46.2155L43.5481 46.1478L45.425 47.4495C45.487 47.5115 45.7435 47.7083 45.8113 47.7083C45.9374 47.7728 46.069 47.7083 46.1991 47.642V47.7724C46.069 47.8388 45.9367 47.9015 45.8109 48.0305C45.6834 48.1606 45.5522 48.2273 45.4254 48.3574L45.3605 48.2899C45.4254 48.2273 45.5515 48.0957 45.4873 47.9656C45.4254 47.9011 45.2964 47.838 45.2293 47.7724L44.8444 47.5115L44.1312 48.0301L44.195 48.0957L44.1939 48.0961ZM40.9649 48.5662C40.7718 48.4984 40.6391 48.4984 40.513 48.6329L40.4474 48.4988C40.5761 48.4357 40.6391 48.4357 40.7062 48.3067C40.7718 48.3067 40.9001 48.2429 40.9649 48.1777L43.4851 49.0218L42.7733 48.044C42.6443 47.9175 42.5167 47.6558 42.3852 47.5279C42.1957 47.3978 42.1257 47.4623 41.9347 47.5279L41.8691 47.4623C41.9978 47.3974 42.1257 47.3311 42.2591 47.267C42.3218 47.1358 42.3852 47.0745 42.5167 47.0046L42.5812 47.0738C42.5167 47.2043 42.3852 47.2043 42.4522 47.3982C42.5171 47.5279 42.7737 47.8526 42.906 48.044L43.9373 49.4762L43.8728 49.5393C43.7438 49.5393 43.6159 49.4766 43.4858 49.4092L41.1585 48.6322L41.9989 49.7984C42.0674 49.9314 42.2598 50.1246 42.3859 50.2539C42.5171 50.3203 42.6454 50.2539 42.774 50.1858V50.2532C42.7084 50.3859 42.582 50.45 42.4526 50.5127C42.3225 50.5765 42.2594 50.6417 42.1261 50.7733L42.0663 50.7077C42.1953 50.5765 42.2587 50.5127 42.1953 50.3199C42.1071 50.1532 41.9973 49.9988 41.8688 49.8607L40.9649 48.5655V48.5662ZM39.7776 51.164C39.7776 51.293 39.8395 51.6202 39.904 51.8105C39.9697 51.9417 40.1584 51.8746 40.2248 51.8105L40.2904 51.8746C40.1592 51.9424 40.0994 52.0058 39.9697 52.074C39.8399 52.1359 39.7109 52.2001 39.646 52.2635L39.5793 52.1997C39.7105 52.0732 39.7776 52.0058 39.7105 51.7463C39.7105 51.4858 39.6457 51.1632 39.5793 50.9045L39.2561 49.1515H39.3873L41.0637 50.6421C41.1319 50.7088 41.3254 50.9045 41.4537 50.9664C41.5805 51.032 41.7113 50.9664 41.7773 50.9664L41.8418 51.032C41.7121 51.0962 41.5189 51.1632 41.3892 51.293C41.2616 51.3586 41.0648 51.422 40.9361 51.5524L40.8706 51.4223C41.001 51.4223 41.1322 51.2937 41.0644 51.1643C41.001 51.0965 40.9358 50.9675 40.8071 50.9056L40.4853 50.6432L39.7109 51.0331L39.7783 51.1643L39.7776 51.164Z" fill="white"/>
<path d="M6.84452 32.7456C6.6725 32.2245 6.47497 31.6031 6.41447 31.399L6.37657 31.2725L7.85986 30.4292C7.70132 29.6694 7.59527 28.9871 7.53659 28.3512L5.86526 28.0068L5.86088 27.8763C5.84813 27.5191 5.84813 26.049 5.86088 25.6918L5.86526 25.5617L7.53587 25.217C7.60088 24.5186 7.70847 23.8249 7.85803 23.1396L7.03585 22.6786L7.59782 22.613L8.23414 22.9702L8.20753 23.0897C8.02896 23.9024 7.91379 24.647 7.85548 25.3675L7.84564 25.4907L6.18852 25.8321C6.18014 26.272 6.18014 27.2936 6.18852 27.7331L7.84564 28.0742L7.85585 28.1974C7.91343 28.8873 8.02859 29.6326 8.20863 30.4759L8.23414 30.5947L6.76908 31.4271C6.83832 31.6519 6.95567 32.02 7.07229 32.3775L6.84415 32.7442L6.84452 32.7456ZM9.79869 37.5891C9.94374 37.7895 10.0771 37.9717 10.1697 38.0949L11.6974 37.401L11.7787 37.4921C12.2543 38.0271 12.79 38.5589 13.4162 39.1175L13.5073 39.1977L12.8112 40.7411C13.1552 41.0054 13.984 41.6034 14.3448 41.8501L15.5846 40.7116L15.6903 40.775C16.3532 41.1703 17.0427 41.5192 17.7538 41.8192L17.8682 41.8673L17.6787 43.5488C18.0996 43.6957 19.0683 44.0102 19.49 44.1378L20.3111 42.6727L20.4313 42.6989C21.2265 42.8739 21.993 42.993 22.7091 43.0506L22.833 43.0601L23.1745 44.7176C23.3844 44.7212 23.7357 44.7241 24.1293 44.7241C24.5215 44.7241 24.8684 44.7216 25.0747 44.7176L25.4034 43.0754L25.5255 43.0645C26.3564 42.9821 27.101 42.8622 27.8033 42.6986L27.9235 42.6705L28.7581 44.1374C29.1882 44.0084 30.1598 43.6953 30.5712 43.5495L30.3817 41.8804L30.494 41.8305C31.2006 41.5241 31.8861 41.171 32.5458 40.7736L32.6507 40.7102L33.9044 41.8494C34.263 41.6067 35.0859 41.001 35.4351 40.7379L34.7281 39.2083L34.821 39.1259C35.4515 38.5778 35.9865 38.0435 36.4552 37.4918L36.5361 37.397L38.0813 38.0931C38.3463 37.7498 38.9439 36.9218 39.1914 36.5613L38.0529 35.3208L38.1163 35.2151C38.5089 34.5551 38.8576 33.8699 39.1601 33.164L39.2089 33.051L40.8904 33.2289C41.0399 32.8061 41.3591 31.8411 41.4717 31.4293L40.0139 30.5936L40.0405 30.4748C40.2191 29.661 40.3347 28.9161 40.3926 28.197L40.4028 28.0731L42.0628 27.7316C42.0798 27.0988 42.0798 26.4657 42.0628 25.8329L40.4028 25.503L40.3926 25.3791C40.3248 24.5664 40.2024 23.8011 40.0282 23.105L39.9983 22.9837L41.4699 22.1465C41.3496 21.7212 41.0362 20.7445 40.8915 20.3367L39.2078 20.539L39.1597 20.4223C38.8654 19.7096 38.5167 19.0206 38.1167 18.3614L38.0525 18.255L39.1932 17.0133C38.9465 16.6445 38.3455 15.8125 38.0726 15.4699L36.5514 16.1799L36.4697 16.0851C35.963 15.503 35.4165 14.9567 34.8341 14.4502L34.7408 14.3689L35.4369 12.8372C35.0918 12.5675 34.2649 11.9578 33.8953 11.714L32.6657 12.8547L32.5593 12.7913C31.8966 12.3961 31.2074 12.0472 30.4965 11.7471L30.3821 11.6987L30.5716 10.0251C30.166 9.87281 29.1903 9.55866 28.7614 9.43767L27.9378 10.9078L27.8157 10.8787C27.0681 10.6991 26.3078 10.5772 25.5415 10.5142L25.4176 10.5044L25.0751 8.85601C24.8702 8.84873 24.5211 8.84362 24.125 8.84362C23.8086 8.84257 23.4922 8.8467 23.1759 8.85601L22.8461 10.5033L22.7222 10.5135C21.9088 10.5817 21.1442 10.7037 20.4488 10.8779L20.3275 10.9078L19.4783 9.43694C19.0592 9.5583 18.092 9.87245 17.678 10.0255L17.8682 11.6983L17.7538 11.7464C17.0458 12.0443 16.3608 12.3939 15.7041 12.7924L15.5984 12.8561L14.3448 11.7169C14.1709 11.8372 13.8885 12.0398 13.6035 12.2475L13.6567 11.7993C13.9227 11.6076 14.1578 11.441 14.2697 11.3678L14.3768 11.2978L15.6378 12.4447C16.2405 12.0865 16.8659 11.7679 17.5099 11.4909L17.319 9.81268L17.4356 9.7653C17.7818 9.62426 19.1667 9.1749 19.5151 9.08525L19.6372 9.05318L20.4893 10.5284C21.1738 10.368 21.869 10.2569 22.5695 10.1961L22.9001 8.54259L23.0258 8.53421H23.0331L23.0367 8.53348H23.0404L23.1497 8.52547H23.1548L23.184 8.52291H23.3235C23.5582 8.51745 23.8629 8.51562 24.1239 8.51562C24.5233 8.51562 25.0215 8.52036 25.2227 8.53458L25.348 8.54332L25.6906 10.1968C26.3787 10.2577 27.0609 10.367 27.769 10.5295L28.5963 9.05427L28.7184 9.08489C29.0854 9.176 30.4838 9.62645 30.8139 9.76639L30.9276 9.81377L30.7374 11.4913C31.3843 11.7697 32.0132 12.0881 32.6205 12.4447L33.8534 11.3003L33.9602 11.3641C34.286 11.5595 35.469 12.4348 35.746 12.6615L35.8443 12.7417L35.1435 14.2833C35.6716 14.749 36.17 15.2472 36.6359 15.775L38.1618 15.0632L38.2435 15.158C38.4811 15.4338 39.343 16.6267 39.5416 16.9445L39.6083 17.0516L38.4625 18.2987C38.8231 18.9039 39.1419 19.5331 39.4166 20.1818L41.1098 19.9777L41.1557 20.098C41.2833 20.4304 41.7301 21.8196 41.8227 22.1881L41.8537 22.3102L40.3791 23.1491C40.5333 23.7931 40.6444 24.491 40.7115 25.2283L42.3777 25.5588L42.3865 25.6845C42.412 26.0435 42.412 27.5213 42.3865 27.8803L42.3777 28.0053L40.7115 28.3479C40.6468 29.0471 40.539 29.7416 40.3886 30.4274L41.85 31.2664L41.8238 31.3852C41.7425 31.7518 41.2749 33.1454 41.1568 33.4639L41.1131 33.5853L39.4159 33.4067C39.1357 34.049 38.8176 34.674 38.4632 35.2785L39.6105 36.5285L39.5402 36.6357C39.3397 36.9436 38.4884 38.1226 38.2595 38.4032L38.1793 38.5016L36.6268 37.8012C36.1895 38.3048 35.6993 38.7943 35.1319 39.2936L35.8462 40.8388L35.7427 40.919C35.4591 41.1391 34.2849 42.005 33.9751 42.1996L33.8694 42.2663L32.6099 41.1213C32.0054 41.479 31.3802 41.8007 30.7378 42.0848L30.9287 43.7686L30.8096 43.8149C30.4779 43.9413 29.0868 44.3881 28.725 44.4916L28.5996 44.5281L27.757 43.0477C27.1112 43.1935 26.4282 43.3021 25.6797 43.3793L25.348 45.0397L25.2168 45.0456C25.0175 45.0521 24.5244 45.0543 24.129 45.0543C23.7339 45.0543 23.2383 45.0518 23.032 45.0456L22.9022 45.0401L22.5582 43.371C21.8599 43.3045 21.1662 43.1961 20.4809 43.0466L19.6507 44.5281L19.525 44.4916C19.1809 44.3932 17.7938 43.945 17.4422 43.8149L17.3204 43.7704L17.5121 42.0746C16.8654 41.7958 16.2364 41.4775 15.6287 41.1216L14.3794 42.2689L14.2719 42.1986C13.9635 41.9967 12.7838 41.1453 12.5043 40.9168L12.4059 40.8366L13.1071 39.2812C12.5842 38.814 12.0857 38.3201 11.6136 37.8015L10.0684 38.5042L9.9882 38.3992C9.91167 38.3008 9.76116 38.0967 9.58805 37.8588L9.80015 37.5869L9.79869 37.5891Z" fill="white"/>
<path d="M24.1037 40.2261C22.1621 40.2297 20.243 39.8098 18.4803 38.9957L18.2424 38.8853L24.1201 31.4886L29.8637 38.9403L29.6268 39.046C27.8888 39.8219 26.0071 40.2239 24.1037 40.2261ZM18.8911 38.7301C20.5344 39.4493 22.3095 39.8188 24.1033 39.815C25.8508 39.815 27.6129 39.4578 29.219 38.7763L24.1157 32.1555L18.8911 38.7301ZM33.8099 36.117L28.5903 28.2479L37.4554 25.0871L37.4831 25.3459C37.6908 27.2568 37.4861 29.1901 36.883 31.0152C36.2798 32.8403 35.2921 34.5148 33.9867 35.9257L33.8099 36.117ZM29.2238 28.4586L33.862 35.4508C35.0413 34.124 35.937 32.5702 36.494 30.8847C37.051 29.1992 37.2577 27.4177 37.1012 25.6495L29.2238 28.4586ZM14.3319 36.0026L14.1569 35.8087C12.8708 34.3811 11.904 32.6956 11.3213 30.8646C10.7385 29.0336 10.5531 27.0993 10.7775 25.191L10.8084 24.9315L19.6597 28.2272L14.3322 36.0033L14.3319 36.0026ZM11.1576 25.5C10.9856 27.2664 11.1746 29.0494 11.713 30.7405C12.2514 32.4316 13.1281 33.9956 14.2896 35.3375L19.0226 28.4291L11.1572 25.5004L11.1576 25.5ZM26.8924 22.9938L26.6238 13.5784L26.8789 13.6319C30.6983 14.4352 33.9703 16.8427 35.8581 20.2375L35.9849 20.4653L26.892 22.9945L26.8924 22.9938ZM27.0491 14.0904L27.2882 22.4573L35.3697 20.2091C33.5657 17.1149 30.5569 14.9017 27.0495 14.0901L27.0491 14.0904ZM21.3638 22.9847L12.3373 20.3206L12.4674 20.0946C14.411 16.7188 17.7081 14.3539 21.5114 13.6057L21.7672 13.5547L21.3638 22.9847ZM12.9561 20.0753L20.976 22.4416L21.3347 14.0624C17.8404 14.8229 14.8111 16.9969 12.9561 20.0753Z" fill="white"/>
<path d="M24.1181 14.568L21.2783 22.6722L21.2335 22.7997L21.0994 22.8026L12.5058 23.0104L19.3362 28.2135L19.4433 28.2948L19.4051 28.4238L16.944 36.6766L24.0073 31.7916L24.1173 31.7151L24.2285 31.7916L31.3038 36.6766L28.8438 28.4497L28.8052 28.3214L28.9127 28.239L35.7438 23.0111L27.1633 22.8154L27.0278 22.8117L26.984 22.6856L24.1181 14.568ZM20.9547 22.417L23.9336 13.9175L24.117 13.3945L24.3014 13.9164L27.3055 22.4298L36.3058 22.635L36.8597 22.6477L36.4198 22.9841L29.2549 28.4672L31.8351 37.0961L31.9948 37.6264L31.5392 37.3122L24.1173 32.1881L16.7082 37.3122L16.2526 37.6264L16.4112 37.0961L18.9922 28.4413L11.8272 22.9845L11.3862 22.6492L11.9409 22.6354L20.9547 22.417Z" fill="white"/>
</g>
<g clip-path="url(#clip1_1467_14785)">
<mask id="mask0_1467_14785" style="mask-type:luminance" maskUnits="userSpaceOnUse" x="61" y="0" width="60" height="60">
<path d="M120.995 0.00195312H61.9557V59.4062H120.995V0.00195312Z" fill="white"/>
</mask>
<g mask="url(#mask0_1467_14785)">
<path d="M120.996 0.191406V59.2314H61.9558V0.191406H120.996ZM97.0736 15.6438H87.0587V45.3825H97.0736C99.6975 45.3825 101.855 45.0691 103.546 44.4423C105.237 43.8154 106.527 42.8096 107.416 41.4247C108.306 40.0398 108.911 38.4654 109.231 36.7015C109.552 34.9374 109.712 32.7143 109.712 30.032C109.712 27.3497 109.538 25.1703 109.188 23.4939C108.838 21.8175 108.204 20.3597 107.285 19.1206C106.367 17.8815 105.077 16.9922 103.415 16.4528C101.812 15.9327 99.7897 15.6634 97.3467 15.6448L97.0736 15.6438ZM97.0736 20.8918C98.5313 20.8918 99.6903 21.0448 100.55 21.351C101.41 21.6571 102.059 22.2183 102.496 23.0347C102.934 23.851 103.211 24.7549 103.327 25.7461C103.444 26.7374 103.502 28.0567 103.502 29.704C103.502 31.3513 103.473 32.6414 103.415 33.5744C103.211 35.936 102.686 37.5689 101.84 38.4727C100.849 39.5806 99.2602 40.1345 97.0736 40.1345H93.0938V20.8918H97.0736ZM76.5603 23.1513C75.4899 23.1513 74.6083 23.4938 73.9211 24.1831C73.234 24.8746 72.8891 25.7371 72.8891 26.7766C72.8891 27.8164 73.2386 28.6867 73.9306 29.3882C74.6212 30.0889 75.5013 30.4402 76.5694 30.4402C77.6353 30.4402 78.5028 30.0955 79.1737 29.4084C79.8403 28.718 80.178 27.8581 80.178 26.8215C80.178 25.7865 79.8403 24.9151 79.1737 24.2111C78.5028 23.5037 77.6315 23.1513 76.5603 23.1513Z" fill="white"/>
</g>
</g>
<defs>
<clipPath id="clip0_1467_14785">
<rect width="47.3776" height="54.6665" fill="white" transform="translate(0 2.36914)"/>
</clipPath>
<clipPath id="clip1_1467_14785">
<rect width="59.0398" height="59.4042" fill="white" transform="translate(61.9553)"/>
</clipPath>
</defs>
</svg>